<svg id="Layer_1" data-name="Layer 1" xmlns="http://www.w3.org/2000/svg" viewBox="0 0 469.133 306.5"><defs><style>.cls-1,.cls-4{fill:none;stroke:#1a1a18;}.cls-1{stroke-width:3px;}.cls-2{fill:#fff;}.cls-3{fill:#1a1a18;}.cls-4{stroke-width:4px;}</style></defs><title>ISP</title><path class="cls-1" d="M74.72,103.948c38.582,16.1,87.089,25.715,139.829,25.715s101.248-9.618,139.83-25.715"/><path class="cls-1" d="M75.217,92.866c13.545,25.37,30.575,40.528,49.09,40.528s35.545-15.158,49.091-40.528"/><line class="cls-1" x1="205.094" y1="96.355" x2="205.094" y2="43.355"/><line class="cls-1" x1="42.52" y1="96.355" x2="42.52" y2="43.355"/><line class="cls-1" x1="385.012" y1="96.355" x2="385.012" y2="43.355"/><rect class="cls-2" x="3" y="9.355" width="422.532" height="50"/><path class="cls-3" d="M158.614,31.374h1.375L157.805,37.8H156.32l-2.18-6.425h1.376l1.208,3.823c.068.226.137.489.209.789s.116.509.134.626A11.3,11.3,0,0,1,157.4,35.2Z"/><path class="cls-3" d="M162.961,37.887a2.536,2.536,0,0,1-1.855-.655,2.479,2.479,0,0,1-.668-1.855,2.727,2.727,0,0,1,.618-1.909,2.2,2.2,0,0,1,1.707-.675,2.163,2.163,0,0,1,1.622.594,2.246,2.246,0,0,1,.58,1.638v.651H161.8a1.29,1.29,0,0,0,.339.892,1.19,1.19,0,0,0,.887.321,3.722,3.722,0,0,0,.84-.092,4.166,4.166,0,0,0,.826-.295v1.037a3.107,3.107,0,0,1-.751.262A4.75,4.75,0,0,1,162.961,37.887Zm-.189-4.14a.848.848,0,0,0-.668.271,1.25,1.25,0,0,0-.277.766h1.881a1.114,1.114,0,0,0-.259-.766A.876.876,0,0,0,162.772,33.747Z"/><path class="cls-3" d="M168.842,32.793a2.18,2.18,0,0,1,.452.04l-.1,1.257a1.544,1.544,0,0,0-.4-.044,1.425,1.425,0,0,0-1,.329,1.193,1.193,0,0,0-.358.924v2.5H166.1V32.886h1.015l.2.826h.066a1.856,1.856,0,0,1,.618-.666A1.525,1.525,0,0,1,168.842,32.793Z"/><path class="cls-3" d="M172.956,32.793a1.589,1.589,0,0,1,1.362.68,3.115,3.115,0,0,1,.493,1.861,3.056,3.056,0,0,1-.508,1.885,1.772,1.772,0,0,1-2.74.039h-.092l-.224.541h-1.024V30.961h1.34v1.591q0,.3-.053.971h.053A1.551,1.551,0,0,1,172.956,32.793Zm-.431,1.072a.849.849,0,0,0-.725.306,1.76,1.76,0,0,0-.237,1.009v.144a2.072,2.072,0,0,0,.235,1.135.838.838,0,0,0,.745.342.747.747,0,0,0,.657-.38,2.062,2.062,0,0,0,.244-1.1,1.945,1.945,0,0,0-.246-1.087A.77.77,0,0,0,172.525,33.865Z"/><path class="cls-3" d="M179.443,37.8l-.18-.629h-.07a1.423,1.423,0,0,1-.611.53,2.094,2.094,0,0,1-.9.187,1.716,1.716,0,0,1-1.305-.464,1.863,1.863,0,0,1-.439-1.333v-3.2h1.34v2.87a1.377,1.377,0,0,0,.189.8.687.687,0,0,0,.6.265.906.906,0,0,0,.813-.375,2.333,2.333,0,0,0,.25-1.246V32.886h1.341V37.8Z"/><path class="cls-3" d="M186.449,37.8h-1.34V34.93a1.378,1.378,0,0,0-.189-.8.687.687,0,0,0-.6-.267.906.906,0,0,0-.813.376,2.331,2.331,0,0,0-.251,1.246V37.8h-1.34V32.886h1.024l.18.628h.075a1.415,1.415,0,0,1,.618-.538,2.091,2.091,0,0,1,.894-.183,1.717,1.717,0,0,1,1.3.464,1.862,1.862,0,0,1,.444,1.339Z"/><path class="cls-3" d="M189.421,37.887a1.6,1.6,0,0,1-1.36-.672,3.089,3.089,0,0,1-.5-1.863,3.1,3.1,0,0,1,.5-1.884,1.638,1.638,0,0,1,1.387-.675,1.6,1.6,0,0,1,1.415.721h.044a5.514,5.514,0,0,1-.1-.98V30.961h1.345V37.8H191.13l-.259-.637h-.057A1.535,1.535,0,0,1,189.421,37.887Zm.47-1.069a.906.906,0,0,0,.754-.3,1.739,1.739,0,0,0,.261-1.015v-.146a2,2,0,0,0-.244-1.132.9.9,0,0,0-.793-.344.785.785,0,0,0-.7.381,2.02,2.02,0,0,0-.249,1.1,1.919,1.919,0,0,0,.251,1.087A.817.817,0,0,0,189.891,36.818Z"/><path class="cls-3" d="M197.157,37.8l-1.872-4.913h1.4l.949,2.8a4.922,4.922,0,0,1,.2,1.005h.026a4.394,4.394,0,0,1,.2-1.005l.945-2.8h1.4L198.533,37.8Z"/><path class="cls-3" d="M205.618,35.334a2.639,2.639,0,0,1-.633,1.876,2.3,2.3,0,0,1-1.762.677,2.469,2.469,0,0,1-1.248-.31,2.061,2.061,0,0,1-.831-.889,3,3,0,0,1-.29-1.354,2.628,2.628,0,0,1,.628-1.873,2.313,2.313,0,0,1,1.767-.668,2.468,2.468,0,0,1,1.248.309,2.061,2.061,0,0,1,.831.882A2.971,2.971,0,0,1,205.618,35.334Zm-3.4,0a2.06,2.06,0,0,0,.239,1.1.858.858,0,0,0,.78.374.84.84,0,0,0,.771-.373,2.083,2.083,0,0,0,.236-1.1,2.034,2.034,0,0,0-.238-1.1,1.01,1.01,0,0,0-1.551,0A2.033,2.033,0,0,0,202.221,35.334Z"/><path class="cls-3" d="M211.3,37.8h-1.34V34.93a1.378,1.378,0,0,0-.189-.8.687.687,0,0,0-.6-.267.906.906,0,0,0-.813.376,2.333,2.333,0,0,0-.25,1.246V37.8h-1.341V32.886h1.024l.18.628h.075a1.415,1.415,0,0,1,.618-.538,2.091,2.091,0,0,1,.894-.183,1.72,1.72,0,0,1,1.3.464A1.866,1.866,0,0,1,211.3,34.6Z"/><path class="cls-3" d="M215.2,37.8V31.374h1.362V37.8Z"/><path class="cls-3" d="M222.008,36.015a1.659,1.659,0,0,1-.626,1.371,2.718,2.718,0,0,1-1.742.5,4.093,4.093,0,0,1-1.82-.387V36.234a7.449,7.449,0,0,0,1.1.409,3.217,3.217,0,0,0,.824.119,1.167,1.167,0,0,0,.688-.172.585.585,0,0,0,.239-.51.568.568,0,0,0-.1-.336,1.169,1.169,0,0,0-.31-.283,8.225,8.225,0,0,0-.833-.436,3.892,3.892,0,0,1-.883-.531,1.983,1.983,0,0,1-.47-.594,1.687,1.687,0,0,1-.176-.791,1.657,1.657,0,0,1,.578-1.339,2.4,2.4,0,0,1,1.6-.489,3.777,3.777,0,0,1,.956.119,6.681,6.681,0,0,1,.952.334l-.44,1.059a6.427,6.427,0,0,0-.85-.294,2.722,2.722,0,0,0-.662-.083.878.878,0,0,0-.593.18.593.593,0,0,0-.206.47.575.575,0,0,0,.083.314.917.917,0,0,0,.266.26,8.311,8.311,0,0,0,.863.45,3.432,3.432,0,0,1,1.235.863A1.686,1.686,0,0,1,222.008,36.015Z"/><path class="cls-3" d="M227.657,33.378a1.966,1.966,0,0,1-.649,1.587,2.771,2.771,0,0,1-1.843.549h-.584V37.8h-1.363V31.374h2.053a2.732,2.732,0,0,1,1.777.5A1.836,1.836,0,0,1,227.657,33.378ZM224.581,34.4h.448a1.5,1.5,0,0,0,.94-.248.87.87,0,0,0,.312-.723.891.891,0,0,0-.261-.707,1.224,1.224,0,0,0-.82-.229h-.619Z"/><path class="cls-3" d="M230.849,35.334a6.784,6.784,0,0,1,.341-2.18,5.414,5.414,0,0,1,.982-1.78h1.1a6.312,6.312,0,0,0-.937,1.863,7.007,7.007,0,0,0-.316,2.087,6.727,6.727,0,0,0,.323,2.081,6.278,6.278,0,0,0,.921,1.818h-1.09a5.169,5.169,0,0,1-.984-1.744A6.632,6.632,0,0,1,230.849,35.334Z"/><path class="cls-3" d="M234.392,37.8V31.374h1.362V37.8Z"/><path class="cls-3" d="M241.837,37.8H240.5V34.93a1.378,1.378,0,0,0-.189-.8.687.687,0,0,0-.6-.267.906.906,0,0,0-.813.376,2.333,2.333,0,0,0-.25,1.246V37.8H237.3V32.886h1.024l.18.628h.075a1.415,1.415,0,0,1,.618-.538,2.091,2.091,0,0,1,.894-.183,1.72,1.72,0,0,1,1.3.464,1.866,1.866,0,0,1,.443,1.339Z"/><path class="cls-3" d="M245.323,36.818a2.883,2.883,0,0,0,.844-.153v1a3,3,0,0,1-1.23.225,1.507,1.507,0,0,1-1.172-.407,1.771,1.771,0,0,1-.367-1.219V33.893h-.641v-.568l.738-.448.387-1.037h.857v1.046h1.375v1.007h-1.375v2.368a.524.524,0,0,0,.16.422A.636.636,0,0,0,245.323,36.818Z"/><path class="cls-3" d="M249.419,37.887a2.532,2.532,0,0,1-1.854-.655,2.479,2.479,0,0,1-.668-1.855,2.731,2.731,0,0,1,.617-1.909,2.2,2.2,0,0,1,1.708-.675,2.16,2.16,0,0,1,1.621.594,2.242,2.242,0,0,1,.58,1.638v.651h-3.168a1.289,1.289,0,0,0,.338.892,1.191,1.191,0,0,0,.888.321,3.707,3.707,0,0,0,.839-.092,4.144,4.144,0,0,0,.826-.295v1.037a3.093,3.093,0,0,1-.751.262A4.75,4.75,0,0,1,249.419,37.887Zm-.189-4.14a.849.849,0,0,0-.668.271,1.243,1.243,0,0,0-.276.766h1.881a1.114,1.114,0,0,0-.26-.766A.875.875,0,0,0,249.23,33.747Z"/><path class="cls-3" d="M255.3,32.793a2.184,2.184,0,0,1,.453.04l-.1,1.257a1.552,1.552,0,0,0-.4-.044,1.427,1.427,0,0,0-1,.329,1.2,1.2,0,0,0-.358.924v2.5h-1.34V32.886h1.015l.2.826h.066a1.847,1.847,0,0,1,.618-.666A1.522,1.522,0,0,1,255.3,32.793Z"/><path class="cls-3" d="M261.216,37.8h-1.34V34.93a1.378,1.378,0,0,0-.189-.8.687.687,0,0,0-.6-.267.906.906,0,0,0-.813.376,2.331,2.331,0,0,0-.251,1.246V37.8h-1.34V32.886h1.024l.18.628h.075a1.415,1.415,0,0,1,.618-.538,2.091,2.091,0,0,1,.894-.183,1.716,1.716,0,0,1,1.3.464,1.862,1.862,0,0,1,.444,1.339Z"/><path class="cls-3" d="M264.856,37.887A2.536,2.536,0,0,1,263,37.232a2.479,2.479,0,0,1-.668-1.855,2.727,2.727,0,0,1,.618-1.909,2.2,2.2,0,0,1,1.707-.675,2.163,2.163,0,0,1,1.622.594,2.242,2.242,0,0,1,.58,1.638v.651h-3.169a1.29,1.29,0,0,0,.339.892,1.19,1.19,0,0,0,.887.321,3.722,3.722,0,0,0,.84-.092,4.144,4.144,0,0,0,.826-.295v1.037a3.107,3.107,0,0,1-.751.262A4.75,4.75,0,0,1,264.856,37.887Zm-.189-4.14a.848.848,0,0,0-.668.271,1.25,1.25,0,0,0-.277.766H265.6a1.114,1.114,0,0,0-.259-.766A.876.876,0,0,0,264.667,33.747Z"/><path class="cls-3" d="M270.064,36.818a2.883,2.883,0,0,0,.844-.153v1a3,3,0,0,1-1.23.225,1.509,1.509,0,0,1-1.172-.407,1.771,1.771,0,0,1-.366-1.219V33.893H267.5v-.568l.738-.448.387-1.037h.857v1.046h1.375v1.007H269.48v2.368a.524.524,0,0,0,.16.422A.638.638,0,0,0,270.064,36.818Z"/><path class="cls-3" d="M273.924,35.334a6.613,6.613,0,0,1-.341,2.152,5.159,5.159,0,0,1-.982,1.737h-1.09a6.345,6.345,0,0,0,.919-1.813,6.755,6.755,0,0,0,.325-2.086,6.976,6.976,0,0,0-.317-2.087,6.286,6.286,0,0,0-.936-1.863h1.1a5.377,5.377,0,0,1,.984,1.786A6.837,6.837,0,0,1,273.924,35.334Z"/><rect class="cls-4" x="3" y="9.355" width="422.532" height="50"/><line class="cls-1" x1="24.196" y1="184.355" x2="66.197" y2="184.355"/><path class="cls-2" d="M22,203.855a19.5,19.5,0,1,0-19.5-19.5,19.5,19.5,0,0,0,19.5,19.5"/><path class="cls-3" d="M12.977,187.8H11.43l-1.683-2.707-.576.413V187.8H7.809v-6.425H9.171v2.94l.537-.755,1.74-2.185h1.511l-2.241,2.843Z"/><path class="cls-3" d="M17.2,187.8l-.18-.629h-.071a1.417,1.417,0,0,1-.611.53,2.09,2.09,0,0,1-.9.187,1.717,1.717,0,0,1-1.306-.464,1.863,1.863,0,0,1-.439-1.333v-3.2h1.34v2.87a1.377,1.377,0,0,0,.189.8.688.688,0,0,0,.6.265.906.906,0,0,0,.813-.375,2.331,2.331,0,0,0,.251-1.246v-2.311h1.34V187.8Z"/><path class="cls-3" d="M24.2,187.8h-1.34V184.93a1.378,1.378,0,0,0-.189-.8.687.687,0,0,0-.6-.267.906.906,0,0,0-.813.376,2.331,2.331,0,0,0-.251,1.246V187.8h-1.34v-4.913h1.024l.18.628h.075a1.418,1.418,0,0,1,.617-.538,2.1,2.1,0,0,1,.895-.183,1.717,1.717,0,0,1,1.3.464A1.862,1.862,0,0,1,24.2,184.6Z"/><path class="cls-3" d="M27.174,187.887a1.6,1.6,0,0,1-1.361-.672,3.77,3.77,0,0,1,.009-3.747,1.638,1.638,0,0,1,1.387-.675,1.6,1.6,0,0,1,1.415.721h.044a5.514,5.514,0,0,1-.1-.98v-1.573h1.345V187.8H28.883l-.259-.637h-.057A1.535,1.535,0,0,1,27.174,187.887Zm.47-1.069a.9.9,0,0,0,.753-.3,1.731,1.731,0,0,0,.262-1.015v-.146a2,2,0,0,0-.244-1.132.9.9,0,0,0-.793-.344.785.785,0,0,0-.7.381,2.02,2.02,0,0,0-.249,1.1,1.919,1.919,0,0,0,.251,1.087A.816.816,0,0,0,27.644,186.818Z"/><path class="cls-3" d="M33.582,187.887a2.532,2.532,0,0,1-1.854-.655,2.475,2.475,0,0,1-.668-1.855,2.726,2.726,0,0,1,.617-1.909,2.2,2.2,0,0,1,1.707-.675,2.163,2.163,0,0,1,1.622.594,2.242,2.242,0,0,1,.58,1.638v.651H32.417a1.29,1.29,0,0,0,.339.892,1.191,1.191,0,0,0,.888.321,3.72,3.72,0,0,0,.839-.092,4.144,4.144,0,0,0,.826-.295v1.037a3.107,3.107,0,0,1-.751.262A4.75,4.75,0,0,1,33.582,187.887Zm-.189-4.14a.848.848,0,0,0-.668.271,1.25,1.25,0,0,0-.277.766h1.881a1.114,1.114,0,0,0-.259-.766A.876.876,0,0,0,33.393,183.747Z"/><circle class="cls-1" cx="22" cy="184.355" r="19.5"/><line class="cls-1" x1="185.771" y1="184.355" x2="227.772" y2="184.355"/><path class="cls-2" d="M183.575,203.855a19.5,19.5,0,1,0-19.5-19.5,19.5,19.5,0,0,0,19.5,19.5"/><path class="cls-3" d="M173.121,186.015a1.66,1.66,0,0,1-.627,1.371,2.718,2.718,0,0,1-1.742.5,4.086,4.086,0,0,1-1.819-.387v-1.266a7.4,7.4,0,0,0,1.1.409,3.217,3.217,0,0,0,.824.119,1.167,1.167,0,0,0,.688-.172.583.583,0,0,0,.24-.51.562.562,0,0,0-.106-.336,1.169,1.169,0,0,0-.31-.283,8.173,8.173,0,0,0-.832-.436,3.9,3.9,0,0,1-.884-.531,1.983,1.983,0,0,1-.47-.594,1.687,1.687,0,0,1-.176-.791,1.66,1.66,0,0,1,.578-1.339,2.4,2.4,0,0,1,1.6-.489,3.783,3.783,0,0,1,.956.119,6.671,6.671,0,0,1,.951.334l-.44,1.059a6.378,6.378,0,0,0-.85-.294,2.721,2.721,0,0,0-.661-.083.879.879,0,0,0-.594.18.6.6,0,0,0-.206.47.584.584,0,0,0,.083.314.917.917,0,0,0,.266.26,8.483,8.483,0,0,0,.864.45,3.451,3.451,0,0,1,1.235.863A1.692,1.692,0,0,1,173.121,186.015Z"/><path class="cls-3" d="M176.448,187.887a2.532,2.532,0,0,1-1.854-.655,2.475,2.475,0,0,1-.668-1.855,2.726,2.726,0,0,1,.617-1.909,2.2,2.2,0,0,1,1.707-.675,2.163,2.163,0,0,1,1.622.594,2.242,2.242,0,0,1,.58,1.638v.651h-3.168a1.285,1.285,0,0,0,.338.892,1.191,1.191,0,0,0,.888.321,3.713,3.713,0,0,0,.839-.092,4.144,4.144,0,0,0,.826-.295v1.037a3.107,3.107,0,0,1-.751.262A4.75,4.75,0,0,1,176.448,187.887Zm-.189-4.14a.848.848,0,0,0-.668.271,1.25,1.25,0,0,0-.277.766H177.2a1.114,1.114,0,0,0-.259-.766A.876.876,0,0,0,176.259,183.747Z"/><path class="cls-3" d="M182.329,182.793a2.184,2.184,0,0,1,.453.04l-.1,1.257a1.557,1.557,0,0,0-.4-.044,1.425,1.425,0,0,0-1,.329,1.193,1.193,0,0,0-.358.924v2.5h-1.34v-4.913H180.6l.2.826h.066a1.853,1.853,0,0,1,.617-.666A1.525,1.525,0,0,1,182.329,182.793Z"/><path class="cls-3" d="M184.879,187.8l-1.872-4.913h1.4l.949,2.8a5.061,5.061,0,0,1,.2,1h.026a4.394,4.394,0,0,1,.2-1l.945-2.8h1.4l-1.872,4.913Z"/><path class="cls-3" d="M191.1,187.887a2.532,2.532,0,0,1-1.854-.655,2.475,2.475,0,0,1-.668-1.855,2.726,2.726,0,0,1,.617-1.909,2.2,2.2,0,0,1,1.707-.675,2.163,2.163,0,0,1,1.622.594,2.242,2.242,0,0,1,.58,1.638v.651h-3.168a1.285,1.285,0,0,0,.338.892,1.191,1.191,0,0,0,.888.321A3.713,3.713,0,0,0,192,186.8a4.144,4.144,0,0,0,.826-.295v1.037a3.107,3.107,0,0,1-.751.262A4.75,4.75,0,0,1,191.1,187.887Zm-.189-4.14a.848.848,0,0,0-.668.271,1.25,1.25,0,0,0-.277.766h1.881a1.114,1.114,0,0,0-.259-.766A.876.876,0,0,0,190.909,183.747Z"/><path class="cls-3" d="M196.979,182.793a2.184,2.184,0,0,1,.453.04l-.1,1.257a1.557,1.557,0,0,0-.4-.044,1.425,1.425,0,0,0-1,.329,1.193,1.193,0,0,0-.358.924v2.5h-1.34v-4.913h1.015l.2.826h.066a1.853,1.853,0,0,1,.617-.666A1.525,1.525,0,0,1,196.979,182.793Z"/><circle class="cls-1" cx="183.575" cy="184.355" r="19.5"/><line class="cls-1" x1="365.688" y1="184.355" x2="407.689" y2="184.355"/><path class="cls-2" d="M363.493,203.855a19.5,19.5,0,1,0-19.5-19.5,19.5,19.5,0,0,0,19.5,19.5"/><path class="cls-3" d="M354.469,187.8h-1.547l-1.683-2.707-.575.413V187.8H349.3v-6.425h1.363v2.94l.536-.755,1.74-2.185h1.512l-2.242,2.843Z"/><path class="cls-3" d="M358.689,187.8l-.18-.629h-.071a1.42,1.42,0,0,1-.61.53,2.094,2.094,0,0,1-.9.187,1.716,1.716,0,0,1-1.305-.464,1.864,1.864,0,0,1-.44-1.333v-3.2h1.34v2.87a1.377,1.377,0,0,0,.189.8.688.688,0,0,0,.6.265.906.906,0,0,0,.813-.375,2.331,2.331,0,0,0,.251-1.246v-2.311h1.34V187.8Z"/><path class="cls-3" d="M365.694,187.8h-1.34V184.93a1.378,1.378,0,0,0-.189-.8.687.687,0,0,0-.6-.267.906.906,0,0,0-.813.376,2.333,2.333,0,0,0-.25,1.246V187.8h-1.341v-4.913h1.024l.18.628h.075a1.415,1.415,0,0,1,.618-.538,2.091,2.091,0,0,1,.894-.183,1.716,1.716,0,0,1,1.3.464,1.862,1.862,0,0,1,.444,1.339Z"/><path class="cls-3" d="M368.666,187.887a1.6,1.6,0,0,1-1.36-.672,3.773,3.773,0,0,1,.008-3.747,1.638,1.638,0,0,1,1.387-.675,1.6,1.6,0,0,1,1.415.721h.044a5.514,5.514,0,0,1-.1-.98v-1.573H371.4V187.8h-1.029l-.259-.637h-.057A1.535,1.535,0,0,1,368.666,187.887Zm.47-1.069a.906.906,0,0,0,.754-.3,1.739,1.739,0,0,0,.261-1.015v-.146a2,2,0,0,0-.244-1.132.9.9,0,0,0-.793-.344.785.785,0,0,0-.7.381,2.02,2.02,0,0,0-.249,1.1,1.919,1.919,0,0,0,.251,1.087A.817.817,0,0,0,369.136,186.818Z"/><path class="cls-3" d="M375.074,187.887a2.532,2.532,0,0,1-1.854-.655,2.475,2.475,0,0,1-.668-1.855,2.726,2.726,0,0,1,.617-1.909,2.2,2.2,0,0,1,1.707-.675,2.163,2.163,0,0,1,1.622.594,2.242,2.242,0,0,1,.58,1.638v.651H373.91a1.285,1.285,0,0,0,.338.892,1.191,1.191,0,0,0,.888.321,3.713,3.713,0,0,0,.839-.092,4.144,4.144,0,0,0,.826-.295v1.037a3.107,3.107,0,0,1-.751.262A4.75,4.75,0,0,1,375.074,187.887Zm-.189-4.14a.848.848,0,0,0-.668.271,1.25,1.25,0,0,0-.277.766h1.881a1.114,1.114,0,0,0-.259-.766A.876.876,0,0,0,374.885,183.747Z"/><circle class="cls-1" cx="363.493" cy="184.355" r="19.5"/><line class="cls-1" x1="24.196" y1="232.355" x2="66.197" y2="232.355"/><path class="cls-2" d="M22,251.855a19.5,19.5,0,1,0-19.5-19.5,19.5,19.5,0,0,0,19.5,19.5"/><path class="cls-3" d="M12.977,235.8H11.43l-1.683-2.707-.576.413V235.8H7.809v-6.425H9.171v2.94l.537-.755,1.74-2.185h1.511l-2.241,2.843Z"/><path class="cls-3" d="M17.2,235.8l-.18-.629h-.071a1.417,1.417,0,0,1-.611.53,2.09,2.09,0,0,1-.9.187,1.717,1.717,0,0,1-1.306-.464,1.863,1.863,0,0,1-.439-1.333v-3.2h1.34v2.87a1.377,1.377,0,0,0,.189.8.688.688,0,0,0,.6.265.906.906,0,0,0,.813-.375,2.331,2.331,0,0,0,.251-1.246v-2.311h1.34V235.8Z"/><path class="cls-3" d="M24.2,235.8h-1.34V232.93a1.378,1.378,0,0,0-.189-.8.687.687,0,0,0-.6-.267.906.906,0,0,0-.813.376,2.331,2.331,0,0,0-.251,1.246V235.8h-1.34v-4.913h1.024l.18.628h.075a1.418,1.418,0,0,1,.617-.538,2.1,2.1,0,0,1,.895-.183,1.717,1.717,0,0,1,1.3.464A1.862,1.862,0,0,1,24.2,232.6Z"/><path class="cls-3" d="M27.174,235.887a1.6,1.6,0,0,1-1.361-.672,3.77,3.77,0,0,1,.009-3.747,1.638,1.638,0,0,1,1.387-.675,1.6,1.6,0,0,1,1.415.721h.044a5.514,5.514,0,0,1-.1-.98v-1.573h1.345V235.8H28.883l-.259-.637h-.057A1.535,1.535,0,0,1,27.174,235.887Zm.47-1.069a.9.9,0,0,0,.753-.3,1.731,1.731,0,0,0,.262-1.015v-.146a2,2,0,0,0-.244-1.132.9.9,0,0,0-.793-.344.785.785,0,0,0-.7.381,2.02,2.02,0,0,0-.249,1.1,1.919,1.919,0,0,0,.251,1.087A.816.816,0,0,0,27.644,234.818Z"/><path class="cls-3" d="M33.582,235.887a2.532,2.532,0,0,1-1.854-.655,2.475,2.475,0,0,1-.668-1.855,2.726,2.726,0,0,1,.617-1.909,2.2,2.2,0,0,1,1.707-.675,2.163,2.163,0,0,1,1.622.594,2.242,2.242,0,0,1,.58,1.638v.651H32.417a1.29,1.29,0,0,0,.339.892,1.191,1.191,0,0,0,.888.321,3.72,3.72,0,0,0,.839-.092,4.144,4.144,0,0,0,.826-.295v1.037a3.107,3.107,0,0,1-.751.262A4.75,4.75,0,0,1,33.582,235.887Zm-.189-4.14a.848.848,0,0,0-.668.271,1.25,1.25,0,0,0-.277.766h1.881a1.114,1.114,0,0,0-.259-.766A.876.876,0,0,0,33.393,231.747Z"/><circle class="cls-1" cx="22" cy="232.355" r="19.5"/><line class="cls-1" x1="185.771" y1="232.355" x2="227.772" y2="232.355"/><path class="cls-2" d="M183.575,251.855a19.5,19.5,0,1,0-19.5-19.5,19.5,19.5,0,0,0,19.5,19.5"/><path class="cls-3" d="M173.121,234.015a1.66,1.66,0,0,1-.627,1.371,2.718,2.718,0,0,1-1.742.5,4.086,4.086,0,0,1-1.819-.387v-1.266a7.4,7.4,0,0,0,1.1.409,3.217,3.217,0,0,0,.824.119,1.167,1.167,0,0,0,.688-.172.583.583,0,0,0,.24-.51.562.562,0,0,0-.106-.336,1.169,1.169,0,0,0-.31-.283,8.173,8.173,0,0,0-.832-.436,3.9,3.9,0,0,1-.884-.531,1.983,1.983,0,0,1-.47-.594,1.687,1.687,0,0,1-.176-.791,1.66,1.66,0,0,1,.578-1.339,2.4,2.4,0,0,1,1.6-.489,3.783,3.783,0,0,1,.956.119,6.671,6.671,0,0,1,.951.334l-.44,1.059a6.378,6.378,0,0,0-.85-.294,2.721,2.721,0,0,0-.661-.083.879.879,0,0,0-.594.18.6.6,0,0,0-.206.47.584.584,0,0,0,.083.314.917.917,0,0,0,.266.26,8.483,8.483,0,0,0,.864.45,3.451,3.451,0,0,1,1.235.863A1.692,1.692,0,0,1,173.121,234.015Z"/><path class="cls-3" d="M176.448,235.887a2.532,2.532,0,0,1-1.854-.655,2.475,2.475,0,0,1-.668-1.855,2.726,2.726,0,0,1,.617-1.909,2.2,2.2,0,0,1,1.707-.675,2.163,2.163,0,0,1,1.622.594,2.242,2.242,0,0,1,.58,1.638v.651h-3.168a1.285,1.285,0,0,0,.338.892,1.191,1.191,0,0,0,.888.321,3.713,3.713,0,0,0,.839-.092,4.144,4.144,0,0,0,.826-.295v1.037a3.107,3.107,0,0,1-.751.262A4.75,4.75,0,0,1,176.448,235.887Zm-.189-4.14a.848.848,0,0,0-.668.271,1.25,1.25,0,0,0-.277.766H177.2a1.114,1.114,0,0,0-.259-.766A.876.876,0,0,0,176.259,231.747Z"/><path class="cls-3" d="M182.329,230.793a2.184,2.184,0,0,1,.453.04l-.1,1.257a1.557,1.557,0,0,0-.4-.044,1.425,1.425,0,0,0-1,.329,1.193,1.193,0,0,0-.358.924v2.5h-1.34v-4.913H180.6l.2.826h.066a1.853,1.853,0,0,1,.617-.666A1.525,1.525,0,0,1,182.329,230.793Z"/><path class="cls-3" d="M184.879,235.8l-1.872-4.913h1.4l.949,2.8a5.061,5.061,0,0,1,.2,1h.026a4.394,4.394,0,0,1,.2-1l.945-2.8h1.4l-1.872,4.913Z"/><path class="cls-3" d="M191.1,235.887a2.532,2.532,0,0,1-1.854-.655,2.475,2.475,0,0,1-.668-1.855,2.726,2.726,0,0,1,.617-1.909,2.2,2.2,0,0,1,1.707-.675,2.163,2.163,0,0,1,1.622.594,2.242,2.242,0,0,1,.58,1.638v.651h-3.168a1.285,1.285,0,0,0,.338.892,1.191,1.191,0,0,0,.888.321A3.713,3.713,0,0,0,192,234.8a4.144,4.144,0,0,0,.826-.295v1.037a3.107,3.107,0,0,1-.751.262A4.75,4.75,0,0,1,191.1,235.887Zm-.189-4.14a.848.848,0,0,0-.668.271,1.25,1.25,0,0,0-.277.766h1.881a1.114,1.114,0,0,0-.259-.766A.876.876,0,0,0,190.909,231.747Z"/><path class="cls-3" d="M196.979,230.793a2.184,2.184,0,0,1,.453.04l-.1,1.257a1.557,1.557,0,0,0-.4-.044,1.425,1.425,0,0,0-1,.329,1.193,1.193,0,0,0-.358.924v2.5h-1.34v-4.913h1.015l.2.826h.066a1.853,1.853,0,0,1,.617-.666A1.525,1.525,0,0,1,196.979,230.793Z"/><circle class="cls-1" cx="183.575" cy="232.355" r="19.5"/><line class="cls-1" x1="365.688" y1="232.355" x2="407.689" y2="232.355"/><path class="cls-2" d="M363.493,251.855a19.5,19.5,0,1,0-19.5-19.5,19.5,19.5,0,0,0,19.5,19.5"/><path class="cls-3" d="M353.038,234.015a1.659,1.659,0,0,1-.626,1.371,2.719,2.719,0,0,1-1.743.5,4.089,4.089,0,0,1-1.819-.387v-1.266a7.407,7.407,0,0,0,1.1.409,3.217,3.217,0,0,0,.824.119,1.162,1.162,0,0,0,.687-.172.583.583,0,0,0,.24-.51.568.568,0,0,0-.105-.336,1.2,1.2,0,0,0-.31-.283,8.225,8.225,0,0,0-.833-.436,3.892,3.892,0,0,1-.883-.531,1.983,1.983,0,0,1-.47-.594,1.85,1.85,0,0,1,.4-2.13,2.4,2.4,0,0,1,1.6-.489,3.783,3.783,0,0,1,.956.119,6.628,6.628,0,0,1,.951.334l-.439,1.059a6.384,6.384,0,0,0-.851-.294,2.708,2.708,0,0,0-.661-.083.876.876,0,0,0-.593.18.594.594,0,0,0-.207.47.576.576,0,0,0,.084.314.917.917,0,0,0,.266.26,8.311,8.311,0,0,0,.863.45,3.442,3.442,0,0,1,1.235.863A1.686,1.686,0,0,1,353.038,234.015Z"/><path class="cls-3" d="M356.366,235.887a2.536,2.536,0,0,1-1.855-.655,2.479,2.479,0,0,1-.668-1.855,2.731,2.731,0,0,1,.617-1.909,2.2,2.2,0,0,1,1.708-.675,2.164,2.164,0,0,1,1.622.594,2.246,2.246,0,0,1,.58,1.638v.651H355.2a1.29,1.29,0,0,0,.339.892,1.187,1.187,0,0,0,.887.321,3.722,3.722,0,0,0,.84-.092,4.166,4.166,0,0,0,.826-.295v1.037a3.115,3.115,0,0,1-.752.262A4.733,4.733,0,0,1,356.366,235.887Zm-.189-4.14a.848.848,0,0,0-.668.271,1.244,1.244,0,0,0-.277.766h1.881a1.114,1.114,0,0,0-.259-.766A.876.876,0,0,0,356.177,231.747Z"/><path class="cls-3" d="M362.247,230.793a2.18,2.18,0,0,1,.452.04l-.1,1.257a1.544,1.544,0,0,0-.4-.044,1.423,1.423,0,0,0-1,.329,1.193,1.193,0,0,0-.358.924v2.5H359.5v-4.913h1.016l.2.826h.066a1.856,1.856,0,0,1,.618-.666A1.525,1.525,0,0,1,362.247,230.793Z"/><path class="cls-3" d="M364.8,235.8l-1.872-4.913h1.4l.949,2.8a4.922,4.922,0,0,1,.2,1h.027a4.332,4.332,0,0,1,.2-1l.945-2.8h1.4l-1.872,4.913Z"/><path class="cls-3" d="M371.016,235.887a2.535,2.535,0,0,1-1.855-.655,2.479,2.479,0,0,1-.668-1.855,2.731,2.731,0,0,1,.617-1.909,2.2,2.2,0,0,1,1.708-.675,2.16,2.16,0,0,1,1.621.594,2.242,2.242,0,0,1,.581,1.638v.651h-3.169a1.294,1.294,0,0,0,.338.892,1.191,1.191,0,0,0,.888.321,3.722,3.722,0,0,0,.84-.092,4.166,4.166,0,0,0,.826-.295v1.037a3.115,3.115,0,0,1-.752.262A4.74,4.74,0,0,1,371.016,235.887Zm-.189-4.14a.847.847,0,0,0-.668.271,1.244,1.244,0,0,0-.277.766h1.881a1.114,1.114,0,0,0-.26-.766A.874.874,0,0,0,370.827,231.747Z"/><path class="cls-3" d="M376.9,230.793a2.184,2.184,0,0,1,.453.04l-.1,1.257a1.544,1.544,0,0,0-.395-.044,1.423,1.423,0,0,0-1,.329,1.193,1.193,0,0,0-.358.924v2.5h-1.341v-4.913h1.015l.2.826h.066a1.847,1.847,0,0,1,.618-.666A1.524,1.524,0,0,1,376.9,230.793Z"/><circle class="cls-1" cx="363.493" cy="232.355" r="19.5"/><polyline class="cls-1" points="24.196 280.355 66.197 280.355 66.197 94.426"/><path class="cls-2" d="M22,299.855a19.5,19.5,0,1,0-19.5-19.5,19.5,19.5,0,0,0,19.5,19.5"/><path class="cls-3" d="M11.546,282.015a1.66,1.66,0,0,1-.627,1.371,2.718,2.718,0,0,1-1.742.5,4.089,4.089,0,0,1-1.819-.387v-1.266a7.442,7.442,0,0,0,1.1.409,3.231,3.231,0,0,0,.825.119,1.162,1.162,0,0,0,.687-.172.583.583,0,0,0,.24-.51.562.562,0,0,0-.106-.336,1.169,1.169,0,0,0-.31-.283,8.06,8.06,0,0,0-.832-.436,3.869,3.869,0,0,1-.883-.531,1.987,1.987,0,0,1-.471-.594,1.687,1.687,0,0,1-.175-.791,1.659,1.659,0,0,1,.577-1.339,2.4,2.4,0,0,1,1.6-.489,3.783,3.783,0,0,1,.956.119,6.628,6.628,0,0,1,.951.334l-.439,1.059a6.384,6.384,0,0,0-.851-.294,2.715,2.715,0,0,0-.661-.083.874.874,0,0,0-.593.18.594.594,0,0,0-.207.47.576.576,0,0,0,.084.314.9.9,0,0,0,.266.26,8.311,8.311,0,0,0,.863.45,3.442,3.442,0,0,1,1.235.863A1.686,1.686,0,0,1,11.546,282.015Z"/><path class="cls-3" d="M14.874,283.887a2.535,2.535,0,0,1-1.855-.655,2.479,2.479,0,0,1-.668-1.855,2.731,2.731,0,0,1,.617-1.909,2.2,2.2,0,0,1,1.708-.675,2.16,2.16,0,0,1,1.621.594,2.242,2.242,0,0,1,.58,1.638v.651H13.709a1.289,1.289,0,0,0,.338.892,1.191,1.191,0,0,0,.888.321,3.707,3.707,0,0,0,.839-.092,4.174,4.174,0,0,0,.827-.3v1.037a3.115,3.115,0,0,1-.752.262A4.74,4.74,0,0,1,14.874,283.887Zm-.189-4.14a.847.847,0,0,0-.668.271,1.238,1.238,0,0,0-.277.766h1.881a1.114,1.114,0,0,0-.26-.766A.874.874,0,0,0,14.685,279.747Z"/><path class="cls-3" d="M20.754,278.793a2.184,2.184,0,0,1,.453.04l-.1,1.257a1.546,1.546,0,0,0-.4-.044,1.427,1.427,0,0,0-1,.329,1.2,1.2,0,0,0-.357.924v2.5H18.012v-4.913h1.015l.2.826h.066a1.847,1.847,0,0,1,.618-.666A1.522,1.522,0,0,1,20.754,278.793Z"/><path class="cls-3" d="M23.3,283.8l-1.872-4.913h1.4l.949,2.8a4.922,4.922,0,0,1,.2,1h.026a4.394,4.394,0,0,1,.2-1l.945-2.8h1.4L24.68,283.8Z"/><path class="cls-3" d="M29.523,283.887a2.532,2.532,0,0,1-1.854-.655A2.479,2.479,0,0,1,27,281.377a2.731,2.731,0,0,1,.617-1.909,2.2,2.2,0,0,1,1.708-.675,2.16,2.16,0,0,1,1.621.594,2.242,2.242,0,0,1,.58,1.638v.651H28.359a1.289,1.289,0,0,0,.338.892,1.191,1.191,0,0,0,.888.321,3.707,3.707,0,0,0,.839-.092,4.144,4.144,0,0,0,.826-.3v1.037a3.093,3.093,0,0,1-.751.262A4.75,4.75,0,0,1,29.523,283.887Zm-.189-4.14a.846.846,0,0,0-.667.271,1.238,1.238,0,0,0-.277.766h1.881a1.114,1.114,0,0,0-.26-.766A.875.875,0,0,0,29.334,279.747Z"/><path class="cls-3" d="M35.4,278.793a2.184,2.184,0,0,1,.453.04l-.1,1.257a1.552,1.552,0,0,0-.4-.044,1.427,1.427,0,0,0-1,.329A1.2,1.2,0,0,0,34,281.3v2.5h-1.34v-4.913h1.015l.2.826h.066a1.847,1.847,0,0,1,.618-.666A1.522,1.522,0,0,1,35.4,278.793Z"/><circle class="cls-1" cx="22" cy="280.355" r="19.5"/><polyline class="cls-1" points="185.771 280.355 227.772 280.355 227.772 94.426"/><path class="cls-2" d="M183.575,299.855a19.5,19.5,0,1,0-19.5-19.5,19.5,19.5,0,0,0,19.5,19.5"/><path class="cls-3" d="M173.121,282.015a1.66,1.66,0,0,1-.627,1.371,2.718,2.718,0,0,1-1.742.5,4.086,4.086,0,0,1-1.819-.387v-1.266a7.4,7.4,0,0,0,1.1.409,3.217,3.217,0,0,0,.824.119,1.167,1.167,0,0,0,.688-.172.583.583,0,0,0,.24-.51.562.562,0,0,0-.106-.336,1.169,1.169,0,0,0-.31-.283,8.173,8.173,0,0,0-.832-.436,3.9,3.9,0,0,1-.884-.531,1.983,1.983,0,0,1-.47-.594,1.687,1.687,0,0,1-.176-.791,1.66,1.66,0,0,1,.578-1.339,2.4,2.4,0,0,1,1.6-.489,3.783,3.783,0,0,1,.956.119,6.671,6.671,0,0,1,.951.334l-.44,1.059a6.378,6.378,0,0,0-.85-.294,2.721,2.721,0,0,0-.661-.083.879.879,0,0,0-.594.18.6.6,0,0,0-.206.47.584.584,0,0,0,.083.314.917.917,0,0,0,.266.26,8.483,8.483,0,0,0,.864.45,3.451,3.451,0,0,1,1.235.863A1.692,1.692,0,0,1,173.121,282.015Z"/><path class="cls-3" d="M176.448,283.887a2.532,2.532,0,0,1-1.854-.655,2.475,2.475,0,0,1-.668-1.855,2.726,2.726,0,0,1,.617-1.909,2.2,2.2,0,0,1,1.707-.675,2.163,2.163,0,0,1,1.622.594,2.242,2.242,0,0,1,.58,1.638v.651h-3.168a1.285,1.285,0,0,0,.338.892,1.191,1.191,0,0,0,.888.321,3.713,3.713,0,0,0,.839-.092,4.144,4.144,0,0,0,.826-.3v1.037a3.107,3.107,0,0,1-.751.262A4.75,4.75,0,0,1,176.448,283.887Zm-.189-4.14a.848.848,0,0,0-.668.271,1.25,1.25,0,0,0-.277.766H177.2a1.114,1.114,0,0,0-.259-.766A.876.876,0,0,0,176.259,279.747Z"/><path class="cls-3" d="M182.329,278.793a2.184,2.184,0,0,1,.453.04l-.1,1.257a1.557,1.557,0,0,0-.4-.044,1.425,1.425,0,0,0-1,.329,1.193,1.193,0,0,0-.358.924v2.5h-1.34v-4.913H180.6l.2.826h.066a1.853,1.853,0,0,1,.617-.666A1.525,1.525,0,0,1,182.329,278.793Z"/><path class="cls-3" d="M184.879,283.8l-1.872-4.913h1.4l.949,2.8a5.061,5.061,0,0,1,.2,1h.026a4.394,4.394,0,0,1,.2-1l.945-2.8h1.4l-1.872,4.913Z"/><path class="cls-3" d="M191.1,283.887a2.532,2.532,0,0,1-1.854-.655,2.475,2.475,0,0,1-.668-1.855,2.726,2.726,0,0,1,.617-1.909,2.2,2.2,0,0,1,1.707-.675,2.163,2.163,0,0,1,1.622.594,2.242,2.242,0,0,1,.58,1.638v.651h-3.168a1.285,1.285,0,0,0,.338.892,1.191,1.191,0,0,0,.888.321A3.713,3.713,0,0,0,192,282.8a4.144,4.144,0,0,0,.826-.3v1.037a3.107,3.107,0,0,1-.751.262A4.75,4.75,0,0,1,191.1,283.887Zm-.189-4.14a.848.848,0,0,0-.668.271,1.25,1.25,0,0,0-.277.766h1.881a1.114,1.114,0,0,0-.259-.766A.876.876,0,0,0,190.909,279.747Z"/><path class="cls-3" d="M196.979,278.793a2.184,2.184,0,0,1,.453.04l-.1,1.257a1.557,1.557,0,0,0-.4-.044,1.425,1.425,0,0,0-1,.329,1.193,1.193,0,0,0-.358.924v2.5h-1.34v-4.913h1.015l.2.826h.066a1.853,1.853,0,0,1,.617-.666A1.525,1.525,0,0,1,196.979,278.793Z"/><circle class="cls-1" cx="183.575" cy="280.355" r="19.5"/><polyline class="cls-1" points="365.688 280.355 407.689 280.355 407.689 94.426"/><path class="cls-2" d="M363.493,299.855a19.5,19.5,0,1,0-19.5-19.5,19.5,19.5,0,0,0,19.5,19.5"/><path class="cls-3" d="M353.038,282.015a1.659,1.659,0,0,1-.626,1.371,2.719,2.719,0,0,1-1.743.5,4.089,4.089,0,0,1-1.819-.387v-1.266a7.407,7.407,0,0,0,1.1.409,3.217,3.217,0,0,0,.824.119,1.162,1.162,0,0,0,.687-.172.583.583,0,0,0,.24-.51.568.568,0,0,0-.105-.336,1.2,1.2,0,0,0-.31-.283,8.225,8.225,0,0,0-.833-.436,3.892,3.892,0,0,1-.883-.531,1.983,1.983,0,0,1-.47-.594,1.85,1.85,0,0,1,.4-2.13,2.4,2.4,0,0,1,1.6-.489,3.783,3.783,0,0,1,.956.119,6.628,6.628,0,0,1,.951.334l-.439,1.059a6.384,6.384,0,0,0-.851-.294,2.708,2.708,0,0,0-.661-.083.876.876,0,0,0-.593.18.594.594,0,0,0-.207.47.576.576,0,0,0,.084.314.917.917,0,0,0,.266.26,8.311,8.311,0,0,0,.863.45,3.442,3.442,0,0,1,1.235.863A1.686,1.686,0,0,1,353.038,282.015Z"/><path class="cls-3" d="M356.366,283.887a2.536,2.536,0,0,1-1.855-.655,2.479,2.479,0,0,1-.668-1.855,2.731,2.731,0,0,1,.617-1.909,2.2,2.2,0,0,1,1.708-.675,2.164,2.164,0,0,1,1.622.594,2.246,2.246,0,0,1,.58,1.638v.651H355.2a1.29,1.29,0,0,0,.339.892,1.187,1.187,0,0,0,.887.321,3.722,3.722,0,0,0,.84-.092,4.166,4.166,0,0,0,.826-.3v1.037a3.115,3.115,0,0,1-.752.262A4.733,4.733,0,0,1,356.366,283.887Zm-.189-4.14a.848.848,0,0,0-.668.271,1.244,1.244,0,0,0-.277.766h1.881a1.114,1.114,0,0,0-.259-.766A.876.876,0,0,0,356.177,279.747Z"/><path class="cls-3" d="M362.247,278.793a2.18,2.18,0,0,1,.452.04l-.1,1.257a1.544,1.544,0,0,0-.4-.044,1.423,1.423,0,0,0-1,.329,1.193,1.193,0,0,0-.358.924v2.5H359.5v-4.913h1.016l.2.826h.066a1.856,1.856,0,0,1,.618-.666A1.525,1.525,0,0,1,362.247,278.793Z"/><path class="cls-3" d="M364.8,283.8l-1.872-4.913h1.4l.949,2.8a4.922,4.922,0,0,1,.2,1h.027a4.332,4.332,0,0,1,.2-1l.945-2.8h1.4l-1.872,4.913Z"/><path class="cls-3" d="M371.016,283.887a2.535,2.535,0,0,1-1.855-.655,2.479,2.479,0,0,1-.668-1.855,2.731,2.731,0,0,1,.617-1.909,2.2,2.2,0,0,1,1.708-.675,2.16,2.16,0,0,1,1.621.594,2.242,2.242,0,0,1,.581,1.638v.651h-3.169a1.294,1.294,0,0,0,.338.892,1.191,1.191,0,0,0,.888.321,3.722,3.722,0,0,0,.84-.092,4.166,4.166,0,0,0,.826-.3v1.037a3.115,3.115,0,0,1-.752.262A4.74,4.74,0,0,1,371.016,283.887Zm-.189-4.14a.847.847,0,0,0-.668.271,1.244,1.244,0,0,0-.277.766h1.881a1.114,1.114,0,0,0-.26-.766A.874.874,0,0,0,370.827,279.747Z"/><path class="cls-3" d="M376.9,278.793a2.184,2.184,0,0,1,.453.04l-.1,1.257a1.544,1.544,0,0,0-.395-.044,1.423,1.423,0,0,0-1,.329,1.193,1.193,0,0,0-.358.924v2.5h-1.341v-4.913h1.015l.2.826h.066a1.847,1.847,0,0,1,.618-.666A1.524,1.524,0,0,1,376.9,278.793Z"/><circle class="cls-1" cx="363.493" cy="280.355" r="19.5"/><rect class="cls-2" x="2.5" y="84.855" width="82.039" height="23"/><path class="cls-3" d="M37.489,99.8V93.374h1.363V99.8Z"/><path class="cls-3" d="M44.3,98.015a1.659,1.659,0,0,1-.626,1.371,2.718,2.718,0,0,1-1.742.5,4.093,4.093,0,0,1-1.82-.387V98.234a7.449,7.449,0,0,0,1.1.409,3.217,3.217,0,0,0,.824.119,1.167,1.167,0,0,0,.688-.172.585.585,0,0,0,.239-.51.568.568,0,0,0-.1-.336,1.169,1.169,0,0,0-.31-.283,8.225,8.225,0,0,0-.833-.436,3.892,3.892,0,0,1-.883-.531,1.983,1.983,0,0,1-.47-.594,1.687,1.687,0,0,1-.176-.791,1.657,1.657,0,0,1,.578-1.339,2.4,2.4,0,0,1,1.6-.489,3.777,3.777,0,0,1,.956.119,6.638,6.638,0,0,1,.952.334l-.44,1.059a6.427,6.427,0,0,0-.85-.294,2.722,2.722,0,0,0-.662-.083.878.878,0,0,0-.593.18.593.593,0,0,0-.206.47.575.575,0,0,0,.083.314.917.917,0,0,0,.266.26,8.255,8.255,0,0,0,.864.45,3.436,3.436,0,0,1,1.234.863A1.686,1.686,0,0,1,44.3,98.015Z"/><path class="cls-3" d="M49.945,95.378a1.965,1.965,0,0,1-.648,1.587,2.773,2.773,0,0,1-1.843.549h-.585V99.8H45.507V93.374h2.052a2.735,2.735,0,0,1,1.778.5A1.838,1.838,0,0,1,49.945,95.378ZM46.869,96.4h.448a1.5,1.5,0,0,0,.941-.248.87.87,0,0,0,.312-.723.894.894,0,0,0-.261-.707,1.224,1.224,0,0,0-.82-.229h-.62Z"/><rect class="cls-1" x="2.5" y="84.855" width="82.039" height="23"/><rect class="cls-2" x="164.075" y="84.855" width="82.039" height="23"/><path class="cls-3" d="M199.064,99.8V93.374h1.362V99.8Z"/><path class="cls-3" d="M205.872,98.015a1.659,1.659,0,0,1-.626,1.371,2.719,2.719,0,0,1-1.743.5,4.089,4.089,0,0,1-1.819-.387V98.234a7.407,7.407,0,0,0,1.1.409,3.217,3.217,0,0,0,.824.119,1.162,1.162,0,0,0,.687-.172.583.583,0,0,0,.24-.51.568.568,0,0,0-.1-.336,1.2,1.2,0,0,0-.31-.283,8.225,8.225,0,0,0-.833-.436,3.892,3.892,0,0,1-.883-.531,1.968,1.968,0,0,1-.47-.594,1.85,1.85,0,0,1,.4-2.13,2.4,2.4,0,0,1,1.6-.489,3.783,3.783,0,0,1,.956.119,6.628,6.628,0,0,1,.951.334l-.439,1.059a6.384,6.384,0,0,0-.851-.294,2.708,2.708,0,0,0-.661-.083.876.876,0,0,0-.593.18.594.594,0,0,0-.207.47.576.576,0,0,0,.084.314.9.9,0,0,0,.266.26,8.311,8.311,0,0,0,.863.45,3.442,3.442,0,0,1,1.235.863A1.686,1.686,0,0,1,205.872,98.015Z"/><path class="cls-3" d="M211.52,95.378a1.965,1.965,0,0,1-.648,1.587,2.776,2.776,0,0,1-1.844.549h-.584V99.8h-1.362V93.374h2.052a2.736,2.736,0,0,1,1.778.5A1.838,1.838,0,0,1,211.52,95.378ZM208.444,96.4h.448a1.5,1.5,0,0,0,.941-.248.87.87,0,0,0,.312-.723.891.891,0,0,0-.262-.707,1.222,1.222,0,0,0-.82-.229h-.619Z"/><rect class="cls-1" x="164.075" y="84.855" width="82.039" height="23"/><rect class="cls-2" x="343.992" y="84.855" width="82.039" height="23"/><path class="cls-3" d="M378.981,99.8V93.374h1.363V99.8Z"/><path class="cls-3" d="M385.79,98.015a1.66,1.66,0,0,1-.627,1.371,2.718,2.718,0,0,1-1.742.5A4.086,4.086,0,0,1,381.6,99.5V98.234a7.4,7.4,0,0,0,1.1.409,3.217,3.217,0,0,0,.824.119,1.167,1.167,0,0,0,.688-.172.583.583,0,0,0,.24-.51.569.569,0,0,0-.106-.336,1.169,1.169,0,0,0-.31-.283,8.173,8.173,0,0,0-.832-.436,3.9,3.9,0,0,1-.884-.531,1.983,1.983,0,0,1-.47-.594,1.687,1.687,0,0,1-.176-.791,1.66,1.66,0,0,1,.578-1.339,2.4,2.4,0,0,1,1.6-.489,3.783,3.783,0,0,1,.956.119,6.671,6.671,0,0,1,.951.334l-.44,1.059a6.378,6.378,0,0,0-.85-.294,2.721,2.721,0,0,0-.661-.083.879.879,0,0,0-.594.18.6.6,0,0,0-.206.47.584.584,0,0,0,.083.314.917.917,0,0,0,.266.26,8.483,8.483,0,0,0,.864.45,3.451,3.451,0,0,1,1.235.863A1.692,1.692,0,0,1,385.79,98.015Z"/><path class="cls-3" d="M391.438,95.378a1.966,1.966,0,0,1-.649,1.587,2.771,2.771,0,0,1-1.843.549h-.585V99.8H387V93.374h2.052a2.733,2.733,0,0,1,1.778.5A1.839,1.839,0,0,1,391.438,95.378ZM388.361,96.4h.449a1.5,1.5,0,0,0,.94-.248.87.87,0,0,0,.312-.723.891.891,0,0,0-.261-.707,1.224,1.224,0,0,0-.82-.229h-.62Z"/><rect class="cls-1" x="343.992" y="84.855" width="82.039" height="23"/><path class="cls-3" d="M82.31,184.165a2.461,2.461,0,0,1-.7,1.891,2.863,2.863,0,0,1-2.028.656H78.164v-5h1.569a2.647,2.647,0,0,1,1.9.645A2.382,2.382,0,0,1,82.31,184.165Zm-1.1.027q0-1.608-1.421-1.609h-.564v3.254h.454Q81.209,185.837,81.209,184.192Z"/><path class="cls-3" d="M86.3,185.324a1.3,1.3,0,0,1-.486,1.067,2.125,2.125,0,0,1-1.356.389,3.176,3.176,0,0,1-1.415-.3V185.5a5.8,5.8,0,0,0,.857.318,2.544,2.544,0,0,0,.64.092.916.916,0,0,0,.535-.133.456.456,0,0,0,.186-.4.434.434,0,0,0-.082-.262.911.911,0,0,0-.24-.22,6.175,6.175,0,0,0-.648-.338,3.137,3.137,0,0,1-.687-.414,1.561,1.561,0,0,1-.366-.461,1.323,1.323,0,0,1-.137-.616,1.292,1.292,0,0,1,.45-1.043,1.869,1.869,0,0,1,1.242-.378,2.948,2.948,0,0,1,.743.091,5.18,5.18,0,0,1,.74.26l-.341.824a5.1,5.1,0,0,0-.661-.229,2.159,2.159,0,0,0-.515-.066.679.679,0,0,0-.462.141.465.465,0,0,0-.16.365.446.446,0,0,0,.065.245.709.709,0,0,0,.206.2,6.576,6.576,0,0,0,.672.35,2.686,2.686,0,0,1,.961.672A1.311,1.311,0,0,1,86.3,185.324Z"/><path class="cls-3" d="M87.2,186.712v-5h1.06v4.122h2.027v.875Z"/><path class="cls-3" d="M116.764,141.273a1.525,1.525,0,0,1-.5,1.234,2.159,2.159,0,0,1-1.434.428h-.455v1.777h-1.059v-5h1.6a2.126,2.126,0,0,1,1.382.391A1.426,1.426,0,0,1,116.764,141.273Zm-2.393.793h.349a1.158,1.158,0,0,0,.731-.193.673.673,0,0,0,.243-.561.691.691,0,0,0-.2-.551.952.952,0,0,0-.637-.178h-.482Z"/><path class="cls-3" d="M119.354,144.78a1.973,1.973,0,0,1-1.442-.509,1.929,1.929,0,0,1-.519-1.442,2.119,2.119,0,0,1,.48-1.485,1.71,1.71,0,0,1,1.328-.525,1.685,1.685,0,0,1,1.261.461,1.747,1.747,0,0,1,.451,1.276v.506h-2.464a1,1,0,0,0,.263.693.927.927,0,0,0,.69.25,2.917,2.917,0,0,0,.653-.072,3.262,3.262,0,0,0,.643-.229v.807a2.468,2.468,0,0,1-.585.2A3.717,3.717,0,0,1,119.354,144.78Zm-.146-3.219a.661.661,0,0,0-.52.21.964.964,0,0,0-.215.6h1.463a.868.868,0,0,0-.2-.6A.683.683,0,0,0,119.208,141.561Z"/><path class="cls-3" d="M123.49,144.78a1.973,1.973,0,0,1-1.442-.509,1.93,1.93,0,0,1-.52-1.442,2.114,2.114,0,0,1,.481-1.485,1.707,1.707,0,0,1,1.327-.525,1.688,1.688,0,0,1,1.262.461,1.751,1.751,0,0,1,.451,1.276v.506h-2.465a1.006,1.006,0,0,0,.264.693.927.927,0,0,0,.69.25,2.917,2.917,0,0,0,.653-.072,3.255,3.255,0,0,0,.642-.229v.807a2.46,2.46,0,0,1-.584.2A3.717,3.717,0,0,1,123.49,144.78Zm-.147-3.219a.66.66,0,0,0-.519.21.965.965,0,0,0-.216.6h1.463a.863.863,0,0,0-.2-.6A.685.685,0,0,0,123.343,141.561Z"/><path class="cls-3" d="M128.029,140.819a1.645,1.645,0,0,1,.352.031l-.078.977a1.237,1.237,0,0,0-.308-.034,1.1,1.1,0,0,0-.777.257.924.924,0,0,0-.279.717v1.945H125.9v-3.821h.79l.154.642h.051a1.437,1.437,0,0,1,.48-.517A1.186,1.186,0,0,1,128.029,140.819Z"/><path class="cls-3" d="M129.031,139.9c0-.34.189-.509.567-.509s.568.169.568.509a.5.5,0,0,1-.143.377.594.594,0,0,1-.425.135C129.22,140.415,129.031,140.245,129.031,139.9Zm1.087,4.809h-1.043v-3.821h1.043Z"/><path class="cls-3" d="M134.739,144.712H133.7v-2.233a1.072,1.072,0,0,0-.147-.62.536.536,0,0,0-.468-.206.7.7,0,0,0-.632.292,1.812,1.812,0,0,0-.2.969v1.8h-1.043v-3.821h.8l.14.489h.058a1.094,1.094,0,0,1,.48-.419,1.63,1.63,0,0,1,.7-.142,1.335,1.335,0,0,1,1.012.361,1.446,1.446,0,0,1,.345,1.04Z"/><path class="cls-3" d="M139.138,140.891v.53l-.6.153a1.047,1.047,0,0,1,.164.574,1.159,1.159,0,0,1-.429.959,1.859,1.859,0,0,1-1.192.343l-.187-.01-.154-.017a.348.348,0,0,0-.161.273q0,.227.574.227h.65a1.486,1.486,0,0,1,.958.269.966.966,0,0,1,.33.793,1.176,1.176,0,0,1-.558,1.039,2.9,2.9,0,0,1-1.6.37,2.216,2.216,0,0,1-1.222-.279.882.882,0,0,1-.422-.781.813.813,0,0,1,.215-.577,1.223,1.223,0,0,1,.632-.332.7.7,0,0,1-.28-.224.549.549,0,0,1,.007-.694,1.436,1.436,0,0,1,.366-.285,1.027,1.027,0,0,1-.477-.417,1.265,1.265,0,0,1-.176-.677,1.193,1.193,0,0,1,.406-.967,1.76,1.76,0,0,1,1.163-.342,2.875,2.875,0,0,1,.381.029c.146.019.241.034.282.043Zm-2.95,4.361a.378.378,0,0,0,.207.339,1.138,1.138,0,0,0,.579.123,2.062,2.062,0,0,0,.879-.154.47.47,0,0,0,.317-.42.3.3,0,0,0-.188-.3,1.528,1.528,0,0,0-.581-.082h-.54a.819.819,0,0,0-.48.135A.414.414,0,0,0,136.188,145.252Zm.379-3.11a.782.782,0,0,0,.142.492.516.516,0,0,0,.433.181.5.5,0,0,0,.43-.181.794.794,0,0,0,.137-.492q0-.69-.567-.691T136.567,142.142Z"/><path class="cls-3" d="M291.294,129.275a1.529,1.529,0,0,1-.5,1.234,2.16,2.16,0,0,1-1.435.428H288.9v1.777h-1.06v-5h1.6a2.131,2.131,0,0,1,1.383.391A1.426,1.426,0,0,1,291.294,129.275Zm-2.392.793h.348a1.161,1.161,0,0,0,.732-.193.674.674,0,0,0,.243-.562.69.69,0,0,0-.2-.55.954.954,0,0,0-.637-.178H288.9Z"/><path class="cls-3" d="M293.885,132.782a1.97,1.97,0,0,1-1.442-.51,1.926,1.926,0,0,1-.52-1.441,2.114,2.114,0,0,1,.481-1.485,1.709,1.709,0,0,1,1.327-.525,1.688,1.688,0,0,1,1.262.461,1.751,1.751,0,0,1,.451,1.276v.5h-2.465a1.007,1.007,0,0,0,.264.694.927.927,0,0,0,.69.25,2.917,2.917,0,0,0,.653-.072,3.285,3.285,0,0,0,.643-.229v.807a2.484,2.484,0,0,1-.585.2A3.717,3.717,0,0,1,293.885,132.782Zm-.147-3.22a.663.663,0,0,0-.519.21.97.97,0,0,0-.216.6h1.463a.868.868,0,0,0-.2-.6A.688.688,0,0,0,293.738,129.562Z"/><path class="cls-3" d="M298.021,132.782a1.97,1.97,0,0,1-1.442-.51,1.922,1.922,0,0,1-.52-1.441,2.114,2.114,0,0,1,.481-1.485,1.706,1.706,0,0,1,1.327-.525,1.684,1.684,0,0,1,1.261.461,1.747,1.747,0,0,1,.452,1.276v.5h-2.465a1,1,0,0,0,.263.694.928.928,0,0,0,.691.25,2.917,2.917,0,0,0,.653-.072,3.255,3.255,0,0,0,.642-.229v.807a2.476,2.476,0,0,1-.584.2A3.73,3.73,0,0,1,298.021,132.782Zm-.147-3.22a.667.667,0,0,0-.52.21.976.976,0,0,0-.215.6H298.6a.868.868,0,0,0-.2-.6A.685.685,0,0,0,297.874,129.562Z"/><path class="cls-3" d="M302.56,128.821a1.645,1.645,0,0,1,.352.031l-.079.977a1.228,1.228,0,0,0-.307-.034,1.1,1.1,0,0,0-.777.257.92.92,0,0,0-.279.717v1.945h-1.043v-3.821h.79l.154.642h.051a1.437,1.437,0,0,1,.48-.517A1.186,1.186,0,0,1,302.56,128.821Z"/><path class="cls-3" d="M303.562,127.905c0-.34.188-.509.567-.509s.567.169.567.509a.5.5,0,0,1-.142.377.594.594,0,0,1-.425.135C303.75,128.417,303.562,128.247,303.562,127.905Zm1.086,4.809h-1.042v-3.821h1.042Z"/><path class="cls-3" d="M309.27,132.714h-1.043v-2.233a1.072,1.072,0,0,0-.147-.62.536.536,0,0,0-.468-.206.7.7,0,0,0-.633.292,1.823,1.823,0,0,0-.194.969v1.8h-1.043v-3.821h.8l.14.489h.058a1.094,1.094,0,0,1,.48-.419,1.63,1.63,0,0,1,.7-.142,1.333,1.333,0,0,1,1.011.361,1.446,1.446,0,0,1,.346,1.04Z"/><path class="cls-3" d="M313.668,128.893v.53l-.6.153a1.037,1.037,0,0,1,.164.574,1.161,1.161,0,0,1-.428.959,1.859,1.859,0,0,1-1.192.343l-.188-.01-.154-.017a.35.35,0,0,0-.16.273q0,.226.574.227h.649a1.487,1.487,0,0,1,.959.269.966.966,0,0,1,.33.793,1.175,1.175,0,0,1-.559,1.039,2.911,2.911,0,0,1-1.605.37,2.221,2.221,0,0,1-1.222-.279.884.884,0,0,1-.422-.781.812.812,0,0,1,.216-.577,1.219,1.219,0,0,1,.632-.332.694.694,0,0,1-.28-.224.549.549,0,0,1,.007-.694,1.447,1.447,0,0,1,.365-.285,1.036,1.036,0,0,1-.477-.417,1.273,1.273,0,0,1-.175-.677,1.193,1.193,0,0,1,.406-.967,1.758,1.758,0,0,1,1.162-.342,2.888,2.888,0,0,1,.382.029c.146.019.24.034.281.043Zm-2.949,4.361a.379.379,0,0,0,.207.339,1.133,1.133,0,0,0,.579.123,2.06,2.06,0,0,0,.878-.154.47.47,0,0,0,.318-.42.3.3,0,0,0-.188-.3,1.532,1.532,0,0,0-.581-.082h-.54a.825.825,0,0,0-.48.134A.416.416,0,0,0,310.719,133.254Zm.379-3.11a.782.782,0,0,0,.142.492.514.514,0,0,0,.432.181.5.5,0,0,0,.431-.181.8.8,0,0,0,.137-.492q0-.69-.568-.691T311.1,130.144Z"/><path class="cls-3" d="M242.688,185.324a1.3,1.3,0,0,1-.487,1.067,2.122,2.122,0,0,1-1.355.389,3.173,3.173,0,0,1-1.415-.3V185.5a5.789,5.789,0,0,0,.856.318,2.558,2.558,0,0,0,.641.092.921.921,0,0,0,.535-.133.456.456,0,0,0,.186-.4.434.434,0,0,0-.082-.262.916.916,0,0,0-.241-.22,5.967,5.967,0,0,0-.648-.338,3.186,3.186,0,0,1-.687-.414,1.577,1.577,0,0,1-.366-.461,1.322,1.322,0,0,1-.136-.616,1.294,1.294,0,0,1,.449-1.043,1.874,1.874,0,0,1,1.243-.378,2.96,2.96,0,0,1,.743.091,5.223,5.223,0,0,1,.74.26l-.342.824a5,5,0,0,0-.661-.229,2.153,2.153,0,0,0-.515-.066.678.678,0,0,0-.461.141.463.463,0,0,0-.161.365.455.455,0,0,0,.065.245.727.727,0,0,0,.207.2,6.576,6.576,0,0,0,.672.35,2.671,2.671,0,0,1,.96.672A1.306,1.306,0,0,1,242.688,185.324Z"/><path class="cls-3" d="M245.122,185.95a2.258,2.258,0,0,0,.656-.12v.776a2.345,2.345,0,0,1-.957.174,1.17,1.17,0,0,1-.911-.316,1.376,1.376,0,0,1-.285-.948v-1.843h-.5v-.441l.575-.348.3-.807h.667v.814h1.07v.782h-1.07v1.843a.4.4,0,0,0,.125.328A.5.5,0,0,0,245.122,185.95Z"/><path class="cls-3" d="M248.977,186.712l-.2-.52h-.027a1.547,1.547,0,0,1-.541.46,1.764,1.764,0,0,1-.727.128,1.17,1.17,0,0,1-.866-.314,1.208,1.208,0,0,1-.317-.9,1.008,1.008,0,0,1,.426-.9,2.456,2.456,0,0,1,1.283-.319l.663-.021v-.168a.519.519,0,0,0-.594-.58,2.722,2.722,0,0,0-1.077.276l-.345-.7a3.108,3.108,0,0,1,1.463-.345,1.826,1.826,0,0,1,1.179.335,1.239,1.239,0,0,1,.41,1.018v2.547Zm-.308-1.771-.4.014a1.294,1.294,0,0,0-.677.164.516.516,0,0,0-.222.458c0,.294.169.442.506.442a.807.807,0,0,0,.58-.209.735.735,0,0,0,.216-.554Z"/><path class="cls-3" d="M254.306,186.712h-1.043v-2.233a1.072,1.072,0,0,0-.147-.62.536.536,0,0,0-.468-.206.7.7,0,0,0-.632.292,1.812,1.812,0,0,0-.195.969v1.8h-1.043v-3.821h.8l.14.489h.058a1.094,1.094,0,0,1,.48-.419,1.63,1.63,0,0,1,.7-.142,1.333,1.333,0,0,1,1.011.361,1.446,1.446,0,0,1,.346,1.04Z"/><path class="cls-3" d="M256.589,186.78a1.24,1.24,0,0,1-1.058-.523,2.925,2.925,0,0,1,.007-2.913,1.27,1.27,0,0,1,1.078-.525,1.247,1.247,0,0,1,1.1.561h.034a4.307,4.307,0,0,1-.079-.763v-1.223h1.046v5.318h-.8l-.2-.5h-.045A1.189,1.189,0,0,1,256.589,186.78Zm.366-.83a.709.709,0,0,0,.586-.232,1.356,1.356,0,0,0,.2-.79v-.113a1.566,1.566,0,0,0-.189-.882.705.705,0,0,0-.617-.266.61.61,0,0,0-.542.295,1.575,1.575,0,0,0-.193.859,1.507,1.507,0,0,0,.194.847A.64.64,0,0,0,256.955,185.95Z"/><path class="cls-3" d="M260.851,186.712h-1.042v-5.318h1.042Z"/><path class="cls-3" d="M263.674,186.78a1.973,1.973,0,0,1-1.442-.509,1.93,1.93,0,0,1-.52-1.442,2.119,2.119,0,0,1,.481-1.485,1.71,1.71,0,0,1,1.328-.525,1.685,1.685,0,0,1,1.261.461,1.747,1.747,0,0,1,.451,1.276v.506h-2.464a1,1,0,0,0,.263.693.927.927,0,0,0,.69.25,2.917,2.917,0,0,0,.653-.072,3.285,3.285,0,0,0,.643-.229v.807a2.484,2.484,0,0,1-.585.2A3.717,3.717,0,0,1,263.674,186.78Zm-.147-3.219a.66.66,0,0,0-.519.21.971.971,0,0,0-.216.6h1.463a.863.863,0,0,0-.2-.6A.683.683,0,0,0,263.527,183.561Z"/><path class="cls-3" d="M266.036,181.9c0-.34.189-.509.568-.509s.567.169.567.509a.5.5,0,0,1-.142.377.6.6,0,0,1-.425.135C266.225,182.415,266.036,182.245,266.036,181.9Zm1.087,4.809h-1.042v-3.821h1.042Z"/><path class="cls-3" d="M269.827,185.95a2.253,2.253,0,0,0,.656-.12v.776a2.345,2.345,0,0,1-.957.174,1.17,1.17,0,0,1-.911-.316,1.376,1.376,0,0,1-.285-.948v-1.843h-.5v-.441l.574-.348.3-.807h.666v.814h1.07v.782h-1.07v1.843a.408.408,0,0,0,.125.328A.5.5,0,0,0,269.827,185.95Z"/><path class="cls-3" d="M273.962,186.712l-.14-.488h-.054a1.1,1.1,0,0,1-.476.411,1.631,1.631,0,0,1-.7.145,1.335,1.335,0,0,1-1.015-.36,1.452,1.452,0,0,1-.342-1.038v-2.491h1.042v2.231a1.074,1.074,0,0,0,.147.621.535.535,0,0,0,.469.207.7.7,0,0,0,.632-.293,1.807,1.807,0,0,0,.2-.969v-1.8h1.042v3.821Z"/><path class="cls-3" d="M279.383,186.712h-1.042v-2.233a1.072,1.072,0,0,0-.147-.62.536.536,0,0,0-.468-.206.7.7,0,0,0-.633.292,1.812,1.812,0,0,0-.195.969v1.8h-1.042v-3.821h.8l.14.489h.059a1.094,1.094,0,0,1,.48-.419,1.629,1.629,0,0,1,.695-.142,1.334,1.334,0,0,1,1.012.361,1.446,1.446,0,0,1,.345,1.04Z"/><path class="cls-3" d="M283.782,182.891v.53l-.6.153a1.047,1.047,0,0,1,.164.574,1.159,1.159,0,0,1-.429.959,1.858,1.858,0,0,1-1.191.343l-.188-.01-.154-.017a.347.347,0,0,0-.16.273q0,.227.574.227h.649a1.487,1.487,0,0,1,.959.269.966.966,0,0,1,.33.793,1.177,1.177,0,0,1-.559,1.039,2.9,2.9,0,0,1-1.6.37,2.221,2.221,0,0,1-1.222-.279.884.884,0,0,1-.422-.781.813.813,0,0,1,.216-.577,1.219,1.219,0,0,1,.632-.332.694.694,0,0,1-.28-.224.531.531,0,0,1-.12-.33.537.537,0,0,1,.126-.364,1.454,1.454,0,0,1,.366-.285,1.031,1.031,0,0,1-.477-.417,1.274,1.274,0,0,1-.176-.677,1.194,1.194,0,0,1,.407-.967,1.758,1.758,0,0,1,1.162-.342,2.863,2.863,0,0,1,.381.029c.147.019.241.034.282.043Zm-2.949,4.361a.376.376,0,0,0,.207.339,1.133,1.133,0,0,0,.579.123,2.06,2.06,0,0,0,.878-.154.47.47,0,0,0,.318-.42.3.3,0,0,0-.188-.3,1.535,1.535,0,0,0-.581-.082h-.54a.814.814,0,0,0-.48.135A.414.414,0,0,0,280.833,187.252Zm.379-3.11a.776.776,0,0,0,.142.492.513.513,0,0,0,.432.181.506.506,0,0,0,.431-.181.8.8,0,0,0,.137-.492q0-.69-.568-.691T281.212,184.142Z"/><path class="cls-3" d="M423.8,184.165a2.464,2.464,0,0,1-.7,1.891,2.867,2.867,0,0,1-2.029.656h-1.415v-5h1.569a2.647,2.647,0,0,1,1.9.645A2.382,2.382,0,0,1,423.8,184.165Zm-1.1.027q0-1.608-1.422-1.609h-.563v3.254h.454Q422.7,185.837,422.7,184.192Z"/><path class="cls-3" d="M427.783,185.324a1.3,1.3,0,0,1-.486,1.067,2.123,2.123,0,0,1-1.356.389,3.179,3.179,0,0,1-1.415-.3V185.5a5.754,5.754,0,0,0,.857.318,2.551,2.551,0,0,0,.64.092.922.922,0,0,0,.536-.133.455.455,0,0,0,.185-.4.434.434,0,0,0-.082-.262.927.927,0,0,0-.24-.22,6.014,6.014,0,0,0-.649-.338,3.2,3.2,0,0,1-.686-.414,1.561,1.561,0,0,1-.366-.461,1.323,1.323,0,0,1-.137-.616,1.292,1.292,0,0,1,.45-1.043,1.873,1.873,0,0,1,1.242-.378,2.962,2.962,0,0,1,.744.091,5.267,5.267,0,0,1,.74.26l-.342.824a5.046,5.046,0,0,0-.661-.229,2.159,2.159,0,0,0-.515-.066.676.676,0,0,0-.461.141.463.463,0,0,0-.161.365.447.447,0,0,0,.066.245.7.7,0,0,0,.206.2,6.518,6.518,0,0,0,.671.35,2.653,2.653,0,0,1,.96.672A1.306,1.306,0,0,1,427.783,185.324Z"/><path class="cls-3" d="M428.689,186.712v-5h1.06v4.122h2.026v.875Z"/><path class="cls-3" d="M82.3,232.164a2.464,2.464,0,0,1-.7,1.891,2.866,2.866,0,0,1-2.029.656H78.157v-5h1.569a2.647,2.647,0,0,1,1.9.645A2.378,2.378,0,0,1,82.3,232.164Zm-1.1.027q0-1.608-1.422-1.609h-.564v3.254h.454Q81.2,233.836,81.2,232.191Z"/><path class="cls-3" d="M86.289,233.323a1.3,1.3,0,0,1-.487,1.067,2.123,2.123,0,0,1-1.356.389,3.19,3.19,0,0,1-1.415-.3v-.985a5.837,5.837,0,0,0,.857.318,2.544,2.544,0,0,0,.64.092.916.916,0,0,0,.535-.133.454.454,0,0,0,.187-.4.435.435,0,0,0-.083-.262.911.911,0,0,0-.24-.22,6.175,6.175,0,0,0-.648-.338,3.186,3.186,0,0,1-.687-.414,1.561,1.561,0,0,1-.366-.461,1.323,1.323,0,0,1-.137-.616,1.292,1.292,0,0,1,.45-1.043,1.869,1.869,0,0,1,1.242-.378,2.948,2.948,0,0,1,.743.091,5.234,5.234,0,0,1,.741.26l-.342.824a5.046,5.046,0,0,0-.661-.229,2.153,2.153,0,0,0-.515-.066.676.676,0,0,0-.461.141.463.463,0,0,0-.161.365.446.446,0,0,0,.065.245.709.709,0,0,0,.206.2,6.576,6.576,0,0,0,.672.35,2.677,2.677,0,0,1,.961.672A1.312,1.312,0,0,1,86.289,233.323Z"/><path class="cls-3" d="M87.194,234.711v-5h1.06v4.122h2.027v.875Z"/><path class="cls-3" d="M242.681,233.323a1.293,1.293,0,0,1-.487,1.067,2.122,2.122,0,0,1-1.355.389,3.19,3.19,0,0,1-1.415-.3v-.985a5.789,5.789,0,0,0,.856.318,2.558,2.558,0,0,0,.641.092.919.919,0,0,0,.535-.133.456.456,0,0,0,.186-.4.434.434,0,0,0-.082-.262.916.916,0,0,0-.241-.22,5.967,5.967,0,0,0-.648-.338,3.186,3.186,0,0,1-.687-.414,1.573,1.573,0,0,1-.365-.461,1.31,1.31,0,0,1-.137-.616,1.292,1.292,0,0,1,.45-1.043,1.869,1.869,0,0,1,1.242-.378,2.948,2.948,0,0,1,.743.091,5.223,5.223,0,0,1,.74.26l-.342.824a5,5,0,0,0-.661-.229,2.151,2.151,0,0,0-.514-.066.679.679,0,0,0-.462.141.462.462,0,0,0-.16.365.446.446,0,0,0,.065.245.709.709,0,0,0,.206.2,6.576,6.576,0,0,0,.672.35,2.671,2.671,0,0,1,.96.672A1.306,1.306,0,0,1,242.681,233.323Z"/><path class="cls-3" d="M245.115,233.949a2.253,2.253,0,0,0,.656-.12v.776a2.345,2.345,0,0,1-.957.174,1.17,1.17,0,0,1-.911-.316,1.376,1.376,0,0,1-.285-.948v-1.843h-.5v-.441l.574-.348.3-.807h.666v.814h1.07v.782h-1.07v1.843a.408.408,0,0,0,.125.328A.5.5,0,0,0,245.115,233.949Z"/><path class="cls-3" d="M248.97,234.711l-.2-.52h-.028a1.547,1.547,0,0,1-.541.46,1.764,1.764,0,0,1-.727.128,1.17,1.17,0,0,1-.866-.314,1.207,1.207,0,0,1-.316-.9,1.007,1.007,0,0,1,.425-.9,2.46,2.46,0,0,1,1.284-.319l.663-.021v-.168a.52.52,0,0,0-.595-.58,2.722,2.722,0,0,0-1.077.276l-.345-.7a3.108,3.108,0,0,1,1.463-.345,1.822,1.822,0,0,1,1.179.335,1.236,1.236,0,0,1,.41,1.018v2.547Zm-.307-1.771-.4.014a1.287,1.287,0,0,0-.676.164.517.517,0,0,0-.223.458c0,.294.169.442.506.442a.807.807,0,0,0,.58-.209.736.736,0,0,0,.217-.554Z"/><path class="cls-3" d="M254.3,234.711h-1.043v-2.232a1.066,1.066,0,0,0-.147-.621.536.536,0,0,0-.468-.206.7.7,0,0,0-.632.292,1.812,1.812,0,0,0-.195.969v1.8h-1.043V230.89h.8l.14.489h.058a1.094,1.094,0,0,1,.48-.419,1.63,1.63,0,0,1,.7-.142,1.335,1.335,0,0,1,1.012.361,1.446,1.446,0,0,1,.345,1.04Z"/><path class="cls-3" d="M256.582,234.779a1.24,1.24,0,0,1-1.058-.523,2.931,2.931,0,0,1,.007-2.913,1.27,1.27,0,0,1,1.078-.525,1.247,1.247,0,0,1,1.1.561h.034a4.3,4.3,0,0,1-.078-.763v-1.223h1.045v5.318h-.8l-.2-.5h-.044A1.192,1.192,0,0,1,256.582,234.779Zm.366-.83a.709.709,0,0,0,.586-.232,1.354,1.354,0,0,0,.2-.79v-.113a1.566,1.566,0,0,0-.189-.882.705.705,0,0,0-.617-.266.612.612,0,0,0-.542.3,1.575,1.575,0,0,0-.193.859,1.5,1.5,0,0,0,.195.847A.638.638,0,0,0,256.948,233.949Z"/><path class="cls-3" d="M260.844,234.711H259.8v-5.318h1.042Z"/><path class="cls-3" d="M263.667,234.779a1.973,1.973,0,0,1-1.442-.509,1.929,1.929,0,0,1-.519-1.442,2.12,2.12,0,0,1,.48-1.485,1.71,1.71,0,0,1,1.328-.525,1.685,1.685,0,0,1,1.261.461,1.747,1.747,0,0,1,.451,1.276v.506h-2.464a1,1,0,0,0,.263.693.927.927,0,0,0,.69.25,2.917,2.917,0,0,0,.653-.072,3.262,3.262,0,0,0,.643-.229v.807a2.468,2.468,0,0,1-.585.2A3.717,3.717,0,0,1,263.667,234.779Zm-.146-3.219a.661.661,0,0,0-.52.21.964.964,0,0,0-.215.6h1.463a.868.868,0,0,0-.2-.6A.683.683,0,0,0,263.521,231.56Z"/><path class="cls-3" d="M266.029,229.9c0-.34.189-.509.568-.509s.567.169.567.509a.5.5,0,0,1-.142.377.594.594,0,0,1-.425.135C266.218,230.414,266.029,230.244,266.029,229.9Zm1.087,4.809h-1.042V230.89h1.042Z"/><path class="cls-3" d="M269.82,233.949a2.253,2.253,0,0,0,.656-.12v.776a2.345,2.345,0,0,1-.957.174,1.17,1.17,0,0,1-.911-.316,1.376,1.376,0,0,1-.285-.948v-1.843h-.5v-.441l.574-.348.3-.807h.666v.814h1.07v.782h-1.07v1.843a.408.408,0,0,0,.125.328A.5.5,0,0,0,269.82,233.949Z"/><path class="cls-3" d="M273.956,234.711l-.141-.488h-.054a1.106,1.106,0,0,1-.475.411,1.636,1.636,0,0,1-.7.145,1.335,1.335,0,0,1-1.015-.36,1.452,1.452,0,0,1-.342-1.038V230.89h1.043v2.231a1.074,1.074,0,0,0,.146.621.536.536,0,0,0,.469.207.7.7,0,0,0,.632-.293,1.806,1.806,0,0,0,.2-.968v-1.8h1.042v3.821Z"/><path class="cls-3" d="M279.376,234.711h-1.042v-2.232a1.074,1.074,0,0,0-.147-.621.536.536,0,0,0-.468-.206.7.7,0,0,0-.633.292,1.823,1.823,0,0,0-.194.969v1.8h-1.043V230.89h.8l.14.489h.058a1.094,1.094,0,0,1,.48-.419,1.63,1.63,0,0,1,.7-.142,1.333,1.333,0,0,1,1.011.361,1.446,1.446,0,0,1,.345,1.04Z"/><path class="cls-3" d="M283.775,230.89v.53l-.6.153a1.039,1.039,0,0,1,.164.574,1.161,1.161,0,0,1-.428.959,1.863,1.863,0,0,1-1.192.343l-.188-.01-.154-.017a.347.347,0,0,0-.16.273q0,.227.574.227h.649a1.487,1.487,0,0,1,.959.269.966.966,0,0,1,.33.793,1.177,1.177,0,0,1-.559,1.039,2.9,2.9,0,0,1-1.605.37,2.221,2.221,0,0,1-1.222-.279.884.884,0,0,1-.422-.781.813.813,0,0,1,.216-.577,1.219,1.219,0,0,1,.632-.332.694.694,0,0,1-.28-.224.549.549,0,0,1,.007-.694,1.447,1.447,0,0,1,.365-.285,1.036,1.036,0,0,1-.477-.417,1.274,1.274,0,0,1-.176-.677,1.194,1.194,0,0,1,.407-.967,1.758,1.758,0,0,1,1.162-.342,2.888,2.888,0,0,1,.382.029c.146.019.24.034.281.043Zm-2.949,4.361a.378.378,0,0,0,.207.339,1.133,1.133,0,0,0,.579.123,2.06,2.06,0,0,0,.878-.154.47.47,0,0,0,.318-.42.3.3,0,0,0-.188-.3,1.532,1.532,0,0,0-.581-.082h-.54a.816.816,0,0,0-.48.135A.414.414,0,0,0,280.826,235.251Zm.379-3.11a.776.776,0,0,0,.142.492.513.513,0,0,0,.432.181.5.5,0,0,0,.431-.181.8.8,0,0,0,.137-.492q0-.69-.568-.691T281.205,232.141Z"/><path class="cls-3" d="M422.6,233.323a1.293,1.293,0,0,1-.488,1.067,2.12,2.12,0,0,1-1.355.389,3.19,3.19,0,0,1-1.415-.3v-.985a5.873,5.873,0,0,0,.856.318,2.558,2.558,0,0,0,.641.092.919.919,0,0,0,.535-.133.457.457,0,0,0,.187-.4.441.441,0,0,0-.082-.262.922.922,0,0,0-.242-.22,6.022,6.022,0,0,0-.647-.338,3.172,3.172,0,0,1-.688-.414,1.573,1.573,0,0,1-.365-.461,1.31,1.31,0,0,1-.137-.616,1.292,1.292,0,0,1,.45-1.043,1.869,1.869,0,0,1,1.242-.378,2.948,2.948,0,0,1,.743.091,5.223,5.223,0,0,1,.74.26l-.342.824a5,5,0,0,0-.661-.229,2.138,2.138,0,0,0-.514-.066.681.681,0,0,0-.462.141.462.462,0,0,0-.16.365.454.454,0,0,0,.064.245.727.727,0,0,0,.207.2,6.462,6.462,0,0,0,.672.35,2.686,2.686,0,0,1,.961.672A1.312,1.312,0,0,1,422.6,233.323Z"/><path class="cls-3" d="M425.029,233.949a2.264,2.264,0,0,0,.657-.12v.776a2.348,2.348,0,0,1-.957.174,1.173,1.173,0,0,1-.912-.316,1.376,1.376,0,0,1-.286-.948v-1.843h-.5v-.441l.574-.348.3-.807h.666v.814h1.071v.782h-1.071v1.843a.4.4,0,0,0,.125.328A.5.5,0,0,0,425.029,233.949Z"/><path class="cls-3" d="M428.885,234.711l-.2-.52h-.028a1.541,1.541,0,0,1-.542.46,1.753,1.753,0,0,1-.726.128,1.172,1.172,0,0,1-.866-.314,1.211,1.211,0,0,1-.316-.9,1,1,0,0,1,.426-.9,2.453,2.453,0,0,1,1.283-.319l.662-.021v-.168a.518.518,0,0,0-.594-.58,2.722,2.722,0,0,0-1.077.276l-.344-.7a3.1,3.1,0,0,1,1.462-.345,1.824,1.824,0,0,1,1.179.335,1.236,1.236,0,0,1,.41,1.018v2.547Zm-.309-1.771-.4.014a1.3,1.3,0,0,0-.678.164.519.519,0,0,0-.222.458c0,.294.169.442.506.442a.8.8,0,0,0,.579-.209.732.732,0,0,0,.217-.554Z"/><path class="cls-3" d="M434.213,234.711H433.17v-2.232a1.074,1.074,0,0,0-.147-.621.534.534,0,0,0-.468-.206.7.7,0,0,0-.632.292,1.813,1.813,0,0,0-.194.969v1.8h-1.043V230.89h.8l.14.489h.058a1.105,1.105,0,0,1,.48-.419,1.629,1.629,0,0,1,.695-.142,1.331,1.331,0,0,1,1.012.361,1.442,1.442,0,0,1,.346,1.04Z"/><path class="cls-3" d="M436.5,234.779a1.24,1.24,0,0,1-1.058-.523,2.931,2.931,0,0,1,.007-2.913,1.27,1.27,0,0,1,1.078-.525,1.247,1.247,0,0,1,1.1.561h.034a4.206,4.206,0,0,1-.078-.763v-1.223h1.045v5.318h-.8l-.2-.5h-.044A1.192,1.192,0,0,1,436.5,234.779Zm.365-.83a.709.709,0,0,0,.587-.232,1.346,1.346,0,0,0,.2-.79v-.113a1.566,1.566,0,0,0-.189-.882.705.705,0,0,0-.617-.266.612.612,0,0,0-.542.3,1.574,1.574,0,0,0-.194.859,1.5,1.5,0,0,0,.2.847A.638.638,0,0,0,436.861,233.949Z"/><path class="cls-3" d="M440.758,234.711h-1.042v-5.318h1.042Z"/><path class="cls-3" d="M443.582,234.779a1.976,1.976,0,0,1-1.443-.509,1.93,1.93,0,0,1-.52-1.442,2.116,2.116,0,0,1,.481-1.485,1.71,1.71,0,0,1,1.328-.525,1.684,1.684,0,0,1,1.261.461,1.747,1.747,0,0,1,.452,1.276v.506h-2.465a1.006,1.006,0,0,0,.263.693.928.928,0,0,0,.69.25,2.917,2.917,0,0,0,.653-.072,3.285,3.285,0,0,0,.643-.229v.807a2.484,2.484,0,0,1-.585.2A3.713,3.713,0,0,1,443.582,234.779Zm-.147-3.219a.662.662,0,0,0-.52.21.971.971,0,0,0-.216.6h1.463a.863.863,0,0,0-.2-.6A.683.683,0,0,0,443.435,231.56Z"/><path class="cls-3" d="M445.943,229.9c0-.34.19-.509.568-.509s.567.169.567.509a.5.5,0,0,1-.142.377.6.6,0,0,1-.425.135C446.133,230.414,445.943,230.244,445.943,229.9Zm1.087,4.809h-1.042V230.89h1.042Z"/><path class="cls-3" d="M449.734,233.949a2.264,2.264,0,0,0,.657-.12v.776a2.345,2.345,0,0,1-.957.174,1.173,1.173,0,0,1-.912-.316,1.376,1.376,0,0,1-.286-.948v-1.843h-.5v-.441l.574-.348.3-.807h.666v.814h1.071v.782h-1.071v1.843a.4.4,0,0,0,.125.328A.5.5,0,0,0,449.734,233.949Z"/><path class="cls-3" d="M453.869,234.711l-.14-.488h-.054a1.115,1.115,0,0,1-.476.411,1.628,1.628,0,0,1-.7.145,1.337,1.337,0,0,1-1.015-.36,1.451,1.451,0,0,1-.341-1.038V230.89h1.042v2.231a1.066,1.066,0,0,0,.147.621.534.534,0,0,0,.468.207.7.7,0,0,0,.632-.293,1.806,1.806,0,0,0,.195-.968v-1.8h1.043v3.821Z"/><path class="cls-3" d="M459.291,234.711h-1.043v-2.232a1.082,1.082,0,0,0-.146-.621.538.538,0,0,0-.469-.206.707.707,0,0,0-.633.292,1.823,1.823,0,0,0-.194.969v1.8h-1.042V230.89h.8l.139.489h.059a1.094,1.094,0,0,1,.48-.419,1.627,1.627,0,0,1,.7-.142,1.333,1.333,0,0,1,1.011.361,1.442,1.442,0,0,1,.346,1.04Z"/><path class="cls-3" d="M463.689,230.89v.53l-.6.153a1.047,1.047,0,0,1,.164.574,1.159,1.159,0,0,1-.43.959,1.854,1.854,0,0,1-1.191.343l-.188-.01-.154-.017a.35.35,0,0,0-.16.273q0,.227.574.227h.649a1.482,1.482,0,0,1,.958.269.963.963,0,0,1,.331.793,1.175,1.175,0,0,1-.559,1.039,2.9,2.9,0,0,1-1.605.37,2.215,2.215,0,0,1-1.221-.279.884.884,0,0,1-.422-.781.813.813,0,0,1,.215-.577,1.218,1.218,0,0,1,.633-.332.7.7,0,0,1-.282-.224.551.551,0,0,1,.008-.694,1.429,1.429,0,0,1,.365-.285,1.024,1.024,0,0,1-.476-.417,1.274,1.274,0,0,1-.176-.677,1.193,1.193,0,0,1,.406-.967,1.758,1.758,0,0,1,1.162-.342,2.839,2.839,0,0,1,.381.029c.147.019.241.034.282.043Zm-2.949,4.361a.378.378,0,0,0,.207.339,1.131,1.131,0,0,0,.578.123,2.062,2.062,0,0,0,.879-.154.471.471,0,0,0,.319-.42.3.3,0,0,0-.189-.3,1.535,1.535,0,0,0-.581-.082h-.54a.813.813,0,0,0-.479.135A.415.415,0,0,0,460.74,235.251Zm.379-3.11a.77.77,0,0,0,.143.492.511.511,0,0,0,.431.181.5.5,0,0,0,.431-.181.8.8,0,0,0,.137-.492q0-.69-.568-.691T461.119,232.141Z"/><path class="cls-3" d="M81.1,281.321a1.293,1.293,0,0,1-.487,1.067,2.122,2.122,0,0,1-1.355.389,3.19,3.19,0,0,1-1.415-.3v-.985a5.927,5.927,0,0,0,.856.319,2.6,2.6,0,0,0,.641.091.929.929,0,0,0,.535-.132.459.459,0,0,0,.186-.4.436.436,0,0,0-.082-.262.916.916,0,0,0-.241-.22,5.967,5.967,0,0,0-.648-.338,3.146,3.146,0,0,1-.687-.414,1.545,1.545,0,0,1-.365-.461,1.31,1.31,0,0,1-.137-.616,1.289,1.289,0,0,1,.45-1.042,1.864,1.864,0,0,1,1.242-.379,2.948,2.948,0,0,1,.743.091,5.223,5.223,0,0,1,.74.26l-.342.824a5,5,0,0,0-.661-.229,2.151,2.151,0,0,0-.514-.066.679.679,0,0,0-.462.141.462.462,0,0,0-.16.365.454.454,0,0,0,.064.245.727.727,0,0,0,.207.2,6.576,6.576,0,0,0,.672.35,2.671,2.671,0,0,1,.96.672A1.306,1.306,0,0,1,81.1,281.321Z"/><path class="cls-3" d="M83.534,281.947a2.253,2.253,0,0,0,.656-.12v.777a2.363,2.363,0,0,1-.957.173,1.17,1.17,0,0,1-.911-.316,1.376,1.376,0,0,1-.285-.948V279.67h-.5v-.441l.574-.348.3-.807h.666v.814h1.07v.782h-1.07v1.843a.407.407,0,0,0,.125.328A.5.5,0,0,0,83.534,281.947Z"/><path class="cls-3" d="M87.389,282.709l-.2-.52H87.16a1.547,1.547,0,0,1-.541.46,1.764,1.764,0,0,1-.727.128,1.17,1.17,0,0,1-.866-.314,1.208,1.208,0,0,1-.317-.9,1.008,1.008,0,0,1,.426-.9,2.465,2.465,0,0,1,1.283-.319l.664-.021v-.168a.52.52,0,0,0-.595-.58,2.722,2.722,0,0,0-1.077.276l-.345-.7a3.108,3.108,0,0,1,1.463-.345,1.816,1.816,0,0,1,1.179.336,1.235,1.235,0,0,1,.41,1.017v2.547Zm-.307-1.771-.4.014a1.294,1.294,0,0,0-.677.164.519.519,0,0,0-.222.458c0,.294.169.442.506.442a.807.807,0,0,0,.58-.209.736.736,0,0,0,.217-.554Z"/><path class="cls-3" d="M92.718,282.709H91.675v-2.232a1.074,1.074,0,0,0-.147-.621.536.536,0,0,0-.468-.206.7.7,0,0,0-.632.292,1.812,1.812,0,0,0-.195.969v1.8H89.19v-3.821h.8l.14.489h.058a1.094,1.094,0,0,1,.48-.419,1.63,1.63,0,0,1,.7-.142,1.339,1.339,0,0,1,1.012.361,1.446,1.446,0,0,1,.345,1.04Z"/><path class="cls-3" d="M95,282.777a1.238,1.238,0,0,1-1.058-.523,2.931,2.931,0,0,1,.007-2.913,1.27,1.27,0,0,1,1.078-.525,1.247,1.247,0,0,1,1.1.561h.034a4.307,4.307,0,0,1-.079-.763v-1.223H97.13v5.318h-.8l-.2-.5h-.045A1.189,1.189,0,0,1,95,282.777Zm.366-.83a.709.709,0,0,0,.586-.232,1.354,1.354,0,0,0,.2-.79v-.113a1.566,1.566,0,0,0-.189-.882.705.705,0,0,0-.617-.266.612.612,0,0,0-.542.3,1.575,1.575,0,0,0-.193.859,1.5,1.5,0,0,0,.2.847A.635.635,0,0,0,95.367,281.947Z"/><path class="cls-3" d="M99.263,282.709H98.221v-5.318h1.042Z"/><path class="cls-3" d="M102.086,282.777a1.973,1.973,0,0,1-1.442-.509,1.929,1.929,0,0,1-.519-1.442,2.12,2.12,0,0,1,.48-1.485,1.71,1.71,0,0,1,1.328-.525,1.685,1.685,0,0,1,1.261.461,1.747,1.747,0,0,1,.451,1.276v.506h-2.464a1,1,0,0,0,.263.693.927.927,0,0,0,.69.25,2.86,2.86,0,0,0,.653-.072,3.262,3.262,0,0,0,.643-.229v.807a2.468,2.468,0,0,1-.585.2A3.717,3.717,0,0,1,102.086,282.777Zm-.147-3.219a.66.66,0,0,0-.519.21.964.964,0,0,0-.215.6h1.462a.863.863,0,0,0-.2-.6A.683.683,0,0,0,101.939,279.558Z"/><path class="cls-3" d="M104.448,277.9q0-.509.568-.509t.567.509a.492.492,0,0,1-.142.377.594.594,0,0,1-.425.135C104.637,278.412,104.448,278.242,104.448,277.9Zm1.087,4.809h-1.042v-3.821h1.042Z"/><path class="cls-3" d="M108.239,281.947a2.253,2.253,0,0,0,.656-.12v.777a2.363,2.363,0,0,1-.957.173,1.17,1.17,0,0,1-.911-.316,1.376,1.376,0,0,1-.285-.948V279.67h-.5v-.441l.574-.348.3-.807h.666v.814h1.07v.782h-1.07v1.843a.407.407,0,0,0,.125.328A.5.5,0,0,0,108.239,281.947Z"/><path class="cls-3" d="M112.375,282.709l-.141-.488h-.054a1.106,1.106,0,0,1-.475.411,1.621,1.621,0,0,1-.7.145,1.335,1.335,0,0,1-1.015-.36,1.452,1.452,0,0,1-.342-1.038v-2.491h1.042v2.231a1.07,1.07,0,0,0,.147.621.536.536,0,0,0,.469.207.7.7,0,0,0,.632-.293,1.806,1.806,0,0,0,.2-.968v-1.8h1.042v3.821Z"/><path class="cls-3" d="M117.8,282.709h-1.042v-2.232a1.074,1.074,0,0,0-.147-.621.536.536,0,0,0-.468-.206.7.7,0,0,0-.633.292,1.813,1.813,0,0,0-.194.969v1.8h-1.043v-3.821h.8l.141.489h.058a1.094,1.094,0,0,1,.48-.419,1.629,1.629,0,0,1,.7-.142,1.337,1.337,0,0,1,1.012.361,1.446,1.446,0,0,1,.345,1.04Z"/><path class="cls-3" d="M122.194,278.888v.53l-.6.153a1.04,1.04,0,0,1,.164.575,1.16,1.16,0,0,1-.428.958,1.863,1.863,0,0,1-1.192.343l-.188-.009-.154-.018a.347.347,0,0,0-.16.273q0,.226.574.227h.649a1.487,1.487,0,0,1,.959.269.966.966,0,0,1,.33.793,1.177,1.177,0,0,1-.559,1.039,2.9,2.9,0,0,1-1.6.37,2.221,2.221,0,0,1-1.222-.279.884.884,0,0,1-.422-.781.813.813,0,0,1,.216-.577,1.219,1.219,0,0,1,.632-.332.694.694,0,0,1-.28-.224.549.549,0,0,1,.007-.694,1.447,1.447,0,0,1,.365-.285,1.036,1.036,0,0,1-.477-.417,1.274,1.274,0,0,1-.176-.677,1.194,1.194,0,0,1,.407-.967,1.758,1.758,0,0,1,1.162-.342,2.888,2.888,0,0,1,.382.029c.146.019.24.034.281.043Zm-2.949,4.361a.376.376,0,0,0,.207.339,1.133,1.133,0,0,0,.579.123,2.06,2.06,0,0,0,.878-.154.47.47,0,0,0,.318-.42.3.3,0,0,0-.188-.3,1.532,1.532,0,0,0-.581-.082h-.54a.816.816,0,0,0-.48.135A.414.414,0,0,0,119.245,283.249Zm.379-3.11a.776.776,0,0,0,.142.492.513.513,0,0,0,.432.181.5.5,0,0,0,.431-.181.8.8,0,0,0,.137-.492q0-.69-.568-.691T119.624,280.139Z"/><path class="cls-3" d="M242.674,281.321a1.3,1.3,0,0,1-.487,1.067,2.122,2.122,0,0,1-1.355.389,3.187,3.187,0,0,1-1.415-.3v-.985a5.927,5.927,0,0,0,.856.319,2.594,2.594,0,0,0,.641.091.929.929,0,0,0,.535-.132.459.459,0,0,0,.186-.4.443.443,0,0,0-.082-.262.933.933,0,0,0-.241-.22,5.967,5.967,0,0,0-.648-.338,3.146,3.146,0,0,1-.687-.414,1.564,1.564,0,0,1-.366-.461,1.322,1.322,0,0,1-.136-.616,1.291,1.291,0,0,1,.449-1.042,1.869,1.869,0,0,1,1.243-.379,2.96,2.96,0,0,1,.743.091,5.223,5.223,0,0,1,.74.26l-.342.824a5,5,0,0,0-.661-.229,2.153,2.153,0,0,0-.515-.066.678.678,0,0,0-.461.141.463.463,0,0,0-.161.365.455.455,0,0,0,.065.245.727.727,0,0,0,.207.2,6.462,6.462,0,0,0,.672.35,2.671,2.671,0,0,1,.96.672A1.312,1.312,0,0,1,242.674,281.321Z"/><path class="cls-3" d="M245.107,281.947a2.258,2.258,0,0,0,.657-.12v.777a2.363,2.363,0,0,1-.957.173,1.17,1.17,0,0,1-.911-.316,1.376,1.376,0,0,1-.286-.948V279.67h-.5v-.441l.575-.348.3-.807h.667v.814h1.07v.782h-1.07v1.843a.4.4,0,0,0,.125.328A.494.494,0,0,0,245.107,281.947Z"/><path class="cls-3" d="M248.963,282.709l-.2-.52h-.027a1.541,1.541,0,0,1-.542.46,1.759,1.759,0,0,1-.726.128,1.17,1.17,0,0,1-.866-.314,1.208,1.208,0,0,1-.317-.9,1.008,1.008,0,0,1,.426-.9,2.463,2.463,0,0,1,1.283-.319l.663-.021v-.168a.519.519,0,0,0-.594-.58,2.714,2.714,0,0,0-1.077.276l-.345-.7a3.108,3.108,0,0,1,1.463-.345,1.82,1.82,0,0,1,1.179.336,1.235,1.235,0,0,1,.41,1.017v2.547Zm-.308-1.771-.4.014a1.294,1.294,0,0,0-.677.164.516.516,0,0,0-.222.458c0,.294.168.442.506.442a.8.8,0,0,0,.579-.209.732.732,0,0,0,.217-.554Z"/><path class="cls-3" d="M254.292,282.709h-1.043v-2.232a1.074,1.074,0,0,0-.147-.621.536.536,0,0,0-.468-.206.7.7,0,0,0-.633.292,1.823,1.823,0,0,0-.194.969v1.8h-1.043v-3.821h.8l.14.489h.058a1.094,1.094,0,0,1,.48-.419,1.63,1.63,0,0,1,.7-.142,1.337,1.337,0,0,1,1.011.361,1.446,1.446,0,0,1,.346,1.04Z"/><path class="cls-3" d="M256.575,282.777a1.238,1.238,0,0,1-1.058-.523,2.925,2.925,0,0,1,.007-2.913,1.27,1.27,0,0,1,1.078-.525,1.247,1.247,0,0,1,1.1.561h.034a4.307,4.307,0,0,1-.079-.763v-1.223H258.7v5.318h-.8l-.2-.5h-.045A1.191,1.191,0,0,1,256.575,282.777Zm.365-.83a.711.711,0,0,0,.587-.232,1.354,1.354,0,0,0,.2-.79v-.113a1.566,1.566,0,0,0-.189-.882.706.706,0,0,0-.618-.266.613.613,0,0,0-.542.3,1.584,1.584,0,0,0-.193.859,1.5,1.5,0,0,0,.195.847A.637.637,0,0,0,256.94,281.947Z"/><path class="cls-3" d="M260.837,282.709h-1.043v-5.318h1.043Z"/><path class="cls-3" d="M263.66,282.777a1.973,1.973,0,0,1-1.442-.509,1.93,1.93,0,0,1-.52-1.442,2.116,2.116,0,0,1,.481-1.485,1.707,1.707,0,0,1,1.327-.525,1.688,1.688,0,0,1,1.262.461,1.751,1.751,0,0,1,.451,1.276v.506h-2.465a1.006,1.006,0,0,0,.264.693.927.927,0,0,0,.69.25,2.86,2.86,0,0,0,.653-.072A3.255,3.255,0,0,0,265,281.7v.807a2.476,2.476,0,0,1-.584.2A3.73,3.73,0,0,1,263.66,282.777Zm-.147-3.219a.66.66,0,0,0-.519.21.965.965,0,0,0-.216.6h1.463a.868.868,0,0,0-.2-.6A.685.685,0,0,0,263.513,279.558Z"/><path class="cls-3" d="M266.022,277.9q0-.509.567-.509t.568.509a.5.5,0,0,1-.142.377.6.6,0,0,1-.426.135C266.211,278.412,266.022,278.242,266.022,277.9Zm1.087,4.809h-1.043v-3.821h1.043Z"/><path class="cls-3" d="M269.812,281.947a2.258,2.258,0,0,0,.657-.12v.777a2.363,2.363,0,0,1-.957.173,1.17,1.17,0,0,1-.911-.316,1.376,1.376,0,0,1-.286-.948V279.67h-.5v-.441l.575-.348.3-.807h.667v.814h1.07v.782h-1.07v1.843a.4.4,0,0,0,.125.328A.494.494,0,0,0,269.812,281.947Z"/><path class="cls-3" d="M273.948,282.709l-.14-.488h-.055a1.1,1.1,0,0,1-.475.411,1.617,1.617,0,0,1-.7.145,1.339,1.339,0,0,1-1.016-.36,1.451,1.451,0,0,1-.341-1.038v-2.491h1.042v2.231a1.07,1.07,0,0,0,.147.621.534.534,0,0,0,.468.207.7.7,0,0,0,.633-.293,1.806,1.806,0,0,0,.195-.968v-1.8h1.042v3.821Z"/><path class="cls-3" d="M279.369,282.709h-1.042v-2.232a1.074,1.074,0,0,0-.147-.621.537.537,0,0,0-.469-.206.7.7,0,0,0-.632.292,1.812,1.812,0,0,0-.195.969v1.8h-1.042v-3.821h.8l.14.489h.058a1.105,1.105,0,0,1,.48-.419,1.633,1.633,0,0,1,.7-.142,1.337,1.337,0,0,1,1.012.361,1.446,1.446,0,0,1,.345,1.04Z"/><path class="cls-3" d="M283.768,278.888v.53l-.6.153a1.048,1.048,0,0,1,.164.575,1.158,1.158,0,0,1-.429.958,1.858,1.858,0,0,1-1.191.343l-.188-.009-.154-.018a.348.348,0,0,0-.161.273q0,.226.575.227h.649a1.489,1.489,0,0,1,.959.269.966.966,0,0,1,.33.793,1.177,1.177,0,0,1-.559,1.039,2.9,2.9,0,0,1-1.605.37,2.221,2.221,0,0,1-1.222-.279.884.884,0,0,1-.422-.781.817.817,0,0,1,.215-.577,1.226,1.226,0,0,1,.633-.332.7.7,0,0,1-.281-.224.552.552,0,0,1,.007-.694,1.454,1.454,0,0,1,.366-.285,1.031,1.031,0,0,1-.477-.417,1.274,1.274,0,0,1-.176-.677,1.194,1.194,0,0,1,.407-.967,1.758,1.758,0,0,1,1.162-.342,2.863,2.863,0,0,1,.381.029c.147.019.241.034.282.043Zm-2.95,4.361a.378.378,0,0,0,.207.339,1.138,1.138,0,0,0,.579.123,2.062,2.062,0,0,0,.879-.154.47.47,0,0,0,.318-.42.3.3,0,0,0-.188-.3,1.535,1.535,0,0,0-.581-.082h-.54a.814.814,0,0,0-.48.135A.415.415,0,0,0,280.818,283.249Zm.38-3.11a.776.776,0,0,0,.142.492.513.513,0,0,0,.432.181.506.506,0,0,0,.431-.181.8.8,0,0,0,.136-.492q0-.69-.567-.691T281.2,280.139Z"/><path class="cls-3" d="M422.588,281.321a1.3,1.3,0,0,1-.486,1.067,2.128,2.128,0,0,1-1.356.389,3.194,3.194,0,0,1-1.416-.3v-.985a5.939,5.939,0,0,0,.858.319,2.58,2.58,0,0,0,.64.091.927.927,0,0,0,.535-.132.461.461,0,0,0,.186-.4.443.443,0,0,0-.082-.262.927.927,0,0,0-.24-.22,6.224,6.224,0,0,0-.649-.338,3.146,3.146,0,0,1-.687-.414,1.564,1.564,0,0,1-.366-.461,1.322,1.322,0,0,1-.136-.616,1.291,1.291,0,0,1,.449-1.042,1.868,1.868,0,0,1,1.242-.379,2.962,2.962,0,0,1,.744.091,5.18,5.18,0,0,1,.74.26l-.341.824a5.155,5.155,0,0,0-.662-.229,2.144,2.144,0,0,0-.514-.066.677.677,0,0,0-.462.141.466.466,0,0,0-.161.365.446.446,0,0,0,.065.245.735.735,0,0,0,.206.2,6.816,6.816,0,0,0,.672.35,2.677,2.677,0,0,1,.961.672A1.306,1.306,0,0,1,422.588,281.321Z"/><path class="cls-3" d="M425.021,281.947a2.264,2.264,0,0,0,.657-.12v.777a2.359,2.359,0,0,1-.957.173,1.166,1.166,0,0,1-.91-.316,1.366,1.366,0,0,1-.287-.948V279.67h-.5v-.441l.575-.348.3-.807h.666v.814h1.071v.782h-1.071v1.843a.407.407,0,0,0,.125.328A.5.5,0,0,0,425.021,281.947Z"/><path class="cls-3" d="M428.877,282.709l-.2-.52h-.028a1.541,1.541,0,0,1-.542.46,1.759,1.759,0,0,1-.726.128,1.173,1.173,0,0,1-.866-.314,1.208,1.208,0,0,1-.317-.9,1.008,1.008,0,0,1,.426-.9,2.463,2.463,0,0,1,1.283-.319l.663-.021v-.168a.519.519,0,0,0-.594-.58,2.722,2.722,0,0,0-1.077.276l-.345-.7a3.1,3.1,0,0,1,1.463-.345,1.818,1.818,0,0,1,1.179.336,1.232,1.232,0,0,1,.41,1.017v2.547Zm-.308-1.771-.4.014a1.294,1.294,0,0,0-.677.164.518.518,0,0,0-.221.458c0,.294.168.442.505.442a.809.809,0,0,0,.58-.209.735.735,0,0,0,.216-.554Z"/><path class="cls-3" d="M434.205,282.709h-1.042v-2.232a1.074,1.074,0,0,0-.147-.621.536.536,0,0,0-.468-.206.7.7,0,0,0-.632.292,1.8,1.8,0,0,0-.195.969v1.8h-1.043v-3.821h.8l.14.489h.058a1.1,1.1,0,0,1,.479-.419,1.638,1.638,0,0,1,.7-.142,1.335,1.335,0,0,1,1.011.361,1.446,1.446,0,0,1,.345,1.04Z"/><path class="cls-3" d="M436.488,282.777a1.235,1.235,0,0,1-1.056-.523,2.928,2.928,0,0,1,.006-2.913,1.272,1.272,0,0,1,1.078-.525,1.248,1.248,0,0,1,1.1.561h.033a4.393,4.393,0,0,1-.078-.763v-1.223h1.046v5.318h-.8l-.2-.5h-.045A1.189,1.189,0,0,1,436.488,282.777Zm.366-.83a.711.711,0,0,0,.587-.232,1.368,1.368,0,0,0,.2-.79v-.113a1.574,1.574,0,0,0-.19-.882.705.705,0,0,0-.617-.266.613.613,0,0,0-.543.3,1.584,1.584,0,0,0-.192.859,1.5,1.5,0,0,0,.194.847A.638.638,0,0,0,436.854,281.947Z"/><path class="cls-3" d="M440.751,282.709h-1.042v-5.318h1.042Z"/><path class="cls-3" d="M443.574,282.777a1.975,1.975,0,0,1-1.442-.509,1.926,1.926,0,0,1-.52-1.442,2.116,2.116,0,0,1,.481-1.485,1.706,1.706,0,0,1,1.327-.525,1.686,1.686,0,0,1,1.262.461,1.751,1.751,0,0,1,.451,1.276v.506h-2.465a1.006,1.006,0,0,0,.264.693.927.927,0,0,0,.69.25,2.86,2.86,0,0,0,.653-.072,3.285,3.285,0,0,0,.643-.229v.807a2.484,2.484,0,0,1-.585.2A3.724,3.724,0,0,1,443.574,282.777Zm-.146-3.219a.661.661,0,0,0-.52.21.971.971,0,0,0-.216.6h1.463a.864.864,0,0,0-.2-.6A.68.68,0,0,0,443.428,279.558Z"/><path class="cls-3" d="M445.936,277.9q0-.509.568-.509c.378,0,.566.17.566.509a.5.5,0,0,1-.141.377.6.6,0,0,1-.425.135C446.125,278.412,445.936,278.242,445.936,277.9Zm1.087,4.809H445.98v-3.821h1.043Z"/><path class="cls-3" d="M449.727,281.947a2.264,2.264,0,0,0,.656-.12v.777a2.359,2.359,0,0,1-.957.173,1.166,1.166,0,0,1-.91-.316,1.366,1.366,0,0,1-.287-.948V279.67h-.5v-.441l.575-.348.3-.807h.666v.814h1.071v.782h-1.071v1.843a.407.407,0,0,0,.125.328A.5.5,0,0,0,449.727,281.947Z"/><path class="cls-3" d="M453.862,282.709l-.139-.488h-.055a1.109,1.109,0,0,1-.476.411,1.617,1.617,0,0,1-.7.145,1.335,1.335,0,0,1-1.015-.36,1.447,1.447,0,0,1-.342-1.038v-2.491h1.043v2.231a1.078,1.078,0,0,0,.146.621.535.535,0,0,0,.469.207.7.7,0,0,0,.632-.293,1.807,1.807,0,0,0,.194-.968v-1.8h1.043v3.821Z"/><path class="cls-3" d="M459.283,282.709H458.24v-2.232a1.082,1.082,0,0,0-.146-.621.537.537,0,0,0-.469-.206.7.7,0,0,0-.632.292,1.813,1.813,0,0,0-.194.969v1.8h-1.043v-3.821h.8l.139.489h.058a1.105,1.105,0,0,1,.48-.419,1.633,1.633,0,0,1,.7-.142,1.337,1.337,0,0,1,1.012.361,1.446,1.446,0,0,1,.345,1.04Z"/><path class="cls-3" d="M463.682,278.888v.53l-.6.153a1.048,1.048,0,0,1,.164.575,1.158,1.158,0,0,1-.429.958,1.856,1.856,0,0,1-1.191.343l-.189-.009-.153-.018a.351.351,0,0,0-.161.273q0,.226.574.227h.651a1.486,1.486,0,0,1,.958.269.969.969,0,0,1,.33.793,1.177,1.177,0,0,1-.559,1.039,2.9,2.9,0,0,1-1.6.37,2.22,2.22,0,0,1-1.223-.279.884.884,0,0,1-.422-.781.817.817,0,0,1,.215-.577,1.226,1.226,0,0,1,.633-.332.7.7,0,0,1-.281-.224.549.549,0,0,1,.007-.694,1.436,1.436,0,0,1,.366-.285,1.027,1.027,0,0,1-.477-.417,1.274,1.274,0,0,1-.176-.677,1.2,1.2,0,0,1,.406-.967,1.763,1.763,0,0,1,1.163-.342,2.863,2.863,0,0,1,.381.029c.147.019.242.034.283.043Zm-2.95,4.361a.378.378,0,0,0,.207.339,1.14,1.14,0,0,0,.58.123,2.046,2.046,0,0,0,.877-.154.469.469,0,0,0,.319-.42.3.3,0,0,0-.188-.3,1.538,1.538,0,0,0-.582-.082h-.539a.819.819,0,0,0-.48.135A.415.415,0,0,0,460.732,283.249Zm.379-3.11a.776.776,0,0,0,.143.492.513.513,0,0,0,.432.181.506.506,0,0,0,.431-.181.8.8,0,0,0,.137-.492q0-.69-.568-.691T461.111,280.139Z"/></svg>