<svg id="chart" xmlns="http://www.w3.org/2000/svg" viewBox="0 0 600 338"><defs><style>.cls-1{fill:#fff;}.cls-10,.cls-11,.cls-2,.cls-3,.cls-6,.cls-8,.cls-9{fill:none;}.cls-3{stroke:#666;}.cls-4{isolation:isolate;}.cls-5{fill:#004d61;}.cls-6{stroke:#e6e6e6;}.cls-7{fill:#666;}.cls-8{stroke:#004d61;}.cls-10,.cls-11,.cls-8,.cls-9{stroke-linecap:round;stroke-linejoin:round;stroke-width:3px;}.cls-9{stroke:#002f5b;}.cls-10{stroke:#bf0053;}.cls-11{stroke:#ff70b0;}.cls-12{fill:#002f5b;}.cls-13{fill:#bf0053;}.cls-14{fill:#ff70b0;}</style></defs><title>internet-coverage</title><rect id="ground" class="cls-1" width="600" height="338"/><rect id="plotArea" class="cls-2" width="600" height="338"/><g id="leftAxis"><line class="cls-3" x1="590" y1="288" x2="10" y2="288"/><g class="cls-4"><path class="cls-5" d="M14.27,283.65a3.56,3.56,0,0,1-3.72-3.83A3.63,3.63,0,0,1,14.29,276a3.85,3.85,0,0,1,0,7.69Zm0-6c-1.19,0-1.56,1.25-1.56,2.23s.38,2.16,1.56,2.16,1.55-1.15,1.55-2.16S15.52,277.61,14.29,277.61Z"/></g><line class="cls-6" x1="590" y1="207.95" x2="10" y2="207.95"/><g class="cls-4"><path class="cls-5" d="M10.49,203.43v-1.36c1.08-1,2.2-2.06,3.25-3.14a1.3,1.3,0,0,0,.48-.78c0-.44-.52-.56-.86-.56a2.75,2.75,0,0,0-1.74.91l-1.17-1.38a4.06,4.06,0,0,1,3-1.26,3.42,3.42,0,0,1,2,.59,2.22,2.22,0,0,1,.91,1.73,2.94,2.94,0,0,1-1.12,2l-1.56,1.5h2.75v1.72Z"/></g><line class="cls-6" x1="590" y1="127.9" x2="10" y2="127.9"/><g class="cls-4"><path class="cls-5" d="M11.4,125.93a6.61,6.61,0,0,1-.76-.05v-1.66c1.45,0,4.25-.41,4.25-2.33a1.29,1.29,0,0,0-1.32-1.26,2.2,2.2,0,0,0-1.61.9l-1.33-.83.35-4.65h5.87v1.81h-4l-.1,1.47a3,3,0,0,1,1.36-.27,2.79,2.79,0,0,1,3,2.72C17.1,124.8,14,125.93,11.4,125.93Z"/></g><line class="cls-6" x1="590" y1="47.84" x2="10" y2="47.84"/><g class="cls-4"><path class="cls-5" d="M12.8,45.93H10.43l3.72-8.14-4.29,0V36h6.71v1.43Z"/><path class="cls-5" d="M27.81,43.32l0-4.41-1.91,3.32H24.31L22.54,39l0,4.34H20.39V36H23.1l2.08,3.86L27.27,36H30v7.29Z"/><path class="cls-5" d="M31.69,35.19V33.28h2.22v1.91Zm0,8.13V36.05h2.14v7.27Z"/><path class="cls-5" d="M41.91,43.34H39.79l0-.7a3.55,3.55,0,0,1-2.09.85,2.3,2.3,0,0,1-2.45-2.27,2.27,2.27,0,0,1,1.63-2.07,7.37,7.37,0,0,1,2.87-.36c0-.77-.22-1.24-1.08-1.24a2.58,2.58,0,0,0-1.79.83l-1.4-1.23a4.51,4.51,0,0,1,3.27-1.28c1.88,0,3.2,1,3.2,2.93Zm-2.17-3.17c-.69,0-2.4.07-2.4,1a.72.72,0,0,0,.77.7,2.45,2.45,0,0,0,1.63-.7Z"/></g><path class="cls-2" d="M10,47.84H590V288H10"/></g><g id="rightAxis"><line class="cls-3" x1="10" y1="288" x2="590" y2="288"/><g class="cls-4"><path class="cls-7" d="M586.49,283.65a3.56,3.56,0,0,1-3.73-3.83,3.74,3.74,0,1,1,3.73,3.83Zm0-6c-1.19,0-1.55,1.25-1.55,2.23s.37,2.16,1.55,2.16,1.56-1.15,1.56-2.16S587.73,277.61,586.5,277.61Z"/></g><line class="cls-6" x1="10" y1="207.95" x2="590" y2="207.95"/><g class="cls-4"><path class="cls-7" d="M579.09,199.27A2.63,2.63,0,0,1,581,202c0,3.21-3.4,4-6,4v-1.71a9.46,9.46,0,0,0,1.83-.24c1-.26,2-.86,2-2,0-.68-.29-1.29-1.06-1.29a1.8,1.8,0,0,0-1.17.56l-1.25-1.14,2.59-2.29-2.84,0V196.1H581v1.45Z"/><path class="cls-7" d="M586,203.6a3.56,3.56,0,0,1-3.72-3.83A3.74,3.74,0,1,1,586,203.6Zm0-6c-1.19,0-1.56,1.25-1.56,2.23s.38,2.15,1.56,2.15,1.55-1.15,1.55-2.15S587.21,197.56,586,197.56Z"/></g><line class="cls-6" x1="10" y1="127.9" x2="590" y2="127.9"/><g class="cls-4"><path class="cls-7" d="M580.77,123a3.57,3.57,0,0,1-2.08.59,3.51,3.51,0,0,1-2.74-1.26,5.72,5.72,0,0,1-.89-3.51,7.81,7.81,0,0,1,.74-3.6,3.88,3.88,0,0,1,3.46-1.8,5,5,0,0,1,2.73.71l-1.25,1.36a3.09,3.09,0,0,0-1.49-.35c-1.42,0-1.83,1.32-1.85,2.49a2.73,2.73,0,0,1,1.87-.6,3,3,0,0,1,3,3.08A3.51,3.51,0,0,1,580.77,123Zm-2.08-4.39a2,2,0,0,0-1.41.77v.16c0,.92.22,2.32,1.41,2.32.95,0,1.4-.82,1.4-1.68A1.44,1.44,0,0,0,578.69,118.61Z"/><path class="cls-7" d="M587.06,123.54a3.56,3.56,0,0,1-3.73-3.82,3.74,3.74,0,1,1,3.73,3.82Zm0-6c-1.19,0-1.56,1.24-1.56,2.22s.38,2.16,1.56,2.16,1.55-1.15,1.55-2.16S588.3,117.51,587.07,117.51Z"/></g><line class="cls-6" x1="10" y1="47.84" x2="590" y2="47.84"/><g class="cls-4"><path class="cls-7" d="M568.46,45a4,4,0,0,1-2.78,1,4.23,4.23,0,0,1-2.94-1L564,43.6a2.62,2.62,0,0,0,1.71.59c1.48,0,1.72-1.26,1.77-2.46a3.48,3.48,0,0,1-2,.64,3,3,0,0,1-3-3.09A3.33,3.33,0,0,1,566,35.8a3.58,3.58,0,0,1,3,1.5,6,6,0,0,1,.76,3.39C569.77,42.16,569.63,43.91,568.46,45Zm-2.4-7.44c-.9,0-1.33.77-1.33,1.6s.43,1.63,1.4,1.63a2,2,0,0,0,1.42-.79,2.83,2.83,0,0,0,0-.41C567.58,38.63,567.15,37.54,566.06,37.54Z"/><path class="cls-7" d="M574.74,43.49A3.56,3.56,0,0,1,571,39.67a3.74,3.74,0,1,1,7.48,0A3.6,3.6,0,0,1,574.74,43.49Zm0-6c-1.19,0-1.56,1.24-1.56,2.22s.38,2.16,1.56,2.16,1.55-1.15,1.55-2.16S576,37.46,574.75,37.46Z"/><path class="cls-7" d="M583.21,38.8a2.29,2.29,0,0,1-2.39-2.45,2.4,2.4,0,1,1,2.39,2.45Zm0-3.87c-.76,0-1,.8-1,1.43s.23,1.39,1,1.39,1-.74,1-1.39S584,34.93,583.22,34.93Zm1,8.39h-1.39l5.57-9.45h1.42Zm5.26,0a2.29,2.29,0,0,1-2.38-2.45,2.39,2.39,0,1,1,2.38,2.45Zm0-3.87c-.77,0-1,.8-1,1.43s.24,1.37,1,1.37,1-.73,1-1.37S590.32,39.5,589.54,39.5Z"/></g><path class="cls-2" d="M590,47.84H10V288H590"/></g><g id="xAxis"><line class="cls-6" x1="10" y1="296" x2="10" y2="302"/><g class="cls-4"><path class="cls-7" d="M12.25,314.94v-5l-1.13.85L9.8,309.56l2.76-2H14.4v7.42Z"/><path class="cls-7" d="M21.65,316.59a4.06,4.06,0,0,1-2.79,1,4.26,4.26,0,0,1-2.94-1l1.26-1.33a2.62,2.62,0,0,0,1.71.59c1.48,0,1.72-1.26,1.78-2.47a3.47,3.47,0,0,1-2,.65,3,3,0,0,1-3-3.1,3.32,3.32,0,0,1,3.47-3.47,3.57,3.57,0,0,1,3,1.5,6,6,0,0,1,.76,3.39C23,313.78,22.81,315.53,21.65,316.59Zm-2.41-7.43c-.9,0-1.33.77-1.33,1.59s.43,1.64,1.4,1.64a2.05,2.05,0,0,0,1.43-.8c0-.14,0-.26,0-.4C20.77,310.25,20.33,309.16,19.24,309.16Z"/><path class="cls-7" d="M27.72,315.08c-2.13,0-3.6-1.15-3.6-3a2.61,2.61,0,0,1,1.38-2.38,2.23,2.23,0,0,1-1.15-2.05c0-1.65,1.45-2.7,3.41-2.7s3.35,1.08,3.35,2.73a2.27,2.27,0,0,1-1.1,2,2.55,2.55,0,0,1,1.33,2.33C31.34,313.92,29.87,315.08,27.72,315.08Zm.61-4.24a2.89,2.89,0,0,0-.93-.23l-.08,0a1.77,1.77,0,0,0-.65.41,1.38,1.38,0,0,0-.35,1,1.29,1.29,0,0,0,1.4,1.36,1.24,1.24,0,0,0,1.39-1.31A1.33,1.33,0,0,0,28.33,310.84Zm-.59-4.21a1.1,1.1,0,0,0-1.24,1.08c0,.73.76,1.14,1.43,1.21H28a1.63,1.63,0,0,1,.23-.11,1.12,1.12,0,0,0,.73-1A1.17,1.17,0,0,0,27.74,306.63Z"/><path class="cls-7" d="M33.22,317.49a6.28,6.28,0,0,1-.75,0v-1.67c1.44,0,4.24-.4,4.24-2.32a1.28,1.28,0,0,0-1.32-1.26,2.24,2.24,0,0,0-1.61.89l-1.33-.83.35-4.65h5.87v1.81h-4l-.1,1.47a3,3,0,0,1,1.36-.26,2.79,2.79,0,0,1,3,2.71C38.92,316.37,35.77,317.49,33.22,317.49Z"/></g><line class="cls-6" x1="117.4" y1="296" x2="117.4" y2="302"/><g class="cls-4"><path class="cls-7" d="M119.66,314.94v-5l-1.14.85-1.32-1.23,2.76-2h1.84v7.42Z"/><path class="cls-7" d="M129.05,316.59a4.06,4.06,0,0,1-2.79,1,4.26,4.26,0,0,1-2.94-1l1.26-1.33a2.62,2.62,0,0,0,1.71.59c1.48,0,1.72-1.26,1.78-2.47a3.47,3.47,0,0,1-2,.65,3,3,0,0,1-3-3.1,3.32,3.32,0,0,1,3.47-3.47,3.6,3.6,0,0,1,3,1.5,6.11,6.11,0,0,1,.75,3.39C130.35,313.78,130.21,315.53,129.05,316.59Zm-2.41-7.43c-.9,0-1.33.77-1.33,1.59s.43,1.64,1.4,1.64a2.05,2.05,0,0,0,1.43-.8c0-.14,0-.26,0-.4C128.17,310.25,127.73,309.16,126.64,309.16Z"/><path class="cls-7" d="M137.52,316.59a4.06,4.06,0,0,1-2.79,1,4.26,4.26,0,0,1-2.94-1l1.26-1.33a2.62,2.62,0,0,0,1.71.59c1.48,0,1.72-1.26,1.78-2.47a3.47,3.47,0,0,1-2,.65,3,3,0,0,1-2.95-3.1,3.32,3.32,0,0,1,3.47-3.47,3.6,3.6,0,0,1,3,1.5,6.11,6.11,0,0,1,.75,3.39C138.82,313.78,138.68,315.53,137.52,316.59Zm-2.41-7.43c-.9,0-1.33.77-1.33,1.59s.43,1.64,1.4,1.64a2.05,2.05,0,0,0,1.43-.8c0-.14,0-.26,0-.4C136.64,310.25,136.2,309.16,135.11,309.16Z"/><path class="cls-7" d="M143.79,315.11a3.57,3.57,0,0,1-3.73-3.83,3.74,3.74,0,1,1,3.73,3.83Zm0-6c-1.19,0-1.55,1.25-1.55,2.23s.38,2.16,1.55,2.16,1.56-1.15,1.56-2.16S145,309.07,143.8,309.07Z"/></g><line class="cls-6" x1="224.8" y1="296" x2="224.8" y2="302"/><g class="cls-4"><path class="cls-7" d="M227.06,314.94v-5l-1.14.85-1.31-1.23,2.76-2h1.83v7.42Z"/><path class="cls-7" d="M236.45,316.59a4,4,0,0,1-2.79,1,4.26,4.26,0,0,1-2.94-1l1.26-1.33a2.64,2.64,0,0,0,1.71.59c1.49,0,1.72-1.26,1.78-2.47a3.45,3.45,0,0,1-2,.65,3,3,0,0,1-3-3.1,3.32,3.32,0,0,1,3.47-3.47,3.6,3.6,0,0,1,3,1.5,6.11,6.11,0,0,1,.75,3.39C237.75,313.78,237.61,315.53,236.45,316.59ZM234,309.16c-.9,0-1.33.77-1.33,1.59s.43,1.64,1.4,1.64a2,2,0,0,0,1.43-.8c0-.14,0-.26,0-.4C235.57,310.25,235.13,309.16,234,309.16Z"/><path class="cls-7" d="M244.92,316.59a4,4,0,0,1-2.79,1,4.26,4.26,0,0,1-2.94-1l1.26-1.33a2.64,2.64,0,0,0,1.71.59c1.49,0,1.72-1.26,1.78-2.47a3.47,3.47,0,0,1-2,.65,3,3,0,0,1-3-3.1,3.32,3.32,0,0,1,3.47-3.47,3.6,3.6,0,0,1,3,1.5,6.11,6.11,0,0,1,.75,3.39C246.22,313.78,246.08,315.53,244.92,316.59Zm-2.41-7.43c-.9,0-1.33.77-1.33,1.59s.43,1.64,1.4,1.64a2.05,2.05,0,0,0,1.43-.8c0-.14,0-.26,0-.4C244,310.25,243.6,309.16,242.51,309.16Z"/><path class="cls-7" d="M248.31,317.49a6.34,6.34,0,0,1-.76,0v-1.67c1.44,0,4.24-.4,4.24-2.32a1.28,1.28,0,0,0-1.31-1.26,2.2,2.2,0,0,0-1.61.89l-1.33-.83.34-4.65h5.87v1.81h-4l-.1,1.47a3,3,0,0,1,1.36-.26,2.79,2.79,0,0,1,3,2.71C254,316.37,250.85,317.49,248.31,317.49Z"/></g><line class="cls-6" x1="332.2" y1="296" x2="332.2" y2="302"/><g class="cls-4"><path class="cls-7" d="M332.69,314.94v-1.36c1.08-1.05,2.2-2.06,3.25-3.14a1.3,1.3,0,0,0,.48-.78c0-.43-.52-.56-.86-.56a2.75,2.75,0,0,0-1.73.91l-1.18-1.37a4,4,0,0,1,3-1.26,3.41,3.41,0,0,1,2,.58,2.25,2.25,0,0,1,.91,1.73,2.89,2.89,0,0,1-1.12,2l-1.55,1.5h2.74v1.72Z"/><path class="cls-7" d="M343.5,315.11a3.56,3.56,0,0,1-3.72-3.83,3.74,3.74,0,1,1,3.72,3.83Zm0-6c-1.19,0-1.56,1.25-1.56,2.23s.38,2.16,1.56,2.16,1.55-1.15,1.55-2.16S344.75,309.07,343.52,309.07Z"/><path class="cls-7" d="M352.07,315.11a3.57,3.57,0,0,1-3.73-3.83,3.75,3.75,0,1,1,3.73,3.83Zm0-6c-1.19,0-1.55,1.25-1.55,2.23s.38,2.16,1.55,2.16,1.56-1.15,1.56-2.16S353.32,309.07,352.08,309.07Z"/><path class="cls-7" d="M360.64,315.11a3.57,3.57,0,0,1-3.73-3.83,3.74,3.74,0,1,1,3.73,3.83Zm0-6c-1.19,0-1.55,1.25-1.55,2.23s.38,2.16,1.55,2.16,1.56-1.15,1.56-2.16S361.89,309.07,360.65,309.07Z"/></g><line class="cls-6" x1="439.66" y1="296" x2="439.66" y2="302"/><g class="cls-4"><path class="cls-7" d="M440.15,314.94v-1.36c1.08-1.05,2.2-2.06,3.25-3.14a1.3,1.3,0,0,0,.48-.78c0-.43-.52-.56-.86-.56a2.75,2.75,0,0,0-1.73.91l-1.18-1.37a4,4,0,0,1,3-1.26,3.41,3.41,0,0,1,2,.58,2.25,2.25,0,0,1,.91,1.73,2.92,2.92,0,0,1-1.12,2l-1.55,1.5h2.74v1.72Z"/><path class="cls-7" d="M451,315.11a3.56,3.56,0,0,1-3.72-3.83,3.74,3.74,0,1,1,3.72,3.83Zm0-6c-1.19,0-1.56,1.25-1.56,2.23s.38,2.16,1.56,2.16,1.55-1.15,1.55-2.16S452.21,309.07,451,309.07Z"/><path class="cls-7" d="M459.53,315.11a3.57,3.57,0,0,1-3.73-3.83,3.74,3.74,0,1,1,3.73,3.83Zm0-6c-1.19,0-1.55,1.25-1.55,2.23s.38,2.16,1.55,2.16,1.56-1.15,1.56-2.16S460.78,309.07,459.54,309.07Z"/><path class="cls-7" d="M465.32,317.49a6.28,6.28,0,0,1-.75,0v-1.67c1.44,0,4.24-.4,4.24-2.32a1.28,1.28,0,0,0-1.32-1.26,2.22,2.22,0,0,0-1.61.89l-1.33-.83.35-4.65h5.87v1.81h-4l-.1,1.47a3,3,0,0,1,1.36-.26,2.79,2.79,0,0,1,3,2.71C471,316.37,467.87,317.49,465.32,317.49Z"/></g><line class="cls-6" x1="547.06" y1="296" x2="547.06" y2="302"/><g class="cls-4"><path class="cls-7" d="M547.55,314.94v-1.36c1.08-1.05,2.2-2.06,3.25-3.14a1.3,1.3,0,0,0,.48-.78c0-.43-.52-.56-.86-.56a2.75,2.75,0,0,0-1.73.91l-1.18-1.37a4,4,0,0,1,3-1.26,3.39,3.39,0,0,1,2,.58,2.25,2.25,0,0,1,.91,1.73,2.89,2.89,0,0,1-1.12,2l-1.55,1.5h2.74v1.72Z"/><path class="cls-7" d="M558.36,315.11a3.56,3.56,0,0,1-3.72-3.83,3.74,3.74,0,1,1,3.72,3.83Zm0-6c-1.19,0-1.56,1.25-1.56,2.23s.38,2.16,1.56,2.16,1.55-1.15,1.55-2.16S559.61,309.07,558.38,309.07Z"/><path class="cls-7" d="M565,314.94v-5l-1.14.85-1.32-1.23,2.76-2h1.84v7.42Z"/><path class="cls-7" d="M572.23,315.11a3.56,3.56,0,0,1-3.72-3.83,3.74,3.74,0,1,1,3.72,3.83Zm0-6c-1.19,0-1.56,1.25-1.56,2.23s.38,2.16,1.56,2.16,1.55-1.15,1.55-2.16S573.48,309.07,572.25,309.07Z"/></g><path class="cls-2" d="M10,302v-6H590v6"/></g><g id="seriesContainer"><path class="cls-8" d="M10,121.94,31.47,119l21.47-3,21.47-3,21.52-3,21.47-3.06,21.47-3,21.47-2.84,21.52-2.87,21.47-2.83,21.47-2.87,21.47-2.8L267.8,86.9l21.47-2.77,21.47-2.74,21.46-2.74L353.73,76l21.47-2.66,21.47-2.66L418.14,68l21.52-2.67,21.47-2.68L482.6,60l21.47-2.72,21.53-2.72,21.46-2.74L568.53,49,590,46.25"/><path class="cls-9" d="M10,288H95.93l21.47-.13,21.47.13h21.47l21.52-.68,21.47-.52,21.47-.88,21.47-1.47,21.53-1.91,21.47-2.94,21.46-4L332.2,270l21.53-3.53,21.47-6.62,21.47-4.52,21.47-5.06,21.52-4.36L461.13,241l21.47-8,21.47-7.17L525.6,219l21.46-10L568.53,201,590,193.08"/><path class="cls-10" d="M10,288H95.93l21.47-.18,21.47-.28,21.47-.37,21.52-.33,21.47-1,21.47-2,21.47-3.27,21.53-6.17,21.47-8.81,21.47-16.42,21.46-15.92,21.53-12.67,21.47-26.2,21.47-17.84,21.47-13.34,21.52-11,21.47-9.55,21.47-15.32,21.47-10.42,21.53-8.09,21.46-10,21.47-5.92L590,87.12"/><path class="cls-11" d="M10,288H95.93l21.47-1.59,21.47-1.56,21.47-1.52,21.52-1.11,21.47-1.48,21.47-2.22,21.47-2.66,21.53-28.15,21.47-25.89,21.47-24.55,21.46-35L353.73,141l21.47-16.81,21.47-9.87,21.47-7.21,21.52-6.14L461.13,86l21.47-4,21.47-5.34,21.52-5.6,21.47-6.94,21.47-3.47H590"/></g><g class="cls-4"><path class="cls-5" d="M31.76,23H29.49l-1.41-4.16L26.44,23H24.38l-2.49-7.27h2.28l1.37,4.34,1.56-4.34h2.06l1.5,4.33,1.4-4.33h2.21Z"/><path class="cls-5" d="M38.31,23.11a3.5,3.5,0,0,1-3.79-3.81,3.51,3.51,0,0,1,3.59-3.74,3.24,3.24,0,0,1,3.42,3.53,4.65,4.65,0,0,1,0,.74H36.74a1.67,1.67,0,0,0,1.57,1.62,2.72,2.72,0,0,0,1.82-.93l1.44,1.27A4.47,4.47,0,0,1,38.31,23.11Zm-.18-5.95a1.29,1.29,0,0,0-1.33,1.27h2.65A1.26,1.26,0,0,0,38.13,17.16Z"/><path class="cls-5" d="M45.14,23.11a2.28,2.28,0,0,1-2.12-1,2.8,2.8,0,0,1-.26-1.47v-8h2.13v8c0,.31-.07.77.39.77a3.45,3.45,0,0,0,.69-.11l.63,1.61A4.81,4.81,0,0,1,45.14,23.11Z"/><path class="cls-5" d="M49.79,23.17c-1.75,0-2.34-1-2.34-2.63,0-1,0-2,0-3.06l-1.5,0V15.73h1.53l0-1.57,2-.55v2.12h2.27V17.5l-2.23,0v2.93c0,.32-.09,1,.4,1a2.92,2.92,0,0,0,1.19-.55l1,1.43A4.16,4.16,0,0,1,49.79,23.17Z"/><path class="cls-5" d="M58.64,22.52a2.81,2.81,0,0,1-1.73.61A2.72,2.72,0,0,1,55,22.37L54.9,23H52.79V12.58H55V16.3a2.94,2.94,0,0,1,2-.74,2.87,2.87,0,0,1,1.86.7,3.7,3.7,0,0,1,1.2,3A3.88,3.88,0,0,1,58.64,22.52Zm-2.33-5.33a2.09,2.09,0,0,0-1.34.53V20.9a2.25,2.25,0,0,0,1.47.64c1.16,0,1.34-1.58,1.34-2.45S57.47,17.19,56.31,17.19Z"/><path class="cls-5" d="M64.78,23.11A3.51,3.51,0,0,1,61,19.3a3.52,3.52,0,0,1,3.6-3.74A3.24,3.24,0,0,1,68,19.09a4.65,4.65,0,0,1,0,.74H63.21a1.67,1.67,0,0,0,1.57,1.62,2.74,2.74,0,0,0,1.82-.93L68,21.79A4.47,4.47,0,0,1,64.78,23.11Zm-.18-5.95a1.29,1.29,0,0,0-1.33,1.27h2.64A1.26,1.26,0,0,0,64.6,17.16Z"/><path class="cls-5" d="M73.25,23H71l-2.8-7.27h2.3l1.65,4.61,1.68-4.61H76Z"/><path class="cls-5" d="M80,23.13a3.59,3.59,0,0,1-3.82-3.79,3.83,3.83,0,0,1,7.65,0A3.6,3.6,0,0,1,80,23.13Zm-2.66-8.25V13h2.24v1.91ZM80,17.19c-1.23,0-1.62,1.1-1.62,2.15s.39,2.15,1.62,2.15,1.63-1.1,1.63-2.15S81.19,17.19,80,17.19Zm.4-2.31V13h2.24v1.91Z"/><path class="cls-5" d="M87.34,23.11a2.25,2.25,0,0,1-2.11-1A2.79,2.79,0,0,1,85,20.63v-8h2.13v8c0,.31-.07.77.39.77a3.35,3.35,0,0,0,.69-.11l.63,1.61A4.76,4.76,0,0,1,87.34,23.11Z"/><path class="cls-5" d="M94.37,23l-2.28-2.87-.49.47V23H89.43V12.59H91.6V18L94,15.73h2.77l-3.19,3L97.09,23Z"/><path class="cls-5" d="M100.53,23.11a3.51,3.51,0,0,1-3.8-3.81,3.52,3.52,0,0,1,3.6-3.74,3.24,3.24,0,0,1,3.42,3.53,4.65,4.65,0,0,1,0,.74H99a1.67,1.67,0,0,0,1.57,1.62,2.74,2.74,0,0,0,1.82-.93l1.44,1.27A4.47,4.47,0,0,1,100.53,23.11Zm-.18-5.95A1.29,1.29,0,0,0,99,18.43h2.65A1.27,1.27,0,0,0,100.35,17.16Z"/><path class="cls-5" d="M109.22,17.54c-.12,0-.25,0-.38,0a1.73,1.73,0,0,0-1.27.57,1.82,1.82,0,0,0-.31.56V23h-2.14V15.72h2.08l0,1a2,2,0,0,1,1.82-1.16,3.74,3.74,0,0,1,1.05.14Z"/><path class="cls-5" d="M115.26,23l-.07-1-.54.38a3.46,3.46,0,0,1-2,.75c-1.54,0-2-.7-2-2.17V15.73h2.17c0,1.69,0,3.38,0,5.07,0,.44.13.62.58.62s1.37-.75,1.81-1.08V15.73h2.17V23Z"/><path class="cls-5" d="M123.7,23V18.21c0-.5,0-.84-.65-.84a3.2,3.2,0,0,0-1.84,1V23H119V15.73h2.1l0,1a4.34,4.34,0,0,1,2.9-1.19,1.62,1.62,0,0,1,1.81,1.65V23Z"/><path class="cls-5" d="M134.13,23.39c-.22,1.86-1.79,2.5-3.49,2.5a6.08,6.08,0,0,1-3.44-1.07l1.27-1.37a3.83,3.83,0,0,0,2,.71c.52,0,1.29-.08,1.47-.67A5.83,5.83,0,0,0,132,22.3l0-.38a2.72,2.72,0,0,1-1.87.73,3.17,3.17,0,0,1-3.06-3.46c0-1.86,1.15-3.59,3.15-3.59a2.58,2.58,0,0,1,1.81.73l.09-.61h2.07V22A11.48,11.48,0,0,1,134.13,23.39ZM132,17.78a1.83,1.83,0,0,0-1.25-.58c-1.13,0-1.48,1.05-1.48,2s.37,1.84,1.41,1.84a2.28,2.28,0,0,0,1.32-.49Z"/></g><rect class="cls-5" x="10" y="13" width="10" height="10"/><g class="cls-4"><path class="cls-12" d="M499.75,23h-2.27l-1.42-4.16L494.42,23h-2.06l-2.49-7.27h2.28l1.38,4.34,1.55-4.34h2.06l1.5,4.33,1.4-4.33h2.21Z"/><path class="cls-12" d="M506.29,23.11a3.51,3.51,0,0,1-3.79-3.81,3.51,3.51,0,0,1,3.6-3.74,3.24,3.24,0,0,1,3.41,3.53,4.65,4.65,0,0,1,0,.74h-4.75a1.67,1.67,0,0,0,1.57,1.62,2.72,2.72,0,0,0,1.82-.93l1.45,1.27A4.51,4.51,0,0,1,506.29,23.11Zm-.18-5.95a1.29,1.29,0,0,0-1.33,1.27h2.65A1.26,1.26,0,0,0,506.11,17.16Z"/><path class="cls-12" d="M513.12,23.11a2.25,2.25,0,0,1-2.11-1,2.79,2.79,0,0,1-.27-1.47v-8h2.13v8c0,.31-.07.77.39.77a3.35,3.35,0,0,0,.69-.11l.63,1.61A4.81,4.81,0,0,1,513.12,23.11Z"/><path class="cls-12" d="M517.77,23.17c-1.75,0-2.34-1-2.34-2.63,0-1,0-2,0-3.06l-1.5,0V15.73h1.53l.06-1.57,2-.55v2.12h2.27V17.5l-2.22,0v2.93c0,.32-.1,1,.39,1a2.81,2.81,0,0,0,1.19-.55l1,1.43A4.13,4.13,0,0,1,517.77,23.17Z"/></g><rect class="cls-12" x="477.98" y="13" width="10" height="10"/><g class="cls-4"><path class="cls-13" d="M540.9,23V15.73H547V17.5l-3.95,0v.93l3.22,0v1.74l-3.22,0v1.14h4V23Z"/><path class="cls-13" d="M551.83,23.15c-2.32,0-3.55-1.24-3.55-3.32V15.7h2.17v3.77a2.18,2.18,0,0,0,.3,1.49,1.4,1.4,0,0,0,1.08.47,1.29,1.29,0,0,0,1.36-1.13,5.71,5.71,0,0,0,0-.83V15.7h2.17v4.13C555.39,21.91,554.16,23.15,551.83,23.15Z"/></g><rect class="cls-13" x="528.06" y="13" width="10" height="10"/><g class="cls-4"><path class="cls-14" d="M580.13,18.18a1.5,1.5,0,0,0-1.39-.94c-1.26,0-1.61,1.08-1.61,2.15s.34,2.06,1.62,2.06a1.77,1.77,0,0,0,1.43-.94l1.69,1a3.52,3.52,0,0,1-3.17,1.7c-2.45,0-3.81-1.43-3.81-3.87a4.09,4.09,0,0,1,.24-1.38,3.5,3.5,0,0,1,3.6-2.4,3.27,3.27,0,0,1,3.09,1.71Z"/><path class="cls-14" d="M588.08,23V20.1h-3l0,2.9H583V15.7h2.17l0,2.59h3V15.7h2.17V23Z"/></g><rect class="cls-14" x="562.43" y="13" width="10" height="10"/></svg>