<svg id="chart" xmlns="http://www.w3.org/2000/svg" viewBox="0 0 600 338"><defs><style>.cls-1{fill:#fff;}.cls-2,.cls-3,.cls-6,.cls-7{fill:none;}.cls-3{stroke:#666;}.cls-4{isolation:isolate;}.cls-5{fill:#666;}.cls-6{stroke:#e6e6e6;}.cls-7{stroke:#004d61;stroke-linecap:round;stroke-linejoin:round;stroke-width:3px;}.cls-8{fill:#004d61;}.cls-9{fill:#999;}</style></defs><title>speed</title><rect id="ground" class="cls-1" width="600" height="338"/><rect id="plotArea" class="cls-2" width="600" height="338"/><g id="rightAxis"><line class="cls-3" x1="10" y1="288" x2="590" y2="288"/><g class="cls-4"><path class="cls-5" d="M586.49,283.65a3.56,3.56,0,0,1-3.73-3.83,3.74,3.74,0,1,1,3.73,3.83Zm0-6c-1.19,0-1.56,1.25-1.56,2.23s.38,2.16,1.56,2.16,1.55-1.15,1.55-2.16S587.73,277.61,586.5,277.61Z"/></g><line class="cls-6" x1="10" y1="200.14" x2="590" y2="200.14"/><g class="cls-4"><path class="cls-5" d="M578.52,195.76c-2.13,0-3.6-1.15-3.6-3a2.62,2.62,0,0,1,1.37-2.38,2.23,2.23,0,0,1-1.15-2.05c0-1.65,1.46-2.7,3.42-2.7s3.35,1.08,3.35,2.73a2.24,2.24,0,0,1-1.11,2,2.53,2.53,0,0,1,1.33,2.33C582.13,194.6,580.66,195.76,578.52,195.76Zm.6-4.24a2.83,2.83,0,0,0-.92-.23l-.09,0a1.72,1.72,0,0,0-.64.41,1.34,1.34,0,0,0-.35,1,1.29,1.29,0,0,0,1.4,1.36,1.23,1.23,0,0,0,1.38-1.31A1.33,1.33,0,0,0,579.12,191.52Zm-.59-4.21a1.1,1.1,0,0,0-1.23,1.08c0,.73.76,1.14,1.43,1.21h.11l.22-.11a1.11,1.11,0,0,0,.73-1A1.17,1.17,0,0,0,578.53,187.31Z"/><path class="cls-5" d="M587.21,191.46a2.64,2.64,0,0,1,1.92,2.69c0,3.21-3.4,4-6,4v-1.7a10.3,10.3,0,0,0,1.84-.24c1-.27,2-.87,2-2,0-.68-.28-1.28-1.05-1.28a1.76,1.76,0,0,0-1.17.56l-1.25-1.15,2.59-2.29-2.84,0v-1.81h5.92v1.45Z"/></g><line class="cls-6" x1="10" y1="112.28" x2="590" y2="112.28"/><g class="cls-4"><path class="cls-5" d="M568.9,107.76v-5l-1.14.86-1.31-1.24,2.76-2H571v7.42Z"/><path class="cls-5" d="M578.32,107.38a3.51,3.51,0,0,1-2.09.59,3.47,3.47,0,0,1-2.73-1.26,5.68,5.68,0,0,1-.89-3.5,7.64,7.64,0,0,1,.74-3.6,3.89,3.89,0,0,1,3.46-1.81,5.06,5.06,0,0,1,2.73.72l-1.25,1.36a3,3,0,0,0-1.5-.35c-1.41,0-1.82,1.31-1.84,2.49a2.73,2.73,0,0,1,1.87-.6,3,3,0,0,1,3,3.08A3.5,3.5,0,0,1,578.32,107.38ZM576.23,103a2,2,0,0,0-1.4.77v.15c0,.93.21,2.33,1.4,2.33,1,0,1.4-.83,1.4-1.68A1.43,1.43,0,0,0,576.23,103Z"/><path class="cls-5" d="M582.79,110.37h-2.37l3.71-8.14h-4.29v-1.8h6.71v1.42Z"/></g><line class="cls-6" x1="10" y1="24.42" x2="590" y2="24.42"/><g class="cls-4"><path class="cls-5" d="M567.13,19.9V18.54c1.08-1.05,2.2-2.06,3.25-3.13a1.32,1.32,0,0,0,.48-.79c0-.43-.52-.56-.86-.56a2.75,2.75,0,0,0-1.73.91l-1.18-1.37a4.06,4.06,0,0,1,3-1.26,3.35,3.35,0,0,1,2,.59,2.22,2.22,0,0,1,.91,1.72,2.92,2.92,0,0,1-1.12,2l-1.55,1.5h2.74V19.9Z"/><path class="cls-5" d="M575,22.45a6.45,6.45,0,0,1-.76,0V20.74c1.44,0,4.25-.4,4.25-2.32a1.29,1.29,0,0,0-1.32-1.26,2.2,2.2,0,0,0-1.61.89l-1.33-.82.35-4.65h5.87v1.8h-4l-.1,1.47a3,3,0,0,1,1.35-.26,2.79,2.79,0,0,1,3,2.72C580.7,21.33,577.55,22.45,575,22.45Z"/><path class="cls-5" d="M585.48,20.07a3.56,3.56,0,0,1-3.72-3.82,3.74,3.74,0,1,1,7.48,0A3.61,3.61,0,0,1,585.48,20.07Zm0-6c-1.19,0-1.56,1.25-1.56,2.23s.38,2.16,1.56,2.16,1.55-1.15,1.55-2.16S586.73,14,585.5,14Z"/></g><path class="cls-2" d="M590,24.42H10V288H590"/></g><g id="xAxis"><line class="cls-6" x1="10" y1="296" x2="10" y2="302"/><g class="cls-4"><path class="cls-5" d="M12.26,314.94v-5l-1.14.85L9.8,309.56l2.76-2H14.4v7.42Z"/><path class="cls-5" d="M18.09,317.55H15.72l3.72-8.14H15.15v-1.81h6.71V309Z"/><path class="cls-5" d="M28.42,316.59a4,4,0,0,1-2.78,1,4.27,4.27,0,0,1-2.95-1L24,315.22a2.64,2.64,0,0,0,1.71.59c1.49,0,1.73-1.26,1.78-2.47a3.42,3.42,0,0,1-2,.65,3,3,0,0,1-3-3.1A3.33,3.33,0,0,1,26,307.42a3.58,3.58,0,0,1,3,1.5,6,6,0,0,1,.76,3.39C29.73,313.78,29.59,315.53,28.42,316.59ZM26,309.16a1.41,1.41,0,0,0-1.33,1.59c0,.87.44,1.64,1.4,1.64a2,2,0,0,0,1.43-.8,2.69,2.69,0,0,0,0-.4C27.54,310.25,27.11,309.16,26,309.16Z"/><path class="cls-5" d="M34.5,315.08c-2.13,0-3.6-1.15-3.6-3a2.62,2.62,0,0,1,1.37-2.38,2.23,2.23,0,0,1-1.15-2.05c0-1.65,1.46-2.7,3.42-2.7s3.35,1.08,3.35,2.73a2.25,2.25,0,0,1-1.11,2,2.53,2.53,0,0,1,1.33,2.33C38.11,313.92,36.64,315.08,34.5,315.08Zm.6-4.24a2.83,2.83,0,0,0-.92-.23l-.09,0a1.81,1.81,0,0,0-.64.41,1.34,1.34,0,0,0-.35,1,1.29,1.29,0,0,0,1.4,1.36,1.23,1.23,0,0,0,1.38-1.31A1.33,1.33,0,0,0,35.1,310.84Zm-.59-4.21a1.1,1.1,0,0,0-1.23,1.08c0,.73.76,1.14,1.43,1.21h.11l.22-.11a1.12,1.12,0,0,0,.73-1A1.17,1.17,0,0,0,34.51,306.63Z"/></g><line class="cls-6" x1="68" y1="296" x2="68" y2="302"/><g class="cls-4"><path class="cls-5" d="M54.68,314.94v-5l-1.13.85-1.32-1.23,2.76-2h1.84v7.42Z"/><path class="cls-5" d="M61.85,315.08c-2.13,0-3.6-1.15-3.6-3a2.62,2.62,0,0,1,1.37-2.38,2.24,2.24,0,0,1-1.14-2.05c0-1.65,1.45-2.7,3.41-2.7s3.35,1.08,3.35,2.73a2.27,2.27,0,0,1-1.1,2,2.55,2.55,0,0,1,1.33,2.33C65.47,313.92,64,315.08,61.85,315.08Zm.6-4.24a2.77,2.77,0,0,0-.92-.23l-.08,0a1.77,1.77,0,0,0-.65.41,1.38,1.38,0,0,0-.35,1,1.29,1.29,0,0,0,1.4,1.36,1.24,1.24,0,0,0,1.39-1.31A1.32,1.32,0,0,0,62.45,310.84Zm-.58-4.21a1.1,1.1,0,0,0-1.24,1.08c0,.73.76,1.14,1.43,1.21h.11a1.23,1.23,0,0,1,.23-.11,1.12,1.12,0,0,0,.73-1A1.17,1.17,0,0,0,61.87,306.63Z"/><path class="cls-5" d="M70.25,315.11a3.56,3.56,0,0,1-3.72-3.83,3.74,3.74,0,1,1,3.72,3.83Zm0-6c-1.2,0-1.56,1.25-1.56,2.23s.38,2.16,1.56,2.16,1.55-1.15,1.55-2.16S71.5,309.07,70.27,309.07Z"/><path class="cls-5" d="M76,317.49a6.28,6.28,0,0,1-.75,0v-1.67c1.44,0,4.24-.4,4.24-2.32a1.28,1.28,0,0,0-1.32-1.26,2.24,2.24,0,0,0-1.61.89l-1.33-.83.35-4.65h5.87v1.81h-4l-.1,1.47a3,3,0,0,1,1.36-.26,2.79,2.79,0,0,1,3,2.71C81.74,316.37,78.59,317.49,76,317.49Z"/></g><line class="cls-6" x1="126" y1="296" x2="126" y2="302"/><g class="cls-4"><path class="cls-5" d="M112.68,314.94v-5l-1.13.85-1.32-1.23,2.76-2h1.84v7.42Z"/><path class="cls-5" d="M119.85,315.08c-2.13,0-3.6-1.15-3.6-3a2.62,2.62,0,0,1,1.37-2.38,2.24,2.24,0,0,1-1.14-2.05c0-1.65,1.45-2.7,3.41-2.7s3.35,1.08,3.35,2.73a2.27,2.27,0,0,1-1.1,2,2.55,2.55,0,0,1,1.33,2.33C123.47,313.92,122,315.08,119.85,315.08Zm.6-4.24a2.77,2.77,0,0,0-.92-.23l-.08,0a1.77,1.77,0,0,0-.65.41,1.38,1.38,0,0,0-.35,1,1.29,1.29,0,0,0,1.4,1.36,1.24,1.24,0,0,0,1.39-1.31A1.32,1.32,0,0,0,120.45,310.84Zm-.58-4.21a1.1,1.1,0,0,0-1.24,1.08c0,.73.76,1.14,1.43,1.21h.11a1.23,1.23,0,0,1,.23-.11,1.12,1.12,0,0,0,.73-1A1.17,1.17,0,0,0,119.87,306.63Z"/><path class="cls-5" d="M126.21,314.94v-5l-1.14.85-1.31-1.23,2.76-2h1.83v7.42Z"/><path class="cls-5" d="M135.6,316.59a4,4,0,0,1-2.79,1,4.26,4.26,0,0,1-2.94-1l1.26-1.33a2.64,2.64,0,0,0,1.71.59c1.49,0,1.72-1.26,1.78-2.47a3.42,3.42,0,0,1-2,.65,3,3,0,0,1-2.95-3.1,3.32,3.32,0,0,1,3.47-3.47,3.6,3.6,0,0,1,3,1.5,6.11,6.11,0,0,1,.75,3.39C136.9,313.78,136.76,315.53,135.6,316.59Zm-2.41-7.43c-.9,0-1.33.77-1.33,1.59s.43,1.64,1.4,1.64a2,2,0,0,0,1.43-.8c0-.14,0-.26,0-.4C134.72,310.25,134.28,309.16,133.19,309.16Z"/></g><line class="cls-6" x1="184" y1="296" x2="184" y2="302"/><g class="cls-4"><path class="cls-5" d="M170.68,314.94v-5l-1.13.85-1.32-1.23,2.76-2h1.84v7.42Z"/><path class="cls-5" d="M177.85,315.08c-2.13,0-3.6-1.15-3.6-3a2.62,2.62,0,0,1,1.37-2.38,2.24,2.24,0,0,1-1.14-2.05c0-1.65,1.45-2.7,3.41-2.7s3.35,1.08,3.35,2.73a2.27,2.27,0,0,1-1.1,2,2.55,2.55,0,0,1,1.33,2.33C181.47,313.92,180,315.08,177.85,315.08Zm.6-4.24a2.77,2.77,0,0,0-.92-.23l-.08,0a1.77,1.77,0,0,0-.65.41,1.38,1.38,0,0,0-.35,1,1.29,1.29,0,0,0,1.4,1.36,1.24,1.24,0,0,0,1.39-1.31A1.32,1.32,0,0,0,178.45,310.84Zm-.58-4.21a1.1,1.1,0,0,0-1.24,1.08c0,.73.76,1.14,1.43,1.21h.11a1.23,1.23,0,0,1,.23-.11,1.12,1.12,0,0,0,.73-1A1.17,1.17,0,0,0,177.87,306.63Z"/><path class="cls-5" d="M188.69,314.94v2.58h-2.17v-2.58h-4.44l0-1.46,4.4-6h2.24l0,5.71H190v1.71Zm-4.41-1.71h2.21l0-3.07Z"/><path class="cls-5" d="M190.68,314.94v-1.36c1.08-1.05,2.2-2.06,3.25-3.14a1.3,1.3,0,0,0,.48-.78c0-.43-.52-.56-.86-.56a2.75,2.75,0,0,0-1.73.91l-1.18-1.37a4,4,0,0,1,3-1.26,3.41,3.41,0,0,1,2,.58,2.25,2.25,0,0,1,.91,1.73,2.89,2.89,0,0,1-1.12,2l-1.55,1.5h2.74v1.72Z"/></g><line class="cls-6" x1="242" y1="296" x2="242" y2="302"/><g class="cls-4"><path class="cls-5" d="M228.68,314.94v-5l-1.13.85-1.32-1.23,2.76-2h1.84v7.42Z"/><path class="cls-5" d="M235.85,315.08c-2.13,0-3.6-1.15-3.6-3a2.62,2.62,0,0,1,1.37-2.38,2.24,2.24,0,0,1-1.14-2.05c0-1.65,1.45-2.7,3.41-2.7s3.35,1.08,3.35,2.73a2.27,2.27,0,0,1-1.1,2,2.55,2.55,0,0,1,1.33,2.33C239.47,313.92,238,315.08,235.85,315.08Zm.6-4.24a2.77,2.77,0,0,0-.92-.23l-.08,0a1.77,1.77,0,0,0-.65.41,1.38,1.38,0,0,0-.35,1,1.29,1.29,0,0,0,1.4,1.36,1.24,1.24,0,0,0,1.39-1.31A1.32,1.32,0,0,0,236.45,310.84Zm-.58-4.21a1.1,1.1,0,0,0-1.24,1.08c0,.73.76,1.14,1.43,1.21h.11a1.23,1.23,0,0,1,.23-.11,1.12,1.12,0,0,0,.73-1A1.17,1.17,0,0,0,235.87,306.63Z"/><path class="cls-5" d="M241.35,317.49a6.28,6.28,0,0,1-.75,0v-1.67c1.44,0,4.24-.4,4.24-2.32a1.28,1.28,0,0,0-1.32-1.26,2.24,2.24,0,0,0-1.61.89l-1.33-.83.35-4.65h5.87v1.81h-4l-.1,1.47a3,3,0,0,1,1.36-.26,2.79,2.79,0,0,1,3,2.71C247.05,316.37,243.9,317.49,241.35,317.49Z"/><path class="cls-5" d="M254.45,314.94v2.58h-2.18v-2.58h-4.44v-1.46l4.4-6h2.24l0,5.71h1.29v1.71ZM250,313.23h2.22l0-3.07Z"/></g><line class="cls-6" x1="300" y1="296" x2="300" y2="302"/><g class="cls-4"><path class="cls-5" d="M286.68,314.94v-5l-1.13.85-1.32-1.23,2.76-2h1.84v7.42Z"/><path class="cls-5" d="M293.85,315.08c-2.13,0-3.6-1.15-3.6-3a2.62,2.62,0,0,1,1.37-2.38,2.24,2.24,0,0,1-1.14-2.05c0-1.65,1.45-2.7,3.41-2.7s3.35,1.08,3.35,2.73a2.27,2.27,0,0,1-1.1,2,2.55,2.55,0,0,1,1.33,2.33C297.47,313.92,296,315.08,293.85,315.08Zm.6-4.24a2.77,2.77,0,0,0-.92-.23l-.08,0a1.77,1.77,0,0,0-.65.41,1.38,1.38,0,0,0-.35,1,1.29,1.29,0,0,0,1.4,1.36,1.24,1.24,0,0,0,1.39-1.31A1.32,1.32,0,0,0,294.45,310.84Zm-.58-4.21a1.1,1.1,0,0,0-1.24,1.08c0,.73.76,1.14,1.43,1.21h.11a1.23,1.23,0,0,1,.23-.11,1.12,1.12,0,0,0,.73-1A1.17,1.17,0,0,0,293.87,306.63Z"/><path class="cls-5" d="M299.35,317.49a6.28,6.28,0,0,1-.75,0v-1.67c1.44,0,4.24-.4,4.24-2.32a1.28,1.28,0,0,0-1.32-1.26,2.24,2.24,0,0,0-1.61.89l-1.33-.83.35-4.65h5.87v1.81h-4l-.1,1.47a3,3,0,0,1,1.36-.26,2.79,2.79,0,0,1,3,2.71C305.05,316.37,301.9,317.49,299.35,317.49Z"/><path class="cls-5" d="M308.44,317.55h-2.37l3.71-8.14H305.5v-1.81h6.71V309Z"/></g><line class="cls-6" x1="358" y1="296" x2="358" y2="302"/><g class="cls-4"><path class="cls-5" d="M344.68,314.94v-5l-1.13.85-1.32-1.23,2.76-2h1.84v7.42Z"/><path class="cls-5" d="M351.85,315.08c-2.13,0-3.6-1.15-3.6-3a2.62,2.62,0,0,1,1.37-2.38,2.24,2.24,0,0,1-1.14-2.05c0-1.65,1.45-2.7,3.41-2.7s3.35,1.08,3.35,2.73a2.27,2.27,0,0,1-1.1,2,2.55,2.55,0,0,1,1.33,2.33C355.47,313.92,354,315.08,351.85,315.08Zm.61-4.24a2.89,2.89,0,0,0-.93-.23l-.08,0a1.77,1.77,0,0,0-.65.41,1.38,1.38,0,0,0-.35,1,1.29,1.29,0,0,0,1.4,1.36,1.24,1.24,0,0,0,1.39-1.31A1.33,1.33,0,0,0,352.46,310.84Zm-.59-4.21a1.1,1.1,0,0,0-1.24,1.08c0,.73.76,1.14,1.43,1.21h.11a1.23,1.23,0,0,1,.23-.11,1.12,1.12,0,0,0,.73-1A1.17,1.17,0,0,0,351.87,306.63Z"/><path class="cls-5" d="M357.35,317.49a6.28,6.28,0,0,1-.75,0v-1.67c1.44,0,4.24-.4,4.24-2.32a1.28,1.28,0,0,0-1.32-1.26,2.24,2.24,0,0,0-1.61.89l-1.33-.83.35-4.65h5.87v1.81h-4l-.1,1.47a3,3,0,0,1,1.36-.26,2.79,2.79,0,0,1,3,2.71C363.05,316.37,359.9,317.49,357.35,317.49Z"/><path class="cls-5" d="M367.62,315.08c-2.13,0-3.6-1.15-3.6-3a2.62,2.62,0,0,1,1.37-2.38,2.23,2.23,0,0,1-1.15-2.05c0-1.65,1.46-2.7,3.42-2.7s3.35,1.08,3.35,2.73a2.25,2.25,0,0,1-1.11,2,2.55,2.55,0,0,1,1.33,2.33C371.23,313.92,369.76,315.08,367.62,315.08Zm.6-4.24a2.89,2.89,0,0,0-.93-.23l-.08,0a1.77,1.77,0,0,0-.65.41,1.38,1.38,0,0,0-.35,1,1.3,1.3,0,0,0,1.41,1.36,1.23,1.23,0,0,0,1.38-1.31A1.33,1.33,0,0,0,368.22,310.84Zm-.59-4.21a1.09,1.09,0,0,0-1.23,1.08c0,.73.75,1.14,1.43,1.21h.11l.22-.11a1.12,1.12,0,0,0,.73-1A1.17,1.17,0,0,0,367.63,306.63Z"/></g><line class="cls-6" x1="416" y1="296" x2="416" y2="302"/><g class="cls-4"><path class="cls-5" d="M402.68,314.94v-5l-1.13.85-1.32-1.23,2.76-2h1.84v7.42Z"/><path class="cls-5" d="M409.85,315.08c-2.13,0-3.6-1.15-3.6-3a2.62,2.62,0,0,1,1.37-2.38,2.24,2.24,0,0,1-1.14-2.05c0-1.65,1.45-2.7,3.41-2.7s3.35,1.08,3.35,2.73a2.27,2.27,0,0,1-1.1,2,2.55,2.55,0,0,1,1.33,2.33C413.47,313.92,412,315.08,409.85,315.08Zm.61-4.24a2.89,2.89,0,0,0-.93-.23l-.08,0a1.77,1.77,0,0,0-.65.41,1.38,1.38,0,0,0-.35,1,1.29,1.29,0,0,0,1.4,1.36,1.24,1.24,0,0,0,1.39-1.31A1.33,1.33,0,0,0,410.46,310.84Zm-.59-4.21a1.1,1.1,0,0,0-1.24,1.08c0,.73.76,1.14,1.43,1.21h.11a1.23,1.23,0,0,1,.23-.11,1.12,1.12,0,0,0,.73-1A1.17,1.17,0,0,0,409.87,306.63Z"/><path class="cls-5" d="M420.3,314.56a3.51,3.51,0,0,1-2.09.59,3.44,3.44,0,0,1-2.73-1.26,5.62,5.62,0,0,1-.9-3.5,7.76,7.76,0,0,1,.74-3.6,3.91,3.91,0,0,1,3.47-1.81,5.06,5.06,0,0,1,2.73.72l-1.25,1.35a3.12,3.12,0,0,0-1.5-.35c-1.41,0-1.82,1.32-1.85,2.5a2.78,2.78,0,0,1,1.88-.61,3.16,3.16,0,0,1,2.11.9,3.12,3.12,0,0,1,.89,2.19A3.5,3.5,0,0,1,420.3,314.56Zm-2.09-4.38a2,2,0,0,0-1.4.77v.15c0,.93.21,2.33,1.4,2.33,1,0,1.4-.83,1.4-1.68A1.44,1.44,0,0,0,418.21,310.18Z"/><path class="cls-5" d="M423.57,317.49a6.45,6.45,0,0,1-.76,0v-1.67c1.45,0,4.25-.4,4.25-2.32a1.28,1.28,0,0,0-1.32-1.26,2.22,2.22,0,0,0-1.61.89l-1.33-.83.35-4.65H429v1.81h-4l-.1,1.47a3,3,0,0,1,1.36-.26,2.79,2.79,0,0,1,3,2.71C429.27,316.37,426.12,317.49,423.57,317.49Z"/></g><line class="cls-6" x1="474" y1="296" x2="474" y2="302"/><g class="cls-4"><path class="cls-5" d="M460.68,314.94v-5l-1.13.85-1.32-1.23,2.76-2h1.84v7.42Z"/><path class="cls-5" d="M467.85,315.08c-2.13,0-3.6-1.15-3.6-3a2.62,2.62,0,0,1,1.37-2.38,2.24,2.24,0,0,1-1.14-2.05c0-1.65,1.45-2.7,3.41-2.7s3.35,1.08,3.35,2.73a2.27,2.27,0,0,1-1.1,2,2.55,2.55,0,0,1,1.33,2.33C471.47,313.92,470,315.08,467.85,315.08Zm.61-4.24a2.89,2.89,0,0,0-.93-.23l-.08,0a1.77,1.77,0,0,0-.65.41,1.38,1.38,0,0,0-.35,1,1.29,1.29,0,0,0,1.4,1.36,1.24,1.24,0,0,0,1.39-1.31A1.33,1.33,0,0,0,468.46,310.84Zm-.59-4.21a1.1,1.1,0,0,0-1.24,1.08c0,.73.76,1.14,1.43,1.21h.11a1.23,1.23,0,0,1,.23-.11,1.12,1.12,0,0,0,.73-1A1.17,1.17,0,0,0,467.87,306.63Z"/><path class="cls-5" d="M478.3,314.56a3.51,3.51,0,0,1-2.09.59,3.44,3.44,0,0,1-2.73-1.26,5.62,5.62,0,0,1-.9-3.5,7.76,7.76,0,0,1,.74-3.6,3.91,3.91,0,0,1,3.47-1.81,5.06,5.06,0,0,1,2.73.72l-1.25,1.35a3.12,3.12,0,0,0-1.5-.35c-1.41,0-1.82,1.32-1.85,2.5a2.78,2.78,0,0,1,1.88-.61,3.16,3.16,0,0,1,2.11.9,3.12,3.12,0,0,1,.89,2.19A3.5,3.5,0,0,1,478.3,314.56Zm-2.09-4.38a2,2,0,0,0-1.4.77v.15c0,.93.21,2.33,1.4,2.33,1,0,1.4-.83,1.4-1.68A1.44,1.44,0,0,0,476.21,310.18Z"/><path class="cls-5" d="M482.76,317.55h-2.37l3.72-8.14h-4.29v-1.81h6.71V309Z"/></g><line class="cls-6" x1="532" y1="296" x2="532" y2="302"/><g class="cls-4"><path class="cls-5" d="M518.68,314.94v-5l-1.13.85-1.32-1.23,2.76-2h1.84v7.42Z"/><path class="cls-5" d="M525.85,315.08c-2.13,0-3.6-1.15-3.6-3a2.62,2.62,0,0,1,1.37-2.38,2.24,2.24,0,0,1-1.14-2.05c0-1.65,1.45-2.7,3.41-2.7s3.35,1.08,3.35,2.73a2.27,2.27,0,0,1-1.1,2,2.55,2.55,0,0,1,1.33,2.33C529.47,313.92,528,315.08,525.85,315.08Zm.61-4.24a2.89,2.89,0,0,0-.93-.23l-.08,0a1.77,1.77,0,0,0-.65.41,1.38,1.38,0,0,0-.35,1,1.29,1.29,0,0,0,1.4,1.36,1.24,1.24,0,0,0,1.39-1.31A1.33,1.33,0,0,0,526.46,310.84Zm-.59-4.21a1.1,1.1,0,0,0-1.24,1.08c0,.73.76,1.14,1.43,1.21h.11a1.23,1.23,0,0,1,.23-.11,1.12,1.12,0,0,0,.73-1A1.17,1.17,0,0,0,525.87,306.63Z"/><path class="cls-5" d="M534,315.08c-2.13,0-3.6-1.15-3.6-3a2.62,2.62,0,0,1,1.37-2.38,2.24,2.24,0,0,1-1.14-2.05c0-1.65,1.45-2.7,3.41-2.7s3.35,1.08,3.35,2.73a2.27,2.27,0,0,1-1.1,2,2.55,2.55,0,0,1,1.33,2.33C537.66,313.92,536.19,315.08,534,315.08Zm.6-4.24a2.77,2.77,0,0,0-.92-.23l-.08,0a1.77,1.77,0,0,0-.65.41,1.38,1.38,0,0,0-.35,1,1.29,1.29,0,0,0,1.4,1.36,1.24,1.24,0,0,0,1.39-1.31A1.32,1.32,0,0,0,534.64,310.84Zm-.58-4.21a1.1,1.1,0,0,0-1.24,1.08c0,.73.76,1.14,1.43,1.21h.12a.9.9,0,0,1,.22-.11,1.12,1.12,0,0,0,.73-1A1.17,1.17,0,0,0,534.06,306.63Z"/><path class="cls-5" d="M540.4,314.94v-5l-1.14.85L538,309.56l2.76-2h1.83v7.42Z"/></g><line class="cls-6" x1="590" y1="296" x2="590" y2="302"/><g class="cls-4"><path class="cls-5" d="M566.26,314.94v-5l-1.14.85-1.32-1.23,2.76-2h1.84v7.42Z"/><path class="cls-5" d="M573.42,315.08c-2.13,0-3.6-1.15-3.6-3a2.63,2.63,0,0,1,1.38-2.38,2.23,2.23,0,0,1-1.15-2.05c0-1.65,1.46-2.7,3.42-2.7s3.34,1.08,3.34,2.73a2.27,2.27,0,0,1-1.1,2,2.55,2.55,0,0,1,1.33,2.33C577,313.92,575.57,315.08,573.42,315.08Zm.61-4.24a2.89,2.89,0,0,0-.93-.23l-.08,0a1.77,1.77,0,0,0-.65.41,1.38,1.38,0,0,0-.35,1,1.29,1.29,0,0,0,1.4,1.36,1.24,1.24,0,0,0,1.39-1.31A1.33,1.33,0,0,0,574,310.84Zm-.59-4.21a1.09,1.09,0,0,0-1.23,1.08c0,.73.75,1.14,1.42,1.21h.12l.22-.11a1.12,1.12,0,0,0,.73-1A1.17,1.17,0,0,0,573.44,306.63Z"/><path class="cls-5" d="M584,316.59a4.06,4.06,0,0,1-2.79,1,4.26,4.26,0,0,1-2.94-1l1.26-1.33a2.62,2.62,0,0,0,1.71.59c1.48,0,1.72-1.26,1.78-2.47a3.47,3.47,0,0,1-2,.65,3,3,0,0,1-2.95-3.1,3.32,3.32,0,0,1,3.47-3.47,3.6,3.6,0,0,1,3,1.5,6.11,6.11,0,0,1,.75,3.39C585.31,313.78,585.17,315.53,584,316.59Zm-2.41-7.43c-.9,0-1.33.77-1.33,1.59s.43,1.64,1.4,1.64a2.05,2.05,0,0,0,1.43-.8c0-.14,0-.26,0-.4C583.13,310.25,582.69,309.16,581.6,309.16Z"/><path class="cls-5" d="M588.18,314.94v-5l-1.14.85-1.31-1.23,2.76-2h1.83v7.42Z"/></g><path class="cls-2" d="M10,302v-6H590v6"/></g><g id="seriesContainer"><path class="cls-7" d="M10,286.52l58-1.37,58,1.69,58-1.79,58-1.27,58,.21,58,1.27,58-9.91L474,268l58-105.43,58-133.9"/><circle class="cls-8" cx="10" cy="286.52" r="4"/><circle class="cls-8" cx="68" cy="285.15" r="4"/><circle class="cls-8" cx="126" cy="286.84" r="4"/><circle class="cls-8" cx="184" cy="285.05" r="4"/><circle class="cls-8" cx="242" cy="283.78" r="4"/><circle class="cls-8" cx="300" cy="283.99" r="4"/><circle class="cls-8" cx="358" cy="285.26" r="4"/><circle class="cls-8" cx="416" cy="275.35" r="4"/><circle class="cls-8" cx="474" cy="267.97" r="4"/><circle class="cls-8" cx="532" cy="162.54" r="4"/><circle class="cls-8" cx="590" cy="28.64" r="4"/></g><g id="metaInfo"><g class="cls-4"><path class="cls-9" d="M10.85,325.86V324h2.23v1.9ZM10.9,334v-7.27H13V334Z"/><path class="cls-9" d="M19.44,334v-4.79c0-.5,0-.84-.65-.84a3.2,3.2,0,0,0-1.84,1V334H14.77v-7.27h2.11l0,1a4.34,4.34,0,0,1,2.9-1.19,1.62,1.62,0,0,1,1.81,1.65V334Z"/><path class="cls-9" d="M33.71,334v-4.41l-1.91,3.32H30.2l-1.76-3.25V334H26.28v-7.3H29l2.07,3.87,2.09-3.87h2.72V334Z"/><path class="cls-9" d="M41.35,331.49l-1.61,0V334H37.57v-7.26h3.67a8,8,0,0,1,.85,0,2.29,2.29,0,0,1,2.2,2.35C44.29,330.88,42.9,331.48,41.35,331.49Zm-.14-3.22H39.74v1.64h1.47a.82.82,0,1,0,0-1.64Z"/><path class="cls-9" d="M50.53,334l0-2.9h-3V334H45.42v-7.3h2.17v2.59h3l0-2.59H52.7V334Z"/></g></g></svg>