<svg id="Layer_1" data-name="Layer 1" xmlns="http://www.w3.org/2000/svg" viewBox="0 0 403.78 115.41"><defs><style>.cls-1,.cls-2,.cls-3,.cls-4{fill:none;stroke:#000;stroke-width:2px;}.cls-1,.cls-2,.cls-3{stroke-linecap:round;stroke-linejoin:round;}.cls-1{stroke-dasharray:0 3.99;}.cls-3{stroke-dasharray:0 4;}</style></defs><title>long-tail</title><line class="cls-1" x1="15.59" y1="101" x2="400.79" y2="101"/><path class="cls-2" d="M402.78,101h0M11.6,101h0"/><line class="cls-3" x1="11.6" y1="5" x2="11.6" y2="99"/><path class="cls-2" d="M11.6,101h0m0-100h0"/><path class="cls-4" d="M11.6,5c8.51,108,33.07,89.2,391.18,90"/><path d="M14.68,109.92a1.5,1.5,0,0,1-.5,1.23,2.12,2.12,0,0,1-1.43.43h-.46v1.78H11.23v-5h1.6a2.14,2.14,0,0,1,1.38.39A1.41,1.41,0,0,1,14.68,109.92Zm-2.39.79h.35a1.14,1.14,0,0,0,.73-.19.68.68,0,0,0,.24-.56.66.66,0,0,0-.2-.55,1,1,0,0,0-.64-.18h-.48Z"/><path d="M19,111.44a2.09,2.09,0,0,1-.49,1.46,1.8,1.8,0,0,1-1.38.52,1.94,1.94,0,0,1-1-.24,1.59,1.59,0,0,1-.64-.69,2.32,2.32,0,0,1-.23-1A2.08,2.08,0,0,1,15.8,110a1.82,1.82,0,0,1,1.38-.52,1.94,1.94,0,0,1,1,.24,1.59,1.59,0,0,1,.64.69A2.32,2.32,0,0,1,19,111.44Zm-2.64,0a1.67,1.67,0,0,0,.18.86.69.69,0,0,0,.61.29.66.66,0,0,0,.6-.29,1.64,1.64,0,0,0,.18-.86,1.6,1.6,0,0,0-.18-.85.69.69,0,0,0-.61-.29.66.66,0,0,0-.6.29A1.58,1.58,0,0,0,16.38,111.44Z"/><path d="M22,113.42a1.29,1.29,0,0,1-1.06-.48h-.05c0,.31.05.5.05.55V115h-1v-5.5h.85l.14.49h.05a1.32,1.32,0,0,1,2.14,0,2.36,2.36,0,0,1,.39,1.45,2.83,2.83,0,0,1-.18,1.06,1.53,1.53,0,0,1-.51.69A1.28,1.28,0,0,1,22,113.42Zm-.31-3.12a.63.63,0,0,0-.56.24,1.37,1.37,0,0,0-.19.78v.11a1.61,1.61,0,0,0,.18.88.67.67,0,0,0,.58.27c.47,0,.7-.38.7-1.16a1.6,1.6,0,0,0-.17-.84A.57.57,0,0,0,21.67,110.3Z"/><path d="M27,113.36l-.14-.49h-.06a1.11,1.11,0,0,1-.47.41,1.59,1.59,0,0,1-.7.14,1.35,1.35,0,0,1-1-.36,1.42,1.42,0,0,1-.34-1v-2.49h1v2.23a1.07,1.07,0,0,0,.15.62.52.52,0,0,0,.47.2.69.69,0,0,0,.63-.29,1.81,1.81,0,0,0,.19-1v-1.79h1.05v3.82Z"/><path d="M30,113.36h-1V108h1Z"/><path d="M33.47,113.36l-.2-.52h0a1.51,1.51,0,0,1-.54.46,1.83,1.83,0,0,1-.72.12,1.17,1.17,0,0,1-.87-.31,1.22,1.22,0,0,1-.32-.9,1,1,0,0,1,.43-.89A2.37,2.37,0,0,1,32.5,111l.66,0v-.17a.51.51,0,0,0-.59-.58,2.66,2.66,0,0,0-1.08.28l-.34-.71a3.11,3.11,0,0,1,1.46-.34,1.84,1.84,0,0,1,1.18.33,1.24,1.24,0,0,1,.41,1v2.55Zm-2-4.81a.48.48,0,0,1,.13-.34.5.5,0,0,1,.35-.12.45.45,0,0,1,.35.13.43.43,0,0,1,.13.33.42.42,0,0,1-.13.33A.46.46,0,0,1,32,109a.5.5,0,0,1-.35-.12A.46.46,0,0,1,31.47,108.55Zm1.69,3h-.4a1.33,1.33,0,0,0-.68.16.54.54,0,0,0-.22.46c0,.3.17.44.51.44a.81.81,0,0,0,.58-.21.72.72,0,0,0,.21-.55Zm-.31-3a.44.44,0,0,1,.14-.35.55.55,0,0,1,.34-.11.48.48,0,0,1,.36.13.45.45,0,0,1,.13.33.46.46,0,0,1-.14.34.48.48,0,0,1-.35.12.55.55,0,0,1-.34-.11A.44.44,0,0,1,32.85,108.55Z"/><path d="M37.41,109.46a1.69,1.69,0,0,1,.35,0l-.08,1a1.35,1.35,0,0,0-.31,0,1.13,1.13,0,0,0-.78.25.94.94,0,0,0-.27.72v2h-1v-3.82h.79l.16.64h.05a1.42,1.42,0,0,1,.48-.52A1.19,1.19,0,0,1,37.41,109.46Z"/><path d="M40.18,113.42a2,2,0,0,1-1.44-.5,1.94,1.94,0,0,1-.52-1.45A2.11,2.11,0,0,1,38.7,110a1.94,1.94,0,0,1,2.59-.07,1.77,1.77,0,0,1,.45,1.28v.51H39.28a1,1,0,0,0,.26.69.9.9,0,0,0,.69.25,3.32,3.32,0,0,0,.65-.07,3.54,3.54,0,0,0,.64-.23v.81a2.64,2.64,0,0,1-.58.2A4.1,4.1,0,0,1,40.18,113.42ZM40,110.21a.64.64,0,0,0-.51.21.93.93,0,0,0-.22.59h1.46a.83.83,0,0,0-.2-.59A.68.68,0,0,0,40,110.21Z"/><path d="M44.49,108.36H46a3,3,0,0,1,1.55.3,1,1,0,0,1,.48,1,1.22,1.22,0,0,1-.21.74.81.81,0,0,1-.56.34v0a1.11,1.11,0,0,1,.68.39,1.33,1.33,0,0,1,.21.78A1.26,1.26,0,0,1,47.7,113a2.11,2.11,0,0,1-1.34.39H44.49Zm1.06,2h.61a1.23,1.23,0,0,0,.63-.13.51.51,0,0,0,.19-.45.45.45,0,0,0-.21-.41,1.4,1.4,0,0,0-.67-.12h-.55Zm0,.84v1.3h.69a.94.94,0,0,0,.64-.17.61.61,0,0,0,.21-.51c0-.41-.29-.62-.89-.62Z"/><path d="M51.82,113.36l-.14-.49h-.06a1.11,1.11,0,0,1-.47.41,1.59,1.59,0,0,1-.7.14,1.35,1.35,0,0,1-1-.36,1.42,1.42,0,0,1-.34-1v-2.49h1v2.23a1.07,1.07,0,0,0,.15.62.52.52,0,0,0,.47.2.69.69,0,0,0,.63-.29,1.81,1.81,0,0,0,.19-1v-1.79h1v3.82Zm-2.14-4.81a.47.47,0,0,1,.12-.34.51.51,0,0,1,.35-.12.48.48,0,0,1,.36.13.46.46,0,0,1,.12.33.42.42,0,0,1-.13.33.45.45,0,0,1-.35.13.51.51,0,0,1-.35-.12A.45.45,0,0,1,49.68,108.55Zm1.37,0a.44.44,0,0,1,.14-.35.58.58,0,0,1,.35-.11.48.48,0,0,1,.35.13.42.42,0,0,1,.13.33.45.45,0,0,1-.13.34.51.51,0,0,1-.35.12.58.58,0,0,1-.35-.11A.44.44,0,0,1,51.05,108.55Z"/><path d="M55.26,113.42c-1.19,0-1.78-.65-1.78-2A2.1,2.1,0,0,1,54,110a1.81,1.81,0,0,1,1.39-.52,2.67,2.67,0,0,1,1.19.26l-.3.81a4.27,4.27,0,0,0-.46-.16,1.55,1.55,0,0,0-.43-.07c-.54,0-.81.39-.81,1.16s.27,1.12.81,1.12a1.81,1.81,0,0,0,1.07-.33v.89a1.52,1.52,0,0,1-.51.22A2.93,2.93,0,0,1,55.26,113.42Z"/><path d="M60.84,113.36H59.79v-2.24c0-.55-.2-.82-.61-.82a.71.71,0,0,0-.63.29,1.82,1.82,0,0,0-.2,1v1.8h-1V108h1v1.08c0,.09,0,.28,0,.6l0,.3h.06a1.21,1.21,0,0,1,1.11-.56,1.33,1.33,0,0,1,1,.37,1.43,1.43,0,0,1,.35,1Z"/><path d="M63.64,113.42a2,2,0,0,1-1.44-.5,1.94,1.94,0,0,1-.52-1.45,2.11,2.11,0,0,1,.48-1.48,1.94,1.94,0,0,1,2.59-.07,1.77,1.77,0,0,1,.45,1.28v.51H62.73a1,1,0,0,0,.27.69.9.9,0,0,0,.69.25,3.41,3.41,0,0,0,.65-.07,3.83,3.83,0,0,0,.64-.23v.81a2.64,2.64,0,0,1-.58.2A4.1,4.1,0,0,1,63.64,113.42Zm-.15-3.21a.67.67,0,0,0-.52.21,1,1,0,0,0-.21.59h1.46a.83.83,0,0,0-.2-.59A.69.69,0,0,0,63.49,110.21Z"/><path d="M68.18,109.46a1.69,1.69,0,0,1,.35,0l-.08,1a1.35,1.35,0,0,0-.31,0,1.08,1.08,0,0,0-.77.25.91.91,0,0,0-.28.72v2h-1v-3.82h.78l.16.64H67a1.42,1.42,0,0,1,.48-.52A1.19,1.19,0,0,1,68.18,109.46Z"/><path d="M38.7,60.36h1.07l-1.69,5H36.92l-1.7-5h1.07l.94,3c.06.18.11.38.17.62s.09.39.1.48a9.37,9.37,0,0,1,.26-1.1Z"/><path d="M42.05,65.42a2,2,0,0,1-1.44-.5,1.94,1.94,0,0,1-.52-1.45A2.11,2.11,0,0,1,40.57,62a1.94,1.94,0,0,1,2.59-.07,1.77,1.77,0,0,1,.45,1.28v.51H41.14a1,1,0,0,0,.27.69.9.9,0,0,0,.69.25,3.32,3.32,0,0,0,.65-.07,3.54,3.54,0,0,0,.64-.23v.81a2.64,2.64,0,0,1-.58.2A4.1,4.1,0,0,1,42.05,65.42Zm-.15-3.21a.67.67,0,0,0-.52.21,1,1,0,0,0-.21.59h1.46a.83.83,0,0,0-.2-.59A.69.69,0,0,0,41.9,62.21Z"/><path d="M46.59,61.46a1.69,1.69,0,0,1,.35,0l-.08,1a1.26,1.26,0,0,0-.3,0,1.09,1.09,0,0,0-.78.25.91.91,0,0,0-.28.72v2h-1V61.54h.79l.15.64h.05a1.42,1.42,0,0,1,.48-.52A1.19,1.19,0,0,1,46.59,61.46Z"/><path d="M48.64,63.28l.45-.58,1.07-1.16h1.18l-1.52,1.65,1.61,2.17h-1.2l-1.1-1.55-.45.36v1.19h-1V60h1v2.37l-.06.87Z"/><path d="M54.4,65.36l-.2-.52h0a1.51,1.51,0,0,1-.54.46,1.83,1.83,0,0,1-.72.12,1.17,1.17,0,0,1-.87-.31,1.22,1.22,0,0,1-.32-.9,1,1,0,0,1,.43-.89A2.37,2.37,0,0,1,53.43,63l.67,0v-.17c0-.39-.2-.58-.6-.58a2.69,2.69,0,0,0-1.08.28l-.34-.71a3.11,3.11,0,0,1,1.46-.34,1.84,1.84,0,0,1,1.18.33,1.24,1.24,0,0,1,.41,1v2.55Zm-.3-1.77h-.41a1.27,1.27,0,0,0-.67.16.53.53,0,0,0-.23.46c0,.3.17.44.51.44a.81.81,0,0,0,.58-.21.73.73,0,0,0,.22-.55Z"/><path d="M58.91,65.36l-.14-.49h-.05a1.14,1.14,0,0,1-.48.41,1.56,1.56,0,0,1-.7.14,1.31,1.31,0,0,1-1-.36,1.43,1.43,0,0,1-.35-1V61.54h1v2.23a1.08,1.08,0,0,0,.14.62.54.54,0,0,0,.47.2.69.69,0,0,0,.63-.29,1.8,1.8,0,0,0,.2-1V61.54h1v3.82Z"/><path d="M62.92,62.32H62v3H61v-3H60.4v-.5l.57-.28v-.29a1.27,1.27,0,0,1,.32-1,1.49,1.49,0,0,1,1-.3,2.61,2.61,0,0,1,1,.16l-.26.77a1.86,1.86,0,0,0-.58-.1.39.39,0,0,0-.33.13.6.6,0,0,0-.1.34v.24h.91Z"/><path d="M66.17,65.36h-3v-.62l1.77-2.41H63.26v-.79h2.85v.67l-1.72,2.35h1.78Z"/><path d="M69.36,65.36l-.21-.52h0a1.7,1.7,0,0,1-.54.46,1.89,1.89,0,0,1-.73.12,1.17,1.17,0,0,1-.87-.31,1.22,1.22,0,0,1-.31-.9,1,1,0,0,1,.42-.89A2.41,2.41,0,0,1,68.39,63l.66,0v-.17c0-.39-.2-.58-.6-.58a2.62,2.62,0,0,0-1.07.28L67,61.8a3.12,3.12,0,0,1,1.47-.34,1.81,1.81,0,0,1,1.17.33,1.21,1.21,0,0,1,.41,1v2.55Zm-.31-1.77h-.4a1.31,1.31,0,0,0-.68.16.52.52,0,0,0-.22.46c0,.3.17.44.5.44a.79.79,0,0,0,.58-.21.69.69,0,0,0,.22-.55Z"/><path d="M74.69,65.36h-1V63.12c0-.55-.2-.82-.61-.82a.7.7,0,0,0-.63.29,1.82,1.82,0,0,0-.2,1v1.8h-1V60h1v1.08c0,.09,0,.28,0,.6l0,.3h.06a1.21,1.21,0,0,1,1.1-.56,1.35,1.35,0,0,1,1,.37,1.43,1.43,0,0,1,.35,1Z"/><path d="M76.8,65.36h-1V60h1Z"/><path d="M79.62,65.42a2,2,0,0,1-1.44-.5,2,2,0,0,1-.52-1.45A2.11,2.11,0,0,1,78.14,62a1.94,1.94,0,0,1,2.59-.07,1.77,1.77,0,0,1,.45,1.28v.51H78.72a1,1,0,0,0,.26.69.93.93,0,0,0,.69.25,3.32,3.32,0,0,0,.65-.07,3.92,3.92,0,0,0,.65-.23v.81a2.73,2.73,0,0,1-.59.2A4,4,0,0,1,79.62,65.42Zm-.14-3.21a.66.66,0,0,0-.52.21.93.93,0,0,0-.22.59h1.47a.88.88,0,0,0-.21-.59A.67.67,0,0,0,79.48,62.21Z"/><path d="M85.56,65.36h-1V63.12a1.07,1.07,0,0,0-.15-.62.56.56,0,0,0-.47-.2.69.69,0,0,0-.63.29,1.8,1.8,0,0,0-.2,1v1.8H82V61.54h.8L83,62h0a1.13,1.13,0,0,1,.48-.41,1.6,1.6,0,0,1,.7-.15,1.32,1.32,0,0,1,1,.36,1.45,1.45,0,0,1,.35,1Z"/><path d="M6,93.1l-1.19.36v1.82L6,95.65v1.14L1,95V93.73L6,92Zm-2.08.61-1.83.57-.33.09c.29.08,1,.29,2.16.65Z"/><path d="M6,87.88v1.05H3.77a1,1,0,0,0-.62.14.54.54,0,0,0-.21.47.71.71,0,0,0,.29.63,1.82,1.82,0,0,0,1,.2H6v1H2.18v-.79l.49-.15v0a1.08,1.08,0,0,1-.42-.48,1.59,1.59,0,0,1-.14-.7,1.34,1.34,0,0,1,.36-1,1.44,1.44,0,0,1,1-.35Z"/><path d="M6,84.15v3H5.38L3,85.4v1.66H2.18V84.21h.67L5.2,85.94V84.15Z"/><path d="M6,81l-.52.2v0a1.51,1.51,0,0,1,.46.54,1.87,1.87,0,0,1,.13.73,1.17,1.17,0,0,1-.32.86,1.21,1.21,0,0,1-.89.32,1,1,0,0,1-.9-.43,2.47,2.47,0,0,1-.32-1.28l0-.66H3.45a.51.51,0,0,0-.58.59A2.62,2.62,0,0,0,3.15,83l-.71.34a3.08,3.08,0,0,1-.34-1.46,1.84,1.84,0,0,1,.33-1.18,1.27,1.27,0,0,1,1-.41H6Zm-1.77.31v.4a1.23,1.23,0,0,0,.17.68.52.52,0,0,0,.45.22c.3,0,.44-.17.44-.51a.85.85,0,0,0-.2-.58.76.76,0,0,0-.56-.21Z"/><path d="M6,75.64v1H3.77c-.56,0-.83.21-.83.62a.7.7,0,0,0,.3.63,1.8,1.8,0,0,0,1,.19H6v1H.68v-1H1.76l.6,0,.31,0v0A1.19,1.19,0,0,1,2.11,77a1.35,1.35,0,0,1,.36-1,1.44,1.44,0,0,1,1-.35Z"/><path d="M6,73.53v1H.68v-1Z"/><path d="M1,67.68V66.61l5,1.7v1.15l-5,1.7V70.09l3-.94c.18-.05.38-.11.62-.16l.49-.11A8.78,8.78,0,0,1,4,68.63Z"/><path d="M6.07,64.33a2,2,0,0,1-.51,1.45,2,2,0,0,1-1.44.52,2.12,2.12,0,0,1-1.49-.48,1.72,1.72,0,0,1-.52-1.33,1.67,1.67,0,0,1,.46-1.26,1.73,1.73,0,0,1,1.27-.45h.51v2.46A1,1,0,0,0,5,65a.93.93,0,0,0,.25-.69,2.84,2.84,0,0,0-.07-.66A3.83,3.83,0,0,0,5,63H5.8a2.28,2.28,0,0,1,.2.59A3.91,3.91,0,0,1,6.07,64.33Zm-3.22.15a.66.66,0,0,0,.21.52,1,1,0,0,0,.59.22V63.75a.85.85,0,0,0-.59.21A.66.66,0,0,0,2.85,64.48Z"/><path d="M2.11,59.79a1.75,1.75,0,0,1,0-.35l1,.08a1.42,1.42,0,0,0,0,.31,1.08,1.08,0,0,0,.26.78.93.93,0,0,0,.71.27H6v1H2.18v-.79L2.82,61v0a1.5,1.5,0,0,1-.52-.48A1.18,1.18,0,0,1,2.11,59.79Z"/><path d="M3.92,57.75l-.58-.46L2.18,56.22V55.05l1.65,1.51L6,55v1.2l-1.55,1.1.36.45H6v1H.68v-1H3.05l.87,0Z"/><path d="M1.2,52.6a.4.4,0,0,1-.35-.14.49.49,0,0,1-.12-.34.5.5,0,0,1,.13-.35.42.42,0,0,1,.34-.13.43.43,0,0,1,.33.13.51.51,0,0,1,.12.35.53.53,0,0,1-.11.34A.4.4,0,0,1,1.2,52.6ZM1.2,54a.45.45,0,0,1-.35-.13.47.47,0,0,1-.12-.34.53.53,0,0,1,.13-.36A.49.49,0,0,1,1.2,53a.49.49,0,0,1,.33.13.52.52,0,0,1,.12.36.47.47,0,0,1-.12.34A.42.42,0,0,1,1.2,54ZM6,52l-.52.2v0a1.7,1.7,0,0,1,.46.54,1.87,1.87,0,0,1,.13.73,1.15,1.15,0,0,1-.32.86,1.17,1.17,0,0,1-.89.32,1,1,0,0,1-.9-.42A2.54,2.54,0,0,1,3.64,53l0-.66H3.45a.52.52,0,0,0-.58.59A2.62,2.62,0,0,0,3.15,54l-.71.35a3.12,3.12,0,0,1-.34-1.47,1.86,1.86,0,0,1,.33-1.18,1.27,1.27,0,0,1,1-.41H6Zm-1.77.31v.4a1.21,1.21,0,0,0,.17.68.5.5,0,0,0,.45.22c.3,0,.44-.17.44-.5a.82.82,0,0,0-.2-.58.73.73,0,0,0-.56-.22Z"/><path d="M6,47.47l-.49.14v.06a1.11,1.11,0,0,1,.41.47,1.6,1.6,0,0,1,.15.7,1.35,1.35,0,0,1-.36,1,1.45,1.45,0,0,1-1,.34H2.18v-1H4.41A1.07,1.07,0,0,0,5,49a.53.53,0,0,0,.21-.47.7.7,0,0,0-.3-.63,1.79,1.79,0,0,0-1-.19H2.18v-1H6Z"/><path d="M3,43.47v.9H6v1H3V46h-.5l-.28-.58H1.9a1.24,1.24,0,0,1-1-.32,1.47,1.47,0,0,1-.3-1,2.84,2.84,0,0,1,.16-1l.77.27a1.81,1.81,0,0,0-.1.58.37.37,0,0,0,.13.32.53.53,0,0,0,.34.1h.24v-.9Z"/><path d="M6.07,41.14a2,2,0,0,1-.51,1.44,1.91,1.91,0,0,1-1.44.52,2.12,2.12,0,0,1-1.49-.48,1.7,1.7,0,0,1-.52-1.33A1.67,1.67,0,0,1,2.57,40a1.73,1.73,0,0,1,1.27-.45h.51v2.47A1,1,0,0,0,5,41.78a.9.9,0,0,0,.25-.69,2.7,2.7,0,0,0-.07-.65A3.54,3.54,0,0,0,5,39.8H5.8a2.21,2.21,0,0,1,.2.58A4,4,0,0,1,6.07,41.14Zm-3.22.15a.67.67,0,0,0,.21.52,1,1,0,0,0,.59.21V40.56a.84.84,0,0,0-.59.2A.69.69,0,0,0,2.85,41.29Z"/><path d="M309.58,108.36h1.56a3,3,0,0,1,1.54.3,1,1,0,0,1,.48,1,1.22,1.22,0,0,1-.21.74.81.81,0,0,1-.56.34v0a1.11,1.11,0,0,1,.69.39,1.33,1.33,0,0,1,.21.78,1.26,1.26,0,0,1-.5,1.06,2.1,2.1,0,0,1-1.34.39h-1.87Zm1.06,2h.62a1.22,1.22,0,0,0,.62-.13.51.51,0,0,0,.19-.45.45.45,0,0,0-.21-.41,1.38,1.38,0,0,0-.66-.12h-.56Zm0,.84v1.3h.69a1,1,0,0,0,.65-.17.61.61,0,0,0,.21-.51c0-.41-.3-.62-.89-.62Z"/><path d="M316.91,113.36l-.14-.49h0a1.14,1.14,0,0,1-.48.41,1.56,1.56,0,0,1-.7.14,1.35,1.35,0,0,1-1-.36,1.47,1.47,0,0,1-.34-1v-2.49h1.05v2.23a1.08,1.08,0,0,0,.14.62.54.54,0,0,0,.47.2.69.69,0,0,0,.63-.29,1.8,1.8,0,0,0,.2-1v-1.79h1v3.82Zm-2.14-4.81a.44.44,0,0,1,.13-.34.48.48,0,0,1,.35-.12.46.46,0,0,1,.35.13.43.43,0,0,1,.13.33.42.42,0,0,1-.13.33.55.55,0,0,1-.7,0A.42.42,0,0,1,314.77,108.55Zm1.38,0a.41.41,0,0,1,.14-.35.53.53,0,0,1,.34-.11.45.45,0,0,1,.35.13.42.42,0,0,1,.14.33.46.46,0,0,1-.14.34.5.5,0,0,1-.35.12.53.53,0,0,1-.34-.11A.41.41,0,0,1,316.15,108.55Z"/><path d="M320.36,113.42c-1.19,0-1.79-.65-1.79-2a2.06,2.06,0,0,1,.49-1.49,1.78,1.78,0,0,1,1.39-.52,2.7,2.7,0,0,1,1.19.26l-.31.81a3.63,3.63,0,0,0-.46-.16,1.54,1.54,0,0,0-.42-.07c-.54,0-.82.39-.82,1.16s.28,1.12.82,1.12a2,2,0,0,0,.56-.08,2,2,0,0,0,.51-.25v.89a1.61,1.61,0,0,1-.51.22A2.93,2.93,0,0,1,320.36,113.42Z"/><path d="M325.93,113.36h-1v-2.24c0-.55-.21-.82-.62-.82a.71.71,0,0,0-.63.29,1.84,1.84,0,0,0-.19,1v1.8H322.4V108h1.05v1.08c0,.09,0,.28,0,.6l0,.3h.05a1.22,1.22,0,0,1,1.11-.56,1.32,1.32,0,0,1,1,.37,1.43,1.43,0,0,1,.35,1Z"/><path d="M328.73,113.42a2,2,0,0,1-1.44-.5,1.94,1.94,0,0,1-.52-1.45,2.11,2.11,0,0,1,.48-1.48,1.94,1.94,0,0,1,2.59-.07,1.77,1.77,0,0,1,.45,1.28v.51h-2.46a1,1,0,0,0,.26.69.91.91,0,0,0,.69.25,3.32,3.32,0,0,0,.65-.07,3.92,3.92,0,0,0,.65-.23v.81a2.93,2.93,0,0,1-.59.2A4.1,4.1,0,0,1,328.73,113.42Zm-.14-3.21a.64.64,0,0,0-.52.21.93.93,0,0,0-.22.59h1.46a.83.83,0,0,0-.2-.59A.67.67,0,0,0,328.59,110.21Z"/><path d="M333.27,109.46a1.69,1.69,0,0,1,.35,0l-.07,1a1.42,1.42,0,0,0-.31,0,1.13,1.13,0,0,0-.78.25.91.91,0,0,0-.28.72v2h-1v-3.82h.79l.15.64h.05a1.42,1.42,0,0,1,.48-.52A1.24,1.24,0,0,1,333.27,109.46Z"/><path d="M336.09,108.55q0-.51.57-.51t.57.51a.5.5,0,0,1-.14.37.62.62,0,0,1-.43.14Q336.09,109.06,336.09,108.55Zm1.09,4.81h-1v-3.82h1Z"/><path d="M341.8,113.36h-1v-2.24a1.07,1.07,0,0,0-.15-.62.55.55,0,0,0-.47-.2.69.69,0,0,0-.63.29,1.81,1.81,0,0,0-.19,1v1.8h-1.05v-3.82h.8l.14.48h.06a1,1,0,0,1,.48-.41,1.52,1.52,0,0,1,.69-.15,1.31,1.31,0,0,1,1,.36,1.41,1.41,0,0,1,.35,1Z"/><path d="M349.21,113.36h-1.35l-2.17-3.78h0c0,.66.06,1.14.06,1.42v2.36h-1v-5h1.34l2.17,3.74h0c0-.65-.05-1.11-.05-1.38v-2.36h1Z"/><path d="M350.34,108.55q0-.51.57-.51c.37,0,.56.17.56.51a.46.46,0,0,1-.14.37.57.57,0,0,1-.42.14Q350.34,109.06,350.34,108.55Zm1.09,4.81h-1.05v-3.82h1.05Z"/><path d="M355.19,112.22a1.08,1.08,0,0,1-.41.9,2.09,2.09,0,0,1-1.23.3,3.76,3.76,0,0,1-.71,0,2.51,2.51,0,0,1-.55-.17v-.86a3.93,3.93,0,0,0,.66.23,2.65,2.65,0,0,0,.64.09q.57,0,.57-.33a.3.3,0,0,0-.08-.2,1.45,1.45,0,0,0-.26-.17l-.49-.23a2.7,2.7,0,0,1-.65-.34.86.86,0,0,1-.3-.36,1.24,1.24,0,0,1-.09-.5.92.92,0,0,1,.39-.79,2,2,0,0,1,1.12-.28,3.15,3.15,0,0,1,1.34.3l-.31.76a5.4,5.4,0,0,0-.54-.21,1.7,1.7,0,0,0-.51-.07c-.3,0-.46.08-.46.25a.3.3,0,0,0,.15.24,3.84,3.84,0,0,0,.65.3,3.24,3.24,0,0,1,.66.34,1.15,1.15,0,0,1,.31.36A1.22,1.22,0,0,1,355.19,112.22Z"/><path d="M357.55,113.42c-1.19,0-1.78-.65-1.78-2a2.1,2.1,0,0,1,.48-1.49,1.81,1.81,0,0,1,1.39-.52,2.7,2.7,0,0,1,1.19.26l-.31.81a3.52,3.52,0,0,0-.45-.16,1.61,1.61,0,0,0-.43-.07c-.54,0-.81.39-.81,1.16s.27,1.12.81,1.12a1.81,1.81,0,0,0,1.07-.33v.89a1.61,1.61,0,0,1-.51.22A2.93,2.93,0,0,1,357.55,113.42Z"/><path d="M363.12,113.36h-1v-2.24c0-.55-.2-.82-.61-.82a.7.7,0,0,0-.63.29,1.73,1.73,0,0,0-.2,1v1.8h-1V108h1v1.08c0,.09,0,.28,0,.6l0,.3h.06a1.21,1.21,0,0,1,1.1-.56,1.35,1.35,0,0,1,1,.37,1.42,1.42,0,0,1,.34,1Z"/><path d="M365.93,113.42a2,2,0,0,1-1.44-.5,1.94,1.94,0,0,1-.52-1.45,2.11,2.11,0,0,1,.48-1.48,1.93,1.93,0,0,1,2.58-.07,1.73,1.73,0,0,1,.46,1.28v.51H365a1,1,0,0,0,.26.69.94.94,0,0,0,.7.25,3.41,3.41,0,0,0,.65-.07,3.83,3.83,0,0,0,.64-.23v.81a2.84,2.84,0,0,1-.58.2A4.1,4.1,0,0,1,365.93,113.42Zm-.15-3.21a.67.67,0,0,0-.52.21.93.93,0,0,0-.21.59h1.46a.87.87,0,0,0-.2-.59A.69.69,0,0,0,365.78,110.21Z"/><path d="M371.86,113.36h-1v-2.24a1.07,1.07,0,0,0-.15-.62.55.55,0,0,0-.47-.2.69.69,0,0,0-.63.29,1.81,1.81,0,0,0-.19,1v1.8h-1.05v-3.82h.8l.14.48h.06a1,1,0,0,1,.48-.41,1.52,1.52,0,0,1,.69-.15,1.35,1.35,0,0,1,1,.36,1.45,1.45,0,0,1,.34,1Z"/><path d="M376.36,113.36h-1.05v-2.24a1.17,1.17,0,0,0-.13-.62.52.52,0,0,0-.44-.2.63.63,0,0,0-.58.29,2,2,0,0,0-.18,1v1.8h-1v-3.82h.79l.14.48h.06a1.09,1.09,0,0,1,.44-.41,1.47,1.47,0,0,1,.67-.15,1.2,1.2,0,0,1,1.16.56h.09a1.15,1.15,0,0,1,.46-.41,1.47,1.47,0,0,1,.67-.15,1.34,1.34,0,0,1,1,.34,1.46,1.46,0,0,1,.33,1.06v2.5h-1.05v-2.24a1.08,1.08,0,0,0-.14-.62.49.49,0,0,0-.43-.2.64.64,0,0,0-.57.27,1.52,1.52,0,0,0-.19.87Z"/><path d="M382.23,113.36l-.2-.52h0a1.62,1.62,0,0,1-.55.46,1.8,1.8,0,0,1-.72.12,1.17,1.17,0,0,1-.87-.31,1.22,1.22,0,0,1-.31-.9,1,1,0,0,1,.42-.89,2.37,2.37,0,0,1,1.28-.32l.67,0v-.17c0-.39-.2-.58-.6-.58a2.62,2.62,0,0,0-1.07.28l-.35-.71a3.11,3.11,0,0,1,1.46-.34,1.82,1.82,0,0,1,1.18.33,1.21,1.21,0,0,1,.41,1v2.55Zm-2-4.81a.47.47,0,0,1,.12-.34.5.5,0,0,1,.35-.12.45.45,0,0,1,.35.13.43.43,0,0,1,.13.33.42.42,0,0,1-.13.33.45.45,0,0,1-.35.13.5.5,0,0,1-.35-.12A.45.45,0,0,1,380.24,108.55Zm1.69,3h-.41a1.29,1.29,0,0,0-.67.16.53.53,0,0,0-.23.46c0,.3.17.44.51.44a.79.79,0,0,0,.58-.21.73.73,0,0,0,.22-.55Zm-.32-3a.44.44,0,0,1,.14-.35.56.56,0,0,1,.35-.11.48.48,0,0,1,.35.13.42.42,0,0,1,.13.33.45.45,0,0,1-.13.34.51.51,0,0,1-.35.12.56.56,0,0,1-.35-.11A.44.44,0,0,1,381.61,108.55Z"/><path d="M386.17,109.46a1.69,1.69,0,0,1,.35,0l-.08,1a1.3,1.3,0,0,0-.31,0,1.08,1.08,0,0,0-.77.25.91.91,0,0,0-.28.72v2h-1v-3.82h.79l.15.64h0a1.42,1.42,0,0,1,.48-.52A1.19,1.19,0,0,1,386.17,109.46Z"/><path d="M388.22,111.28l.45-.58,1.07-1.16h1.18l-1.52,1.65,1.61,2.17h-1.2l-1.11-1.55-.44.36v1.19h-1.05V108h1.05v2.37l-.06.87Z"/><path d="M393.17,112.59a2.2,2.2,0,0,0,.65-.12v.78a2.29,2.29,0,0,1-1,.17,1.18,1.18,0,0,1-.91-.31,1.38,1.38,0,0,1-.28-1v-1.84h-.5v-.44l.57-.35.3-.81h.67v.82h1.07v.78h-1.07v1.84a.39.39,0,0,0,.13.33A.48.48,0,0,0,393.17,112.59Z"/><path d="M396.32,113.42a2,2,0,0,1-1.44-.5,1.94,1.94,0,0,1-.52-1.45,2.11,2.11,0,0,1,.48-1.48,1.94,1.94,0,0,1,2.59-.07,1.77,1.77,0,0,1,.45,1.28v.51h-2.46a1,1,0,0,0,.26.69.93.93,0,0,0,.69.25,3.32,3.32,0,0,0,.65-.07,3.92,3.92,0,0,0,.65-.23v.81a2.93,2.93,0,0,1-.59.2A4.1,4.1,0,0,1,396.32,113.42Zm-.14-3.21a.66.66,0,0,0-.52.21.93.93,0,0,0-.22.59h1.46a.83.83,0,0,0-.2-.59A.67.67,0,0,0,396.18,110.21Z"/><path d="M402.26,113.36h-1.05v-2.24a1.08,1.08,0,0,0-.14-.62.56.56,0,0,0-.47-.2.69.69,0,0,0-.63.29,1.8,1.8,0,0,0-.2,1v1.8h-1v-3.82h.8l.14.48h.05a1.13,1.13,0,0,1,.48-.41,1.6,1.6,0,0,1,.7-.15,1.32,1.32,0,0,1,1,.36,1.45,1.45,0,0,1,.35,1Z"/></svg>