<svg id="Layer_1" data-name="Layer 1" xmlns="http://www.w3.org/2000/svg" xmlns:xlink="http://www.w3.org/1999/xlink" viewBox="0 0 38.03 155.82"><defs><style>.cls-1{fill:none;}.cls-2{fill:#f5f5f5;}.cls-3{fill:#fff;}.cls-4{fill:#b9b9b9;}.cls-5{fill:#dfdfdf;}.cls-6{clip-path:url(#clip-path);}.cls-7{fill:#1d1e1c;}</style><clipPath id="clip-path"><rect class="cls-1" x="2.01" y="60.99" width="33.45" height="62.35"/></clipPath></defs><title>screensize-mobile</title><rect class="cls-2" x="2.01" y="60.99" width="33.45" height="62.35"/><rect class="cls-3" x="2.01" y="60.99" width="33.45" height="62.35"/><rect class="cls-4" x="19.6" y="71.86" width="15.86" height="51.48"/><rect class="cls-5" x="2.01" y="60.99" width="33.45" height="12.65"/><g class="cls-6"><path d="M28.35,83.09l0-.15.1-.13.06-.06.08-.1.06-.07.1-.1.09-.09.09-.08.07-.06.26-.07h.1a.32.32,0,0,1,.25.21h0l0,0v.06l.08-.09.07-.08.05,0v0h0l.18-.12.12,0h.09l.13.08.1.12.05.16v0l0,.1v.06l0,.06h0l.13,0,.11.08.07.11,0,.13a.37.37,0,0,1-.13.27l0,0-.15.12-.16.11a.71.71,0,0,1-.38.12h0l-.16,0-.11,0-.09-.08-.07.06-.09.06h0l-.15.09-.13.06-.12,0h-.23l-.17-.08-.1-.15,0-.08V83.4l-.06,0-.05,0Z"/><path d="M30.1,83.09l0-.15.1-.13.06-.06.08-.1.06-.07.1-.1.09-.09.09-.08.07-.06.26-.07h.1a.32.32,0,0,1,.25.21h0l0,0v.06l.08-.09.07-.08.05,0v0h0l.18-.12.12,0H32l.13.08.1.12,0,.16v.18l0,.06h0l.13,0,.11.08.07.11,0,.13a.35.35,0,0,1-.14.27v0l-.15.12-.16.11a.73.73,0,0,1-.38.12h0l-.16,0-.11,0-.09-.08-.07.06-.09.06h0l-.15.09-.13.06-.12,0h-.23l-.17-.08-.1-.15,0-.08V83.4l-.06,0-.05,0Z"/><path d="M31.85,83.09l0-.15.1-.13.06-.06.08-.1.06-.07.1-.1.09-.09.09-.08.07-.06.26-.07h.1a.32.32,0,0,1,.25.21h0l0,0v.06l.08-.09.07-.08,0,0v0h0l.18-.12.12,0h.09l.13.08.1.12,0,.16v.18l0,.06h0l.13,0,.11.08.07.11,0,.13a.35.35,0,0,1-.14.27v0L34,83.5l-.16.11a.73.73,0,0,1-.38.12h0l-.16,0-.11,0-.09-.08-.07.06L33,83.7h0l-.15.09-.13.06-.12,0h-.23l-.17-.08-.1-.15,0-.08V83.4l-.06,0-.05,0Z"/><path d="M33.6,83.09l0-.15.1-.13.06-.06.08-.1.06-.07.1-.1.09-.09.09-.08.07-.06.26-.07h.1a.32.32,0,0,1,.25.21h0l0,0v.06l.08-.09.07-.08,0,0v0h0l.18-.12.12,0h.09l.13.08.1.12,0,.16v.18l0,.06h0l.13,0,.11.08.07.11,0,.13a.35.35,0,0,1-.14.27v0l-.15.12-.16.11a.73.73,0,0,1-.38.12h0l-.16,0-.11,0-.09-.08-.08.06-.08.06h0l-.15.09-.13.06-.12,0h-.23l-.17-.08-.11-.15,0-.08V83.4l-.06,0,0,0Z"/><path d="M28.38,87l0-.12.08-.11.11-.07h0l.08,0,.13-.1L29,86.4l.13-.11.1-.09.06-.07,0,0,.15-.09h.08l.09,0a.29.29,0,0,1,.2.16l0,.1v0l0,.1h0v0h0l0,.05,0,.07,0,.08,0,.08h0l.12-.05h.12l.12.05.09.09,0,.13v.12l0,.12-.09.09-.15.1-.14.11-.16.12-.14.09-.1,0-.09,0h-.26L29,87.75l-.09-.11,0-.08v-.25l0,0h-.05l-.11,0-.19,0-.12-.16,0-.11Z"/><path d="M29.67,87l0-.12.07-.11.11-.07.19-.09a3,3,0,0,0,.36-.26l.13-.11.1-.08.09-.09L31,86l.09,0,.12.06.08.1.05.16v0l0,.22v.07l0,.07h0l.17,0,.14.15,0,.13,0,.12-.06.11-.11.07-.2.1-.16.08-.1.06-.05,0-.15,0-.21-.07-.11-.16v-.19h0a2,2,0,0,1-.33.16l-.12,0h0l-.12,0-.1-.07-.07-.11,0-.11Z"/><path d="M30.94,87l0-.12.08-.11.11-.07.19-.09a3,3,0,0,0,.36-.26l.13-.11.1-.08.09-.09.22-.1.1,0,.12.06.08.1.05.16v0l0,.22v.07l0,.07h0l.17,0,.14.15,0,.13,0,.12-.06.11-.11.07-.2.1-.16.08-.1.06,0,0-.16,0-.2-.07-.11-.16,0-.1,0-.09h0a1.9,1.9,0,0,1-.32.16l-.12,0h0l-.12,0L31,87.26,31,87.15l0-.11Z"/><path d="M32.22,87l0-.12.08-.11.11-.07h0l.08,0,.13-.1.19-.16.13-.11.1-.09.06-.07,0,0,.15-.09h.08l.09,0a.29.29,0,0,1,.2.16l0,.1v0l0,.1h0v0h0l0,.05,0,.07,0,.08,0,.08h0l.12-.05h.12l.12.05.09.09,0,.13v.12l0,.12-.09.09-.15.1-.14.11-.16.12-.14.09-.1,0-.09,0H33l-.12-.06-.09-.11,0-.08v-.25l0,0h-.05l-.11,0-.19,0-.12-.16,0-.11Z"/><path d="M33.5,87l0-.11.06-.11.11-.07.19-.1.23-.14.31-.17.31-.16a1.28,1.28,0,0,1,.33-.11l.19,0h0l.15,0a.37.37,0,0,1,.25.22l0,.15v.1l-.09.22h.17l.12,0,.1.07.07.11,0,.12h0l0,.12-.07.11-.12.06-.28.1-.23.08-.22.06-.16,0-.1,0-.14-.07-.09-.13,0-.13,0-.16.05-.13,0,0,0,0L34.6,87l-.15.08-.26.15-.23.11-.12,0h0l-.12,0-.1-.07-.08-.1Z"/><path d="M35.44,87l0-.11.06-.11.11-.07.18-.1.24-.14.3-.17.32-.16a1.11,1.11,0,0,1,.32-.11l.2,0h0l.15,0a.33.33,0,0,1,.24.22l0,.15v.1l-.09.22h.17l.12,0,.1.07.07.11L38,87h0l0,.12-.08.11-.11.06-.28.1-.23.08-.22.06-.16,0-.1,0-.14-.07-.09-.13,0-.13,0-.16.06-.13,0,0v0l-.14.09-.15.08-.26.15-.23.11-.12,0h0l-.12,0-.11-.07-.07-.1Z"/><path d="M28.38,91l0-.12.06-.1.11-.08.18-.09.24-.14.3-.17a3.18,3.18,0,0,1,.32-.16.87.87,0,0,1,.32-.11l.2,0h.18a.37.37,0,0,1,.24.23l0,.15v.09l-.09.23h0l.11,0h0l.12,0,.1.07.07.11L31,91v0l0,.12-.08.11-.11.06-.28.1-.23.08-.22.06-.16,0-.1,0-.14-.07-.09-.14,0-.12,0-.16.06-.13,0,0v0l-.14.09-.15.08-.26.15-.23.11-.12,0h0l-.12,0-.11-.07-.07-.11Z"/><path d="M30.29,91l0-.15.1-.12.06-.07.08-.09.06-.07.1-.1.09-.1.09-.08.07,0,.25-.08h.11a.37.37,0,0,1,.25.22h0l0,0v.06l.08-.09.07-.08,0-.06h0L32,90l.12,0h.09l.13.07.1.13,0,.16v.18l0,.06h0l.13,0,.11.08.07.12,0,.12a.35.35,0,0,1-.14.28v0l-.15.12-.16.11a.72.72,0,0,1-.38.11h0l-.15,0-.11,0-.09-.08-.08.06-.08.06h0l-.14.09-.13.06-.12,0h-.23l-.17-.09-.11-.14,0-.08V91.3l-.06,0-.05-.05Z"/><path d="M32.07,91l0-.12.07-.1.11-.08.18-.09.24-.14.3-.17a2.39,2.39,0,0,1,.32-.16.87.87,0,0,1,.32-.11l.2,0H34a.38.38,0,0,1,.25.23l0,.15v.09l-.1.23h0l.1,0h0l.12,0,.1.07.07.11,0,.11v0l0,.12-.08.11-.11.06-.28.1-.23.08-.23.06-.15,0-.1,0-.14-.07-.09-.14,0-.12,0-.16.06-.13v0l0,0-.15.09L33,91l-.26.15-.23.11-.13,0h0l-.12,0-.11-.07-.07-.11Z"/><path d="M34,91l0-.12.07-.1.1-.08.19-.09.23-.14.31-.17a3.07,3.07,0,0,1,.31-.16,1,1,0,0,1,.33-.11l.2,0h.17a.41.41,0,0,1,.25.23l0,.15,0,.09-.09.23h0l.1,0h0l.12,0,.11.07.06.11,0,.11v0l0,.12-.07.11-.11.06-.29.1-.22.08-.23.06-.15,0-.11,0-.14-.07-.09-.14,0-.12,0-.16.06-.13v0l0,0-.15.09L35,91l-.25.15-.23.11-.13,0h0l-.12,0-.11-.07L34,91.11Z"/><path d="M28.38,94.93l0-.12.06-.1.11-.08.18-.09L29,94.4l.3-.17.32-.16a.87.87,0,0,1,.32-.11l.2,0h0l.15,0a.35.35,0,0,1,.24.23l0,.15v.09l-.09.23h0l.11,0h0l.12,0,.1.07.07.11,0,.11v0l0,.12-.08.1-.11.07-.28.1-.23.08-.22.06h-.26l-.14-.08-.09-.13,0-.12,0-.16.06-.13,0,0v0l-.14.08-.15.09-.26.15-.23.11-.12,0h0l-.12,0-.11-.07-.07-.11Z"/><polygon points="30.32 94.91 30.35 94.79 30.43 94.69 30.51 94.62 30.59 94.53 30.76 94.37 30.93 94.22 31.04 94.15 31.14 94.09 31.37 94.04 31.47 94.05 31.63 94.14 31.73 94.29 31.75 94.42 31.73 94.56 31.71 94.6 31.7 94.63 31.87 94.82 31.89 94.93 31.89 94.95 31.86 95.07 31.79 95.17 31.67 95.24 31.48 95.31 31.34 95.36 31.28 95.39 31.23 95.4 31.17 95.42 31.09 95.43 31 95.42 30.86 95.35 30.77 95.24 30.65 95.26 30.57 95.25 30.4 95.15 30.33 95.04 30.32 94.94 30.32 94.91"/><path d="M31.23,94.92l0-.13.07-.1.11-.07h0l.08,0,.13-.1.2-.16.12-.11.1-.09.07-.07,0,0,.14-.09h.17a.31.31,0,0,1,.2.17l0,.1v.15h0v0h0l0,0,0,.06,0,.08,0,.09h0l.12,0h.13l.11,0,.09.09,0,.12V95l0,.12-.09.09-.15.1-.14.11-.16.11-.14.1-.1,0-.09,0-.13,0-.13,0-.12,0-.09-.11,0-.08v-.25l0,0h0l-.12,0-.18-.06L31.24,95l0-.1Z"/><path d="M34.11,94.92l0-.12.07-.11.11-.07.19-.09a3,3,0,0,0,.36-.26l.13-.11.1-.09.09-.08.23-.1.09,0,.12,0,.08.1,0,.17v0l0,.22v.07l0,.06h0l.17.05.14.15,0,.13,0,.12-.06.11-.11.07-.2.09-.16.09-.1,0,0,0-.15,0L35,95.46l-.11-.16v-.19h0a2.45,2.45,0,0,1-.33.16l-.12,0h0l-.12,0-.1-.07-.07-.11,0-.11Z"/><path d="M35.38,94.93l0-.12.06-.1.11-.08.19-.09L36,94.4l.31-.17a2.29,2.29,0,0,1,.31-.16A1,1,0,0,1,37,94l.19,0h0l.15,0a.35.35,0,0,1,.24.23l0,.15v.09l-.09.23h0l.11,0h0l.12,0,.1.07.07.11,0,.11v0l0,.12-.07.1-.12.07-.28.1-.23.08-.22.06h-.26l-.14-.08-.09-.13,0-.12,0-.16.05-.13,0,0,0,0-.15.08-.15.09-.26.15-.23.11-.12,0h0l-.12,0-.1-.07-.08-.11Z"/><path d="M28.38,98.87l0-.13.08-.1.11-.07.19-.09a3,3,0,0,0,.36-.26l.13-.11.1-.09.09-.08.22-.1h.1l.12.06L30,98l.05.17v0l0,.22v.06l0,.07h0l.17,0,.14.15,0,.13,0,.12-.06.1-.11.08-.2.09-.16.08-.11.06,0,0-.16,0-.2-.08-.11-.16,0-.1v-.09h0a2,2,0,0,1-.32.17l-.12,0h0l-.12,0-.11-.07L28.41,99l0-.11Z"/><path d="M29.66,98.87l0-.13.08-.1.11-.07.19-.09a3,3,0,0,0,.36-.26l.13-.11.1-.09.09-.08.22-.1h.1l.11.06.09.1.05.17v0l0,.22,0,.06v.07h0l.17,0,.14.15,0,.13,0,.12-.07.1-.1.08-.2.09-.16.08-.11.06,0,0-.16,0-.2-.08-.11-.16,0-.1v-.09h0a1.74,1.74,0,0,1-.33.17l-.11,0h0l-.13,0-.1-.07L29.68,99l0-.11Z"/><polygon points="32.54 98.86 32.57 98.74 32.65 98.63 32.73 98.56 32.81 98.48 32.98 98.32 33.15 98.17 33.26 98.1 33.35 98.04 33.59 97.98 33.69 98 33.85 98.08 33.95 98.23 33.97 98.36 33.95 98.51 33.93 98.54 33.92 98.58 34.09 98.77 34.11 98.88 34.11 98.9 34.08 99.02 34 99.12 33.89 99.19 33.7 99.26 33.56 99.31 33.5 99.33 33.45 99.35 33.38 99.37 33.3 99.38 33.22 99.37 33.08 99.3 32.99 99.19 32.87 99.21 32.79 99.2 32.62 99.1 32.55 98.98 32.54 98.89 32.54 98.86"/><path d="M33.44,98.86l0-.12.07-.1.11-.07,0,0,.08,0,.13-.1.19-.16.13-.11.1-.1L34.4,98l0,0,.15-.08h.17a.31.31,0,0,1,.2.17l0,.1v.15h0v0l0,0,0,.06,0,.08,0,.09h0l.12,0h.12l.12,0,.09.09,0,.12V99l0,.11-.09.1-.15.1-.14.11-.16.11-.14.09-.1.05-.09,0-.13,0-.13,0-.12-.06-.09-.1,0-.09v-.25l0,0,0,0-.11,0-.19-.06L33.46,99l0-.1Z"/><path d="M34.72,98.88l0-.12.06-.11.11-.07.19-.1.23-.13.31-.18A2.2,2.2,0,0,1,36,98a1.34,1.34,0,0,1,.33-.12l.19,0h0l.15,0a.38.38,0,0,1,.25.23l0,.14,0,.1-.09.22h0l.11,0h0l.12,0,.1.08.07.11,0,.11v0l0,.12-.07.1-.12.07-.28.1-.23.08-.22.06H36.1L36,99.35l-.09-.13,0-.13,0-.15.06-.13v0l0,0-.15.08-.15.09-.26.15-.22.11-.13,0h0l-.12,0-.1-.07L34.75,99Z"/><path d="M28.38,102.82l0-.13.08-.1.11-.07.19-.1a2.16,2.16,0,0,0,.36-.26l.13-.1.1-.09.09-.08.22-.1h.1l.12.06.08.1.05.16v0l0,.22v.06l0,.07h0l.17,0,.14.15,0,.13,0,.12-.06.1-.11.08-.2.09-.16.08-.11.06,0,0-.16.05-.2-.08-.11-.16,0-.1V103h0a2,2,0,0,1-.32.17l-.12,0h0l-.12,0-.11-.08-.06-.11,0-.11Z"/><polygon points="29.66 102.81 29.69 102.69 29.77 102.58 29.85 102.51 29.94 102.43 30.1 102.27 30.27 102.12 30.38 102.05 30.48 101.99 30.71 101.93 30.81 101.94 30.97 102.03 31.07 102.18 31.09 102.31 31.07 102.46 31.05 102.49 31.04 102.53 31.21 102.71 31.23 102.83 31.23 102.84 31.2 102.97 31.13 103.07 31.01 103.14 30.82 103.21 30.68 103.26 30.62 103.28 30.58 103.3 30.51 103.32 30.43 103.33 30.34 103.32 30.2 103.25 30.11 103.14 29.99 103.16 29.92 103.15 29.74 103.05 29.68 102.93 29.66 102.83 29.66 102.81"/><path d="M30.57,102.82l0-.13.07-.1.11-.07.19-.1a2.16,2.16,0,0,0,.36-.26l.13-.1.1-.09.09-.08.23-.1H32l.12.06.08.1,0,.16v0l0,.22v.06l0,.07h0l.17,0,.14.15,0,.13,0,.12-.06.1-.11.08-.2.09-.16.08-.1.06,0,0-.16.05-.21-.08-.11-.16V103h0a1.74,1.74,0,0,1-.33.17l-.12,0h0l-.12,0-.1-.08-.07-.11,0-.11Z"/><path d="M33.44,102.82l0-.13.08-.1.11-.07.19-.1a2.16,2.16,0,0,0,.36-.26l.13-.1.1-.09.09-.08.22-.1h.1l.12.06.08.1.05.16v0l0,.22v.06l0,.07h0l.17,0,.14.15,0,.13,0,.12-.06.1-.11.08-.2.09-.16.08-.1.06,0,0-.16.05-.2-.08-.11-.16,0-.1,0-.09h0a2,2,0,0,1-.32.17l-.12,0h0l-.12,0-.11-.08-.06-.11,0-.11Z"/><path d="M34.72,102.82l0-.13.08-.1.11-.07.19-.1a2.16,2.16,0,0,0,.36-.26l.13-.1.1-.09.09-.08.22-.1h.1l.12.06.08.1.05.16v0l0,.22v.06l0,.07h0l.17,0,.14.15,0,.13,0,.12-.06.1-.11.08-.2.09-.16.08-.11.06,0,0-.16.05-.2-.08-.11-.16,0-.1V103h0a2,2,0,0,1-.32.17l-.12,0h0l-.12,0-.11-.08-.06-.11,0-.11Z"/><path d="M28.38,106.78l0-.12.06-.11.11-.07.18-.1.24-.13.3-.18.32-.16a1.52,1.52,0,0,1,.32-.11l.2,0h0l.15,0a.33.33,0,0,1,.24.22l0,.15v.1l-.09.22h0l.11,0h0l.12,0,.1.08.07.11,0,.11v0l0,.12-.08.1-.11.07-.28.1-.23.08-.22,0-.16,0-.1,0-.14-.07-.09-.13,0-.13,0-.15.06-.13,0,0v0l-.14.08-.15.08-.26.15-.23.12-.12,0h0l-.12,0-.11-.06-.07-.11Z"/><path d="M30.32,106.76l0-.12.07-.1.12-.07,0,0,.08,0,.14-.09.19-.16.12-.12.1-.09.07-.06,0,0,.15-.08h.17a.31.31,0,0,1,.2.17l0,.1v0l0,.1h0v0l0,.05,0,.06,0,.08,0,.09h0l.12,0H32l.12,0,.09.1,0,.12v.13l0,.11-.09.09-.15.11-.15.11-.15.11-.14.09-.1,0-.09,0-.14,0-.12,0-.13-.06-.08-.11,0-.08v-.25l-.05,0,0,0-.11,0-.19-.06-.12-.16,0-.11Z"/><path d="M31.6,106.77l0-.13.08-.1.11-.07.19-.1a2.16,2.16,0,0,0,.36-.26l.13-.1.1-.09.09-.09.22-.09H33l.12.06.08.1,0,.16v0l0,.22v.06l0,.07h0l.17,0,.14.16,0,.13,0,.12-.06.1-.11.08-.2.09-.16.08-.11.06,0,0-.16,0-.2-.07-.11-.16,0-.1V107h0a2,2,0,0,1-.32.17l-.12,0h0l-.12,0-.11-.08-.06-.11,0-.11Z"/><path d="M34.48,106.78l0-.12.07-.11.11-.07.18-.1.24-.13.3-.18.32-.16a1.52,1.52,0,0,1,.32-.11l.2,0h0l.14,0a.35.35,0,0,1,.25.22l0,.15v.1l-.1.22h.05l.1,0h0l.12,0,.1.08.07.11,0,.11v0l0,.12L37,107l-.11.07-.28.1-.23.08-.23,0-.15,0-.1,0-.14-.07-.09-.13,0-.13,0-.15.06-.13v0l0,0-.15.08-.14.08-.26.15-.23.12-.13,0h0l-.12,0-.11-.06-.07-.11Z"/><path d="M28.35,110.73l0-.15.1-.13.06-.06.08-.09.06-.08.1-.1.09-.09L29,110l.07,0,.26-.08h.1a.32.32,0,0,1,.25.21h0l0,.06v.05l.08-.09.07-.08.05,0v0h0l.18-.12.12,0h.09l.13.07.1.12.05.17h0l0,.1v.06l0,.06h0l.13,0,.11.08.07.12,0,.12a.39.39,0,0,1-.13.28h0l-.15.12-.16.11a.71.71,0,0,1-.38.12h0l-.16,0-.11,0-.09-.08-.07.06-.09.06h0l-.15.09-.13.06-.12,0h-.23l-.17-.08-.1-.14,0-.09V111l-.06,0-.05,0Z"/><path d="M30.1,110.73l0-.15.1-.13.06-.06.08-.09.06-.08.1-.1.09-.09.09-.08.07,0,.26-.08h.1a.32.32,0,0,1,.25.21h0l0,.06v.05l.08-.09.07-.08.05,0v0h0l.18-.12.12,0H32l.13.07.1.12,0,.17h0v.16l0,.06h0l.13,0,.11.08.07.12,0,.12a.37.37,0,0,1-.14.28h0l-.15.12-.16.11a.73.73,0,0,1-.38.12h0l-.16,0-.11,0-.09-.08-.07.06-.09.06h0l-.15.09-.13.06-.12,0h-.23l-.17-.08-.1-.14,0-.09V111l-.06,0-.05,0Z"/><path d="M31.88,110.71l0-.12.08-.1.11-.07.19-.1a2.16,2.16,0,0,0,.36-.26l.13-.1.1-.09.09-.09.22-.09h.1l.11.06.09.1,0,.16v0l0,.23,0,.06v.07h0l.17,0,.14.16,0,.13,0,.11-.07.11-.1.08-.2.09-.16.08-.11.06,0,0-.16,0-.2-.07-.11-.16,0-.1v-.09h0l-.32.17-.12,0h0l-.12,0L32,111l-.07-.11,0-.11Z"/><polygon points="33.16 110.71 33.19 110.58 33.27 110.48 33.35 110.41 33.44 110.33 33.6 110.17 33.77 110.02 33.88 109.94 33.98 109.89 34.21 109.83 34.31 109.84 34.47 109.93 34.57 110.08 34.59 110.21 34.57 110.36 34.55 110.39 34.54 110.43 34.71 110.61 34.73 110.73 34.73 110.74 34.7 110.87 34.63 110.97 34.51 111.04 34.32 111.11 34.18 111.16 34.12 111.18 34.08 111.2 34.01 111.21 33.93 111.22 33.84 111.21 33.7 111.15 33.61 111.03 33.49 111.06 33.41 111.05 33.24 110.94 33.17 110.83 33.16 110.73 33.16 110.71"/><path d="M34.06,110.73l0-.12.06-.11.11-.07.19-.1.23-.13L35,110l.31-.16a1.82,1.82,0,0,1,.33-.11l.19,0h0l.15,0a.37.37,0,0,1,.25.22l0,.15v.1l-.09.22h0l.11,0h0l.12,0,.1.07.07.11,0,.12h0l0,.13-.07.1-.12.07-.28.1-.23.07-.22.06-.15,0-.11,0-.14-.07-.09-.13,0-.13,0-.15.06-.14v0l0,0-.15.08-.15.08-.26.15-.22.12-.13,0h0l-.12,0-.1-.06-.08-.11Z"/><path d="M28.38,114.66l0-.12.08-.1.11-.08h0l.08,0,.13-.1L29,114l.13-.11.1-.09.06-.07,0,0,.15-.09h.08l.09,0a.29.29,0,0,1,.2.16l0,.1v0l0,.11h0v0l0,0,0,.07,0,.08,0,.08h0l.12-.05h.12l.12.05.09.09,0,.13v.12l0,.12-.09.09-.15.11-.14.1-.16.12-.14.09-.1,0-.09,0h-.26l-.12-.06-.09-.11,0-.08V115l0,0h-.05l-.11,0-.19,0-.12-.16,0-.11Z"/><path d="M29.63,114.68l0-.15.09-.13.06-.06.08-.1.07-.07.09-.1.09-.09.1-.08.07-.06.25-.07h.1a.32.32,0,0,1,.25.21h0l0,.05v.06L31,114l.06-.08,0-.05v0h0l.18-.12.13,0h.08l.14.08.1.12,0,.16v.18l0,.06h0l.13,0,.11.08.06.11,0,.13A.34.34,0,0,1,32,115l0,0-.15.12-.16.11a.71.71,0,0,1-.38.12h0l-.16,0-.11,0-.09-.08-.07.06-.08.06h0l-.15.09-.13.06-.12,0h-.23L30,115.4l-.11-.15,0-.08V115l-.06,0-.05,0Z"/><path d="M31.41,114.66l0-.12.08-.1.11-.08.19-.09a3,3,0,0,0,.36-.26l.13-.11.1-.08.09-.09.23-.09h.09l.12.06.08.1,0,.16v0l0,.22v.07l0,.07h0l.17,0,.14.15,0,.14,0,.11-.06.11-.11.07-.2.1-.16.08-.1.06-.05,0-.15,0-.21-.07-.11-.16,0-.1,0-.09h0a2,2,0,0,1-.33.16l-.12,0h0l-.12,0-.1-.08-.07-.11,0-.11Z"/><path d="M32.69,114.66l0-.12.08-.1.11-.08.19-.09a3,3,0,0,0,.36-.26l.13-.11.1-.08.09-.09.22-.09h.1l.12.06.08.1.05.16v0l0,.22v.07l0,.07h0l.17,0,.14.15,0,.14,0,.11-.06.11-.11.07-.2.1-.16.08-.1.06,0,0-.16,0-.2-.07-.11-.16,0-.1,0-.09h0a1.9,1.9,0,0,1-.32.16L33,115h0l-.12,0-.11-.08-.06-.11,0-.11Z"/><path d="M33.94,114.68l0-.15.1-.13.06-.06.08-.1.06-.07.1-.1.09-.09.09-.08.07-.06.26-.07H35a.32.32,0,0,1,.25.21h0l0,.05v.06l.08-.09.07-.08.05-.05v0h0l.18-.12.12,0h.09l.13.08.1.12,0,.16v0l0,.1v.06l0,.06h0l.13,0,.11.08.07.11,0,.13a.35.35,0,0,1-.14.27v0l-.15.12-.16.11a.71.71,0,0,1-.38.12h0l-.16,0-.11,0-.09-.08-.07.06-.09.06h0l-.15.09-.13.06-.12,0h-.23l-.17-.08-.1-.15,0-.08V115l-.06,0,0,0Z"/><path d="M28.38,118.62l0-.11.06-.11.11-.07.18-.1.24-.14.3-.17.32-.16a1.11,1.11,0,0,1,.32-.11l.2,0h0l.15,0a.33.33,0,0,1,.24.22l0,.15v.1l-.09.22h.17l.12,0,.1.07.07.11,0,.12h0l0,.12-.08.11-.11.06-.28.1-.23.08-.22.06-.16,0-.1,0-.14-.07-.09-.13,0-.13,0-.16.06-.13,0,0v0l-.14.09-.15.08-.26.15-.23.11-.12,0h0l-.12,0-.11-.07-.07-.1Z"/><path d="M30.32,118.61l0-.12.07-.11.12-.07h0l.08,0,.14-.1L31,118l.12-.11.1-.09.07-.07,0,0,.15-.09h.08l.09,0a.29.29,0,0,1,.2.16l0,.1v.05l0,.1h0v0h0l0,0,0,.07,0,.08,0,.08h0l.12,0H32l.12,0,.09.09,0,.13v.12l0,.12-.09.09L32,119l-.15.11-.15.12-.14.09-.1.05-.09,0h-.26l-.13-.06-.08-.11,0-.08v-.25l-.05,0h0l-.11,0-.19,0-.12-.16,0-.11Z"/><path d="M31.6,118.61l0-.12.08-.11.11-.07.19-.09a3,3,0,0,0,.36-.26l.13-.11.1-.08.09-.09.22-.1.1,0,.12.06.08.1,0,.16v0l0,.22v.07l0,.07h0l.17,0,.14.15,0,.13,0,.12-.06.11-.11.07-.2.1-.16.08-.11.06,0,0-.16,0-.2-.07-.11-.16,0-.1v-.09h0a1.9,1.9,0,0,1-.32.16l-.12,0h0l-.12,0-.11-.07-.06-.11,0-.11Z"/><path d="M34.48,118.61l0-.12.08-.11.11-.07.19-.09a4.06,4.06,0,0,0,.36-.26l.13-.11.1-.08.09-.09.22-.1.09,0,.12.06.09.1,0,.16v0l0,.22,0,.07,0,.07h0l.17,0,.13.15,0,.13,0,.12-.07.11-.1.07-.2.1-.16.08-.11.06,0,0-.16,0-.21-.07-.1-.16,0-.1v-.09h0a1.64,1.64,0,0,1-.33.16l-.11,0h0l-.13,0-.1-.07-.07-.11,0-.11Z"/><path d="M28.38,122.57l0-.12.06-.1.11-.08.18-.09L29,122l.3-.17.32-.16a.87.87,0,0,1,.32-.11l.2,0h.18a.35.35,0,0,1,.24.23l0,.15v.09l-.09.23h0l.11,0h0l.12,0,.1.07.07.11,0,.11v0l0,.12-.08.11-.11.06-.28.1-.23.08-.22.06-.16,0-.1,0-.14-.07-.09-.14,0-.12,0-.16.06-.13,0,0v0l-.14.08-.15.09-.26.15-.23.11-.12,0h0l-.12,0-.11-.07-.07-.11Z"/><path d="M30.29,122.57l0-.15.1-.12.06-.07.08-.09.06-.07.1-.1.09-.1.09-.08.07-.05.25-.08h.11a.37.37,0,0,1,.25.22h0l0,0V122l.08-.09.07-.08,0-.06h0l.18-.13.12,0h.09l.13.07.1.13,0,.16v.18l0,.06h0l.13,0,.11.08.07.12,0,.12a.37.37,0,0,1-.14.28v0l-.15.12-.16.11a.72.72,0,0,1-.38.11h0l-.15,0-.11,0-.09-.08-.08.06-.08.06h0l-.14.09-.13.06-.12,0h-.23l-.17-.09-.11-.14,0-.08v-.18l-.06,0-.05,0Z"/><path d="M32.07,122.56l0-.12.08-.11.11-.07.19-.09a4.06,4.06,0,0,0,.36-.26l.13-.11.1-.09.09-.08.22-.1.09,0,.12.06.09.09,0,.17v0l0,.22,0,.07,0,.06h0l.17.05.13.15,0,.13,0,.12-.07.11-.1.07-.2.1-.16.08-.11,0,0,0-.16,0-.21-.07-.11-.16v-.19h0a1.64,1.64,0,0,1-.33.16l-.11,0h0l-.13,0-.1-.07-.07-.11,0-.11Z"/><path d="M35,122.56l0-.12.07-.11.11-.07.19-.09a3.9,3.9,0,0,0,.37-.26l.12-.11.1-.09.1-.08.22-.1.09,0,.12.06.09.09,0,.17v0l0,.22,0,.07,0,.06h0l.18.05.13.15,0,.13,0,.12-.07.11-.11.07-.2.1-.15.08-.11,0,0,0-.16,0-.21-.07-.11-.16v-.19h0a1.64,1.64,0,0,1-.33.16l-.11,0h0l-.12,0-.1-.07-.07-.11,0-.11Z"/><path d="M-.62,83.84l0-.17.11-.15.15-.09a2,2,0,0,0,.26-.13,4.32,4.32,0,0,0,.5-.36l.18-.15.14-.12.13-.12a.41.41,0,0,1,.3-.13l.13,0,.17.08.12.13.06.23v0a1.32,1.32,0,0,1,0,.31l0,.09,0,.09h0l.24.07a.43.43,0,0,1,.19.21l0,.18L2,84l-.1.15-.14.1-.28.13-.22.11-.15.08-.06,0-.21.06a.41.41,0,0,1-.29-.1l-.15-.22,0-.14v-.14h0a2.69,2.69,0,0,1-.46.22l-.16,0h0l-.17,0-.14-.1L-.59,84l0-.16Z"/><path d="M1.15,83.84l0-.17.1-.15.16-.09.05,0,.11-.07.19-.13L2.06,83l.17-.15.14-.13.1-.09,0,0,.2-.12.11,0,.12,0a.45.45,0,0,1,.29.23l0,.14v.07l0,.14h0v.06l0,.07,0,.09,0,.1-.05.13h0l.16-.07h.17l.16.07.13.13.07.17V84l-.07.16-.13.13-.2.14-.2.15L3,84.69l-.2.13-.14.06-.13.05-.18,0-.17,0L2,84.84,1.9,84.7l0-.12v-.29l0-.05-.06,0H1.76l-.16,0a.42.42,0,0,1-.26-.08A.48.48,0,0,1,1.17,84l0-.14Z"/><path d="M2.92,83.86l0-.17.09-.14.15-.11.25-.13.33-.19.42-.24a4.51,4.51,0,0,1,.44-.22,1.49,1.49,0,0,1,.45-.15,1.57,1.57,0,0,1,.27-.05h0l.2,0a.48.48,0,0,1,.34.31L6,83l0,.14a1.66,1.66,0,0,1-.12.31H5.9l.14,0h0l.16,0,.14.1.1.15,0,.16v0l0,.17-.1.14-.15.09-.4.15-.31.1a2,2,0,0,1-.31.08l-.22,0-.14,0-.19-.1-.13-.18,0-.18,0-.21.08-.18,0,0,0,0-.21.11-.2.12-.36.2a2.38,2.38,0,0,1-.32.16l-.17,0h0l-.17,0-.14-.09L3,84Z"/><path d="M.59,90.31l.05-.2.13-.18.08-.09L1,89.72l.09-.1.13-.14.13-.14.13-.11.1-.07a.66.66,0,0,1,.35-.11l.14,0a.49.49,0,0,1,.35.3h0l0,.08,0,.08.11-.13.09-.11.07-.07v0A.53.53,0,0,1,3,89l.17,0h.12l.18.1.14.17.06.23v0l0,.14v.08l0,.09h0l.18.05.15.11.09.17,0,.16a.48.48,0,0,1-.19.39l0,0-.2.17L3.37,91a1,1,0,0,1-.52.16h0l-.22,0-.15-.06L2.35,91l-.11.08-.11.09h0l-.2.12-.19.08-.16,0-.16,0H1.27L1,91.31l-.15-.2,0-.11v-.25l-.08-.06L.7,90.62A.47.47,0,0,1,.59,90.31Z"/><path d="M-.4,96.77l0-.21.13-.17.09-.09L0,96.17l.09-.1.13-.14.13-.13.13-.11.09-.07a.68.68,0,0,1,.35-.11l.14,0a.47.47,0,0,1,.36.29h0l0,.08,0,.08.11-.13.09-.12.07-.07v0h0A.69.69,0,0,1,2,95.45l.18,0,.12,0,.18.1.14.17.06.23v0l0,.14v.08l0,.09h0l.19,0,.15.11L3,96.6l0,.17a.52.52,0,0,1-.19.39l0,0-.21.16-.22.16a1,1,0,0,1-.52.16h0l-.22,0-.15-.06-.12-.11-.11.08-.11.08h0l-.2.13-.18.08-.16,0H.27l-.22-.11-.15-.2,0-.12v-.1l0-.14-.09-.06-.07-.07A.52.52,0,0,1-.4,96.77Z"/><path d="M2.06,96.74l0-.17.11-.14.11-.1.12-.12L2.68,96l.23-.2.15-.1.13-.08a.8.8,0,0,1,.33-.08h.14l.21.13.15.21,0,.18,0,.2,0,0,0,0a.45.45,0,0,1,.24.25l0,.16v0l0,.17-.1.15-.15.09-.27.1-.19.07-.09,0-.06,0-.1,0-.11,0-.12,0-.19-.09-.13-.16-.16,0h-.1a.37.37,0,0,1-.24-.14l-.1-.16,0-.13Z"/><path d="M3.32,96.75l0-.17.1-.14.16-.1.26-.13a4.32,4.32,0,0,0,.5-.36l.18-.15.14-.12.12-.12a.45.45,0,0,1,.31-.13l.13,0,.17.08.11.14.07.22v0a2,2,0,0,1-.05.31l0,.09,0,.09h0l.24.07a.55.55,0,0,1,.19.21l0,.18,0,.16-.09.15-.14.1-.28.13-.22.12-.15.08-.06,0-.22.07a.41.41,0,0,1-.28-.11l-.15-.22,0-.14V97h0v0h0a2.81,2.81,0,0,1-.46.23l-.16,0h0l-.17,0-.14-.11-.09-.15,0-.15Z"/><path d="M.76,103.2l0-.17.1-.14.16-.09.05,0,.11-.06.19-.14.27-.22.17-.15.13-.13.1-.09,0,0,.2-.11.11,0,.12,0a.42.42,0,0,1,.29.23l0,.14v.07l0,.14h0v0l0,.07,0,.08,0,.11,0,.13h0l0,0,.16-.06h.17l.16.07.13.12.07.17v.18l-.07.16-.13.13-.2.14-.2.15-.21.16-.2.13-.14.06-.13,0-.18,0-.17,0-.17-.09-.12-.14L1.46,104v-.35l-.06,0-.06,0-.16,0A.46.46,0,0,1,1,103.6a.38.38,0,0,1-.17-.22l0-.15Z"/><path d="M2.53,103.23l0-.17.09-.15.15-.1.25-.13.33-.19.42-.24a3,3,0,0,1,.44-.22,1.88,1.88,0,0,1,.45-.16,1.47,1.47,0,0,1,.27,0H5l.2,0a.52.52,0,0,1,.35.31l0,.2,0,.14a2.88,2.88,0,0,1-.13.31h.06l.15,0h0l.16,0,.14.1.1.15,0,.16v0l0,.17-.1.14-.15.09-.4.14-.31.11L4.8,104l-.21,0-.15,0-.19-.1-.12-.18,0-.18,0-.21.08-.18,0,0,0,0-.21.12-.2.11-.36.21-.32.16-.17,0H3l-.16,0-.15-.09-.1-.15Z"/><path d="M4.93,67.05,5,66.84l.13-.17.08-.09.11-.13.09-.1.13-.14.13-.13L5.78,66l.1-.07a.66.66,0,0,1,.35-.11l.14,0a.47.47,0,0,1,.35.29h0l0,.08,0,.08.11-.13L7,66,7,65.94v0h0a.64.64,0,0,1,.25-.18l.17,0,.12,0,.18.1.14.17.06.23v0l0,.14v.08l0,.08v0l.18,0,.15.11.09.16,0,.17a.49.49,0,0,1-.19.39l0,0-.2.16-.23.16a1,1,0,0,1-.52.16h0l-.22,0-.15-.07-.12-.1-.1.08-.12.08h0l-.2.12-.19.09-.16,0H5.61l-.23-.11-.15-.2,0-.12v-.25l-.08,0L5,67.36A.53.53,0,0,1,4.93,67.05Z"/><path d="M7.35,67.05l.05-.21.13-.17.08-.09.12-.13.09-.1L8,66.21l.12-.13L8.2,66l.1-.07a.66.66,0,0,1,.35-.11l.14,0a.46.46,0,0,1,.35.29h0l0,.08v.08l.12-.13L9.39,66l.06-.07v0h0a.72.72,0,0,1,.25-.18l.17,0,.12,0,.19.1.13.17.06.23v.16l0,0v0l0,.08v0l.18,0,.16.11.08.16,0,.17a.51.51,0,0,1-.18.39l0,0-.2.16-.23.16a1,1,0,0,1-.52.16h0l-.21,0-.16-.07-.12-.1-.1.08-.11.08h0L8.7,68l-.18.09-.17,0H8l-.23-.11-.15-.2,0-.12v-.1l0-.15-.09,0-.07-.07A.53.53,0,0,1,7.35,67.05Z"/><path d="M9.82,67.05l0-.17.09-.14.15-.1.26-.14.33-.18.42-.25.43-.22A1.83,1.83,0,0,1,12,65.7a1.57,1.57,0,0,1,.27,0h0l.21,0a.48.48,0,0,1,.34.31l0,.2,0,.14a1.66,1.66,0,0,1-.12.31h.06l.14,0h0l.17,0,.14.1.09.15,0,.16v0l0,.17-.1.14-.16.1-.39.14-.32.1a1.78,1.78,0,0,1-.31.08l-.21,0-.14,0-.2-.11-.12-.18,0-.17,0-.22L11.5,67l0,0,0,0-.2.11-.21.12-.36.21-.31.15-.18.05h0l-.16,0L10,67.38l-.1-.15Z"/><path d="M12.46,67.05l0-.21.13-.17.08-.09.11-.13.09-.1.13-.14.13-.13.13-.11.1-.07a.66.66,0,0,1,.35-.11l.14,0a.47.47,0,0,1,.35.29h0l0,.08,0,.08.11-.13.09-.12.07-.07v0h0a.64.64,0,0,1,.25-.18l.17,0,.12,0,.18.1.14.17.06.23v0l0,.14v.08l0,.08v0l.18,0,.15.11.09.16,0,.17a.49.49,0,0,1-.19.39l0,0-.2.16-.23.16a1.08,1.08,0,0,1-.52.16h0l-.22,0-.15-.07-.12-.1-.11.08L14,67.9h0l-.2.12-.19.09-.16,0h-.32l-.23-.11-.15-.2,0-.12v-.25l-.08,0-.07-.07A.47.47,0,0,1,12.46,67.05Z"/><path d="M14.93,67l0-.17.11-.14.11-.1.12-.12.23-.22.23-.2.15-.11.14-.07a.61.61,0,0,1,.32-.08h.14l.22.13.14.2,0,.19,0,.2,0,0,0,.06a.45.45,0,0,1,.24.25l0,.16v0l0,.17-.1.14-.16.1-.26.1-.2.07-.09,0-.06,0-.09,0-.11,0-.13,0-.18-.09-.13-.16-.17,0h-.1a.4.4,0,0,1-.24-.14L15,67.19l0-.13Z"/><path d="M26.41,67l0-.17.1-.14.16-.1.05,0,.11-.07.18-.13.27-.23.17-.15.14-.13.09-.09,0,0,.21-.12.11,0,.12,0a.44.44,0,0,1,.28.23l.05.14v.07l0,.14h0v.06l0,.07,0,.09,0,.11,0,.12h0l.17-.07h.17l.16.07.13.13.07.17v.17L29,67.3l-.13.13-.21.15-.2.14-.21.16-.2.13-.13.07-.13,0-.18,0-.18,0L27.27,68l-.12-.15,0-.12v-.34l-.05,0-.06,0-.16,0a.45.45,0,0,1-.43-.31l0-.14Z"/><path d="M28.18,67.05l0-.17.1-.14.14-.1.26-.14.33-.18.42-.25.43-.22a2,2,0,0,1,.46-.15,1.28,1.28,0,0,1,.27,0h0l.21,0a.48.48,0,0,1,.34.31l0,.2,0,.14a1.66,1.66,0,0,1-.12.31h.06l.14,0h0l.17,0,.14.1.1.15,0,.16v0l0,.17-.1.14-.16.1-.39.14-.32.1-.3.08-.22,0-.14,0-.2-.11-.12-.18,0-.17,0-.22.08-.18,0,0,0,0-.2.11-.21.12-.35.21-.32.15-.18.05h0l-.17,0-.15-.09-.1-.15Z"/><path d="M30.82,67.05l.05-.21.13-.17.08-.09.11-.13.09-.1.13-.14.13-.13.13-.11.1-.07a.66.66,0,0,1,.35-.11l.14,0a.46.46,0,0,1,.35.29h0l0,.08,0,.08.11-.13.09-.12.07-.07v0h0a.64.64,0,0,1,.25-.18l.17,0,.12,0,.18.1.14.17.06.23v0l0,.14v.08l0,.08v0l.18,0,.15.11.09.16,0,.17a.49.49,0,0,1-.19.39l0,0-.2.16-.23.16a1,1,0,0,1-.52.16h0l-.22,0-.15-.07-.12-.1-.1.08-.12.08h0l-.2.12-.19.09-.16,0H31.5l-.23-.11-.15-.2,0-.12v-.25l-.08,0-.07-.07A.53.53,0,0,1,30.82,67.05Z"/><path d="M33.29,67.05l0-.17.09-.14.15-.1.26-.14.32-.18.42-.25.44-.22a1.83,1.83,0,0,1,.45-.15,1.57,1.57,0,0,1,.27,0h0l.21,0a.5.5,0,0,1,.34.31l0,.2,0,.14a1.69,1.69,0,0,1-.13.31h.06l.15,0h0l.17,0,.14.1.09.15,0,.16v0l0,.17-.1.14-.16.1-.39.14-.32.1a2,2,0,0,1-.31.08l-.21,0-.14,0L35,67.7l-.12-.18,0-.17,0-.22L35,67l0,0,0,0L34.8,67l-.2.12-.36.21-.31.15-.18.05h0l-.16,0-.15-.09-.1-.15Z"/></g><path class="cls-7" d="M1.18,65.94h.38V63.11H1.18Z"/><path class="cls-7" d="M31.86,128.69H6.52a5.47,5.47,0,0,1-5.47-5.47V57.74a5.47,5.47,0,0,1,5.47-5.46H31.86a5.47,5.47,0,0,1,5.46,5.46v65.48A5.47,5.47,0,0,1,31.86,128.69ZM6.52,52.9a4.84,4.84,0,0,0-4.84,4.84v65.48a4.84,4.84,0,0,0,4.84,4.84H31.86a4.84,4.84,0,0,0,4.84-4.84V57.74a4.84,4.84,0,0,0-4.84-4.84Z"/><path class="cls-3" d="M31.86,52.59H6.52a5.16,5.16,0,0,0-5.16,5.15v65.48a5.16,5.16,0,0,0,5.16,5.16H31.86A5.16,5.16,0,0,0,37,123.22V57.74a5.16,5.16,0,0,0-5.15-5.15M34.6,117.9H3.77V63.18H34.6Z"/><path class="cls-7" d="M31.86,128.69H6.52a5.47,5.47,0,0,1-5.47-5.46V57.74a5.47,5.47,0,0,1,5.47-5.46H31.86a5.47,5.47,0,0,1,5.46,5.46v65.49A5.47,5.47,0,0,1,31.86,128.69ZM6.52,52.9a4.84,4.84,0,0,0-4.84,4.84v65.49a4.84,4.84,0,0,0,4.84,4.83H31.86a4.84,4.84,0,0,0,4.84-4.83V57.74a4.84,4.84,0,0,0-4.84-4.84Zm28.4,65.32H3.46V62.87H34.92Zm-30.83-.63h30.2V63.49H4.09Z"/><path class="cls-7" d="M19.18,126.39a3.78,3.78,0,0,1-3.66-3,3.74,3.74,0,0,1,5.72-3.89,3.65,3.65,0,0,1,1.61,2.36,3.7,3.7,0,0,1-.53,2.82A3.77,3.77,0,0,1,19.18,126.39Zm0-6.86a3.55,3.55,0,0,0-.64.06,3.11,3.11,0,0,0-2,1.35,3.12,3.12,0,0,0,.9,4.31A3.12,3.12,0,1,0,20.9,120,3.09,3.09,0,0,0,19.19,119.53Z"/></svg>