<svg id="TFT" xmlns="http://www.w3.org/2000/svg" viewBox="0 0 366 243.43"><defs><style>.cls-1,.cls-3{fill:none;}.cls-1,.cls-2,.cls-3{stroke:#000;stroke-miterlimit:10;}.cls-1,.cls-2{stroke-linecap:round;}.cls-2{fill:#fff;}</style></defs><title>mobile</title><rect class="cls-1" x="1.3" y="85.03" width="57.08" height="121.35" rx="8.25"/><path class="cls-2" d="M50.13,85H9.55A8.25,8.25,0,0,0,1.3,93.27V198.13a8.26,8.26,0,0,0,8.25,8.25H50.13a8.25,8.25,0,0,0,8.25-8.25V93.27A8.24,8.24,0,0,0,50.13,85Zm4.4,104.58H5.16V102H54.53Z"/><path class="cls-3" d="M25.25,194.19a5.49,5.49,0,1,1,1.58,7.6A5.49,5.49,0,0,1,25.25,194.19Z"/></svg>