<svg xmlns="http://www.w3.org/2000/svg" viewBox="0 0 668.62 243.43"><defs><style>.cls-1,.cls-3,.cls-5{fill:#fff;}.cls-1,.cls-2,.cls-3,.cls-4{stroke:#000;stroke-miterlimit:10;}.cls-2,.cls-4{fill:none;}.cls-2,.cls-3{stroke-linecap:round;}</style></defs><title>mobile-tablet-desktop</title><g id="TFT"><rect class="cls-1" x="451.51" y="194.25" width="53.43" height="45.32"/><rect class="cls-1" x="431.75" y="231.48" width="92.96" height="11.45"/><path class="cls-1" d="M305.55.5H650.91a7.84,7.84,0,0,1,7.83,7.83V198.55a7.84,7.84,0,0,1-7.83,7.83H305.55a7.83,7.83,0,0,1-7.82-7.83V8.33A7.83,7.83,0,0,1,305.55.5Zm12.73,188h320V18.18h-320Z"/><rect class="cls-2" x="1.3" y="85.03" width="57.08" height="121.35" rx="8.25"/><path class="cls-3" d="M50.13,85H9.55A8.25,8.25,0,0,0,1.3,93.27V198.13a8.26,8.26,0,0,0,8.25,8.25H50.13a8.25,8.25,0,0,0,8.25-8.25V93.27A8.24,8.24,0,0,0,50.13,85Zm4.4,104.58H5.16V102H54.53Z"/><path class="cls-4" d="M25.25,194.19a5.49,5.49,0,1,1,1.58,7.6A5.49,5.49,0,0,1,25.25,194.19Z"/><path class="cls-1" d="M239,199.83V20.57A6.54,6.54,0,0,0,232.49,14H97.32a6.54,6.54,0,0,0-6.54,6.54V199.83a6.55,6.55,0,0,0,6.54,6.55H232.49A6.55,6.55,0,0,0,239,199.83ZM105.77,189.15v-158H224.25v158Z"/><path class="cls-4" d="M164.19,21.73a1,1,0,1,1,.23,1.42A1,1,0,0,1,164.19,21.73Z"/><path class="cls-4" d="M168.26,195.57a4.27,4.27,0,1,1-6-.71A4.28,4.28,0,0,1,168.26,195.57Z"/><rect class="cls-4" x="163.54" y="196.8" width="2.74" height="2.82" rx="0.39"/><rect class="cls-4" x="90.78" y="14.03" width="148.26" height="192.35" rx="6.54"/></g><g id="eReader"><rect class="cls-5" x="146.67" y="50.24" width="106.04" height="147.97"/><path class="cls-1" d="M260.05,199.83V48.49a6.55,6.55,0,0,0-6.54-6.55H146.44a6.55,6.55,0,0,0-6.54,6.55V199.83a6.55,6.55,0,0,0,6.54,6.55H253.51A6.55,6.55,0,0,0,260.05,199.83ZM154.89,189.15V59.1h90.37V189.15Z"/><rect class="cls-4" x="195.91" y="194.02" width="8.13" height="8.38" rx="1.15"/><rect class="cls-4" x="139.9" y="41.94" width="120.15" height="164.43" rx="6.54"/></g></svg>