<svg xmlns="http://www.w3.org/2000/svg" viewBox="0 0 366 243.43"><defs><style>.cls-1,.cls-3{fill:#fff;}.cls-1,.cls-2{stroke:#000;stroke-miterlimit:10;}.cls-2{fill:none;}</style></defs><title>tablet</title><g id="TFT"><path class="cls-1" d="M150.68,199.83V20.57A6.54,6.54,0,0,0,144.14,14H9a6.54,6.54,0,0,0-6.55,6.54V199.83A6.55,6.55,0,0,0,9,206.38H144.14A6.55,6.55,0,0,0,150.68,199.83ZM17.41,189.15v-158H135.89v158Z"/><path class="cls-2" d="M75.83,21.73a1,1,0,1,1,.23,1.42A1,1,0,0,1,75.83,21.73Z"/><path class="cls-2" d="M79.91,195.57a4.27,4.27,0,1,1-6-.71A4.28,4.28,0,0,1,79.91,195.57Z"/><rect class="cls-2" x="75.18" y="196.8" width="2.74" height="2.82" rx="0.39"/><rect class="cls-2" x="2.42" y="14.03" width="148.26" height="192.35" rx="6.54"/></g><g id="eReader"><rect class="cls-3" x="58.31" y="50.24" width="106.04" height="147.97"/><path class="cls-1" d="M171.7,199.83V48.49a6.56,6.56,0,0,0-6.55-6.55H58.09a6.55,6.55,0,0,0-6.55,6.55V199.83a6.55,6.55,0,0,0,6.55,6.55H165.15A6.56,6.56,0,0,0,171.7,199.83ZM66.53,189.15V59.1h90.38V189.15Z"/><rect class="cls-2" x="107.55" y="194.02" width="8.13" height="8.38" rx="1.15"/><rect class="cls-2" x="51.54" y="41.94" width="120.15" height="164.43" rx="6.54"/></g></svg>